# Blender 5.0.1
# www.blender.org
mtllib elder_Female_pierna_d.mtl
o elder_Female_pierna_d
v 0.111146 -0.260578 0.052855
v 0.104153 -0.257213 -0.056915
v 0.010752 -0.255542 0.159636
v -0.018581 -0.260043 -0.093115
v -0.119634 -0.266981 0.125942
v -0.123201 -0.269046 -0.042013
v 0.139221 -0.121087 0.051978
v 0.114401 -0.124189 -0.074700
v 0.000419 -0.084772 0.171811
v -0.024751 -0.124830 -0.151923
v -0.165353 -0.076930 0.130985
v -0.173006 -0.092866 -0.068723
v 0.138153 0.069177 0.059603
v 0.110423 0.046706 -0.122518
v -0.009298 0.067978 0.171912
v -0.037171 -0.002225 -0.190197
v 0.106780 0.209225 -0.144795
v 0.145452 0.243959 0.041025
v -0.001848 0.231746 0.158839
v -0.052191 0.137678 -0.224209
v -0.192778 0.185874 0.134428
v -0.179446 0.056785 0.118655
v -0.197321 0.016813 -0.083666
v -0.209113 0.098013 -0.084808
vn 0.9803 -0.1469 -0.1321
vn 0.6803 -0.0655 0.7300
vn 0.3868 -0.2586 -0.8852
vn -0.2422 -0.0838 0.9666
vn -0.9674 -0.2499 0.0418
vn -0.4676 -0.3113 -0.8273
vn 0.9859 -0.0049 -0.1674
vn 0.6300 0.0023 0.7766
vn 0.4701 -0.2241 -0.8537
vn -0.2083 -0.0132 0.9780
vn -0.5366 -0.2682 -0.8001
vn 0.9845 -0.0316 -0.1728
vn 0.6134 0.0470 0.7884
vn 0.4708 -0.1333 -0.8721
vn -0.2698 0.0187 0.9627
vn -0.9858 -0.1463 0.0829
vn -0.5930 -0.1961 -0.7810
vn -0.9850 -0.1259 0.1181
vt 0.512500 0.368750
vt 0.365625 0.340625
s 1
usemtl peopleColors
f 2/1/1 8/1/1 7/1/1 1/1/1
f 1/1/2 7/1/2 9/1/2 3/1/2
f 4/2/3 10/2/3 8/2/3 2/2/3
f 3/2/4 9/2/4 11/2/4 5/2/4
f 5/1/5 11/1/5 12/1/5 6/1/5
f 6/2/6 12/2/6 10/2/6 4/2/6
f 8/2/7 14/2/7 13/2/7 7/2/7
f 13/2/8 15/2/8 9/2/8 7/2/8
f 10/2/9 16/2/9 14/2/9 8/2/9
f 22/2/10 15/2/10 19/2/10 21/2/10
f 12/2/11 23/2/11 16/2/11 10/2/11
f 14/2/12 17/2/12 18/2/12 13/2/12
f 15/2/13 13/2/13 18/2/13 19/2/13
f 14/2/14 16/2/14 20/2/14 17/2/14
f 15/2/15 22/2/15 11/2/15 9/2/15
f 22/1/16 23/1/16 12/1/16 11/1/16
f 23/2/17 24/2/17 20/2/17 16/2/17
f 23/1/18 22/1/18 21/1/18 24/1/18
