# Blender 5.0.1
# www.blender.org
mtllib elder_Female_tobillo_i.mtl
o elder_Female_tobillo_i
v -0.023859 -0.322305 -0.108417
v -0.100084 -0.332679 -0.001360
v -0.108910 -0.135294 0.016251
v -0.037187 -0.147150 -0.113078
v -0.026572 -0.334651 0.039011
v -0.036842 -0.156976 0.066501
v -0.116851 -0.133405 -0.080503
v -0.084130 -0.323241 -0.078254
v 0.039307 -0.316925 0.007838
v 0.050134 -0.163423 0.022618
v 0.036777 -0.309407 -0.068008
v 0.060675 -0.161349 -0.051131
v -0.113411 0.082831 0.070203
v -0.016546 0.048328 -0.110749
v -0.029685 0.080714 0.128671
v -0.128813 0.045088 -0.065444
v 0.080234 0.061259 0.075737
v 0.093951 0.072181 -0.036197
v -0.113298 0.203569 0.078892
v 0.002588 0.164878 -0.103162
v -0.012576 0.197008 0.164448
v -0.129360 0.160924 -0.049846
v 0.089935 0.180562 0.107002
v 0.087069 0.184427 -0.044057
v -0.118588 0.247633 0.089363
v -0.008635 0.264804 -0.061571
v -0.024088 0.243317 0.189166
v -0.116648 0.263221 -0.015934
v 0.092034 0.236455 0.125715
v 0.088607 0.251549 -0.021096
v -0.116373 0.306841 0.090184
v 0.006725 0.307376 -0.061419
v -0.011323 0.311877 0.192388
v -0.114276 0.310206 -0.019789
v 0.117433 0.300438 0.152920
v 0.113517 0.298373 -0.015027
v -0.033423 -0.465078 -0.122099
v -0.092524 -0.485617 -0.009550
v -0.025605 -0.474532 0.033143
v -0.081252 -0.481502 -0.089382
v 0.024084 -0.474926 -0.011258
v 0.016848 -0.481395 -0.090812
v -0.039074 -0.147221 0.095387
v -0.128476 -0.122832 0.031994
v -0.139542 -0.126867 -0.093292
v -0.035658 -0.140823 -0.135665
v 0.086335 -0.155746 -0.057864
v 0.072789 -0.159855 0.039711
v -0.130868 -0.017623 0.060221
v -0.145749 -0.040624 -0.083150
v -0.024810 -0.045694 -0.132183
v 0.101382 -0.052949 -0.049998
v 0.086174 -0.061686 0.067553
v -0.039675 -0.035072 0.128008
v -0.112098 0.005006 0.053892
v -0.125129 -0.018397 -0.066978
v -0.022720 -0.020292 -0.108434
v 0.080740 -0.024265 -0.040642
v 0.067984 -0.032512 0.059747
v -0.037644 -0.007421 0.110003
vn -0.9931 -0.1045 -0.0526
vn -0.5390 -0.1276 0.8326
vn -0.4134 -0.0693 -0.9079
vn 0.4446 -0.1141 0.8884
vn 0.9919 -0.1190 0.0455
vn 0.5425 0.0140 -0.8399
vn -0.4071 -0.9123 0.0437
vn -0.4157 -0.8788 0.2344
vn -0.2288 -0.9508 -0.2089
vn 0.0388 -0.9642 0.2622
vn 0.1883 -0.9821 -0.0090
vn 0.0751 -0.9460 -0.3153
vn -0.9924 -0.0144 0.1225
vn -0.6152 -0.1020 0.7817
vn -0.3747 0.1217 -0.9191
vn 0.4015 -0.2926 0.8679
vn 0.9991 -0.0162 0.0403
vn 0.5699 -0.0315 -0.8211
vn -0.9978 0.0335 0.0563
vn -0.6485 -0.3779 0.6608
vn -0.3666 0.3278 -0.8707
vn 0.4325 -0.3186 0.8435
vn 0.9995 -0.0219 -0.0225
vn 0.4417 0.3455 -0.8279
vn -0.9990 0.0427 -0.0150
vn -0.7102 0.0611 0.7013
vn -0.3557 0.0318 -0.9340
vn 0.3497 -0.3041 0.8861
vn 0.9141 -0.4036 -0.0380
vn 0.3796 -0.1070 -0.9190
vn -0.5109 0.0819 -0.8557
vn -0.5056 -0.0561 0.8609
vn -0.9847 -0.0223 -0.1730
vn 0.5548 -0.0958 0.8264
vn 0.9932 -0.0978 -0.0631
vn 0.5433 0.0463 -0.8383
vn -0.9926 -0.0651 0.1024
vn -0.6062 -0.2221 0.7637
vn -0.3697 0.0790 -0.9258
vn 0.3846 -0.2766 0.8807
vn 0.9796 -0.1602 0.1214
vn 0.5403 -0.0225 -0.8412
vn -0.7468 0.6640 -0.0377
vn -0.4433 0.5324 0.7211
vn -0.2534 0.6895 -0.6785
vn 0.4639 0.4723 0.7494
vn 0.8230 0.5484 0.1483
vn 0.4677 0.5726 -0.6733
vn -0.9913 -0.0504 0.1219
vn -0.5892 -0.1440 0.7951
vn -0.3747 0.0016 -0.9271
vn 0.3855 -0.2138 0.8976
vn 0.9836 -0.1434 0.1097
vn 0.5566 -0.0547 -0.8290
vt 0.262500 0.846875
vt 0.381250 0.850000
vt 0.512500 0.368750
vt 0.365625 0.340625
vt 0.246875 0.365625
s 1
usemtl peopleColors
f 2/1/1 3/1/1 7/1/1 8/1/1
f 2/1/2 5/1/2 6/1/2 3/1/2
f 4/1/3 1/1/3 8/1/3 7/1/3
f 6/1/4 5/1/4 9/1/4 10/1/4
f 10/2/5 9/2/5 11/2/5 12/2/5
f 12/2/6 11/2/6 1/2/6 4/2/6
f 3/3/7 44/3/7 45/3/7 7/3/7
f 3/3/8 6/3/8 43/3/8 44/3/8
f 7/3/9 45/3/9 46/3/9 4/3/9
f 6/3/10 10/3/10 48/3/10 43/3/10
f 10/3/11 12/3/11 47/3/11 48/3/11
f 12/3/12 4/3/12 46/3/12 47/3/12
f 16/4/13 13/4/13 19/4/13 22/4/13
f 13/4/14 15/4/14 21/4/14 19/4/14
f 14/4/15 16/4/15 22/4/15 20/4/15
f 15/4/16 17/4/16 23/4/16 21/4/16
f 17/4/17 18/4/17 24/4/17 23/4/17
f 18/4/18 14/4/18 20/4/18 24/4/18
f 22/4/19 19/4/19 25/4/19 28/4/19
f 19/3/20 21/3/20 27/3/20 25/3/20
f 20/4/21 22/4/21 28/4/21 26/4/21
f 21/4/22 23/4/22 29/4/22 27/4/22
f 23/4/23 24/4/23 30/4/23 29/4/23
f 24/4/24 20/4/24 26/4/24 30/4/24
f 28/4/25 25/4/25 31/4/25 34/4/25
f 25/4/26 27/4/26 33/4/26 31/4/26
f 26/3/27 28/3/27 34/3/27 32/3/27
f 27/4/28 29/4/28 35/4/28 33/4/28
f 29/3/29 30/3/29 36/3/29 35/3/29
f 30/3/30 26/3/30 32/3/30 36/3/30
f 8/1/31 1/1/31 37/1/31 40/1/31
f 5/1/32 2/1/32 38/1/32 39/1/32
f 2/1/33 8/1/33 40/1/33 38/1/33
f 9/1/34 5/1/34 39/1/34 41/1/34
f 11/1/35 9/1/35 41/1/35 42/1/35
f 1/1/36 11/1/36 42/1/36 37/1/36
f 44/4/37 49/4/37 50/4/37 45/4/37
f 54/4/38 49/4/38 44/4/38 43/4/38
f 45/4/39 50/4/39 51/4/39 46/4/39
f 53/4/40 54/4/40 43/4/40 48/4/40
f 52/4/41 53/4/41 48/4/41 47/4/41
f 51/4/42 52/4/42 47/4/42 46/4/42
f 49/5/43 55/5/43 56/5/43 50/5/43
f 54/5/44 60/5/44 55/5/44 49/5/44
f 50/5/45 56/5/45 57/5/45 51/5/45
f 59/5/46 60/5/46 54/5/46 53/5/46
f 58/5/47 59/5/47 53/5/47 52/5/47
f 57/5/48 58/5/48 52/5/48 51/5/48
f 55/4/49 13/4/49 16/4/49 56/4/49
f 60/4/50 15/4/50 13/4/50 55/4/50
f 16/4/51 14/4/51 57/4/51 56/4/51
f 17/4/52 15/4/52 60/4/52 59/4/52
f 18/4/53 17/4/53 59/4/53 58/4/53
f 14/4/54 18/4/54 58/4/54 57/4/54
