# Blender 5.0.1
# www.blender.org
mtllib elder_Female_pelvis.mtl
o elder_Female_pelvis
v -0.374113 -0.283121 0.057495
v -0.221712 -0.295334 0.168633
v -0.343755 -0.317855 -0.129863
v -0.359035 -0.179306 0.057679
v -0.332855 -0.180525 -0.150659
v -0.032058 -0.341206 0.135742
v -0.062692 -0.221924 0.176122
v -0.232811 -0.206216 0.169658
v -0.085508 -0.104161 0.191108
v -0.225295 -0.093401 0.149410
v -0.166235 -0.230204 -0.260453
v -0.329537 -0.072104 0.013137
v -0.313009 -0.065770 -0.145116
v -0.215283 -0.044930 -0.252649
v -0.319322 -0.036586 -0.151813
v -0.210835 -0.077435 -0.238320
v -0.095936 -0.089987 -0.262085
v -0.096877 -0.047363 -0.280412
v -0.117930 -0.075450 0.240736
v -0.217664 -0.047967 0.178465
v -0.347121 -0.009075 0.003335
v -0.208253 0.033112 -0.235710
v -0.309406 0.019510 -0.120811
v -0.092098 0.018747 -0.266483
v -0.096173 0.106555 0.219422
v -0.203666 0.120408 0.171753
v -0.320838 0.161682 0.010351
v -0.198647 0.117336 -0.204829
v -0.086101 0.113552 -0.241695
v -0.097063 0.289596 0.230272
v -0.180335 0.267108 0.185857
v -0.281747 0.295710 0.028378
v -0.206828 0.321778 -0.123316
v -0.088487 0.316151 -0.186068
v -0.107790 0.018700 0.228165
v -0.215476 0.029830 0.180256
v -0.333293 0.073194 -0.004857
v -0.288933 0.102147 -0.099577
v -0.090761 0.200169 0.226453
v -0.193915 0.208623 0.184338
v -0.298986 0.232735 0.027318
v -0.186605 0.220581 -0.154127
v -0.084137 0.221227 -0.213217
v -0.188478 -0.389402 -0.216278
v -0.025504 -0.429067 -0.084004
v -0.254700 0.204877 -0.074287
v -0.351285 -0.066211 0.020625
v -0.221302 -0.108058 0.186114
v -0.118508 -0.111561 0.244702
v -0.099479 -0.068119 0.212498
v -0.244115 0.306992 -0.039701
v -0.288768 -0.081102 0.092271
v -0.293761 -0.027087 0.101828
v -0.267708 0.140806 0.099626
v -0.241164 0.280914 0.105203
v -0.285850 0.051575 0.098514
v -0.254658 0.220525 0.112910
v -0.297621 -0.096859 0.114385
v -0.006094 0.021185 -0.273528
v -0.005542 0.112679 -0.248780
v -0.004434 0.318847 -0.199042
v 0.005523 -0.081278 0.247900
v 0.005383 0.193776 0.241601
v 0.002330 -0.342480 0.104601
v -0.002009 -0.411792 -0.090193
v 0.337630 -0.317855 -0.145043
v 0.376302 -0.283121 0.040777
v 0.361248 -0.179306 0.041632
v 0.325815 -0.180525 -0.165333
v 0.229002 -0.295334 0.158591
v 0.240136 -0.206216 0.159122
v 0.178659 -0.389402 -0.224457
v 0.154471 -0.230204 -0.267598
v 0.038072 -0.341206 0.134180
v 0.004045 -0.225287 0.181557
v 0.070473 -0.221924 0.173155
v 0.004578 -0.113854 0.205489
v 0.093935 -0.104161 0.187110
v 0.231725 -0.093401 0.139228
v 0.329795 -0.072104 -0.001552
v 0.306236 -0.065770 -0.158912
v 0.292590 -0.081102 0.079319
v 0.200013 -0.077435 -0.247473
v 0.312244 -0.036586 -0.165883
v 0.203817 -0.044930 -0.261986
v 0.351855 -0.066211 0.004960
v 0.084168 -0.089987 -0.266097
v 0.084293 -0.047363 -0.284449
v 0.108844 -0.068119 0.207857
v 0.128534 -0.075450 0.235245
v 0.129289 -0.111561 0.239182
v 0.225396 -0.047967 0.168594
v 0.229371 -0.108058 0.176074
v 0.298004 -0.027087 0.088645
v 0.302420 -0.096859 0.101017
v 0.303718 0.019510 -0.134471
v 0.197549 0.033112 -0.244750
v 0.346925 -0.009075 -0.012127
v 0.080138 0.018747 -0.270320
v 0.005513 0.008814 0.247465
v 0.117844 0.018700 0.223138
v 0.223290 0.029830 0.170481
v 0.289954 0.051575 0.085686
v 0.332746 0.073194 -0.019695
v 0.284212 0.102147 -0.112346
v 0.189328 0.117336 -0.213473
v 0.075252 0.113552 -0.245290
v 0.105850 0.106555 0.214921
v 0.005175 0.095668 0.232269
v 0.100756 0.200169 0.222187
v 0.211113 0.120408 0.162512
v 0.201932 0.208623 0.175519
v 0.320980 0.161682 -0.003948
v 0.271880 0.140806 0.087605
v 0.259434 0.220525 0.101457
v 0.299906 0.232735 0.013976
v 0.179556 0.220581 -0.162284
v 0.074558 0.221227 -0.216753
v 0.107222 0.289596 0.225721
v 0.005117 0.289678 0.229683
v 0.282732 0.295710 0.015802
v 0.245610 0.280914 0.094358
v 0.201131 0.321778 -0.132405
v 0.242104 0.306992 -0.050533
v 0.080113 0.316151 -0.189824
v 0.188433 0.267108 0.177642
v -0.006140 -0.224723 -0.275583
v -0.005471 -0.321885 -0.245570
v 0.251139 0.204877 -0.085557
v -0.004991 0.223622 -0.224014
v 0.021737 -0.429067 -0.085056
v -0.005987 -0.090741 -0.268730
v -0.006453 -0.045737 -0.289631
vn -0.9844 0.0933 -0.1491
vn -0.6244 0.0080 0.7811
vn -0.5492 -0.1198 -0.8270
vn 0.2063 -0.4146 0.8863
vn 0.0401 -0.1870 0.9815
vn -0.1380 -0.1788 0.9742
vn -0.1525 0.0124 0.9882
vn -0.9741 0.1971 -0.1107
vn -0.7924 0.4069 0.4545
vn -0.5984 0.0275 -0.8007
vn -0.6612 -0.3428 -0.6673
vn -0.7702 -0.6121 -0.1795
vn -0.1929 0.0853 -0.9775
vn -0.2220 -0.4020 -0.8883
vn 0.8440 0.0273 0.5356
vn -0.4942 0.1255 0.8603
vn -0.6729 0.1515 0.7240
vn -0.6906 0.3192 -0.6490
vn -0.9692 0.1446 -0.1993
vn -0.2212 0.2215 -0.9498
vn -0.2514 -0.0948 0.9632
vn -0.4544 0.0882 0.8864
vn -0.8722 0.1511 0.4652
vn -0.7354 0.3192 -0.5977
vn -0.9314 0.2168 -0.2923
vn -0.2474 0.3073 -0.9189
vn -0.1467 -0.0799 0.9859
vn -0.3971 -0.0656 0.9154
vn -0.8611 0.0993 0.4987
vn -0.3779 0.3473 -0.8582
vn -0.0664 -0.2722 -0.9599
vn -0.3885 0.1390 0.9109
vn -0.7243 0.1483 0.6734
vn -0.7346 0.3739 -0.5662
vn -0.4202 -0.0121 0.9073
vn -0.7478 0.2032 0.6321
vn -0.8646 0.2409 -0.4409
vn -0.4704 0.1954 -0.8605
vn -0.1471 0.2587 -0.9547
vn 0.2488 -0.8210 -0.5138
vn 0.4388 -0.8394 0.3206
vn -0.8617 0.2975 -0.4112
vn 0.0635 -0.9646 -0.2559
vn 0.0362 -0.9734 -0.2261
vn 0.8391 -0.0178 0.5437
vn -0.2546 -0.6840 0.6836
vn -0.8443 0.1274 -0.5205
vn -0.8155 0.3592 -0.4539
vn -0.8411 0.1736 0.5122
vn -0.7259 0.0535 0.6857
vn -0.7546 0.0014 0.6562
vn -0.8717 0.1061 0.4785
vn -0.8444 0.2363 0.4808
vn 0.2490 -0.8685 -0.4285
vn -0.6331 0.1822 0.7523
vn -0.0875 0.0414 -0.9953
vn -0.0780 -0.4084 -0.9095
vn -0.0946 0.2227 -0.9703
vn -0.0841 0.2588 -0.9623
vn -0.1103 0.2364 -0.9654
vn -0.1330 0.1430 0.9807
vn -0.0719 0.0410 0.9966
vn 0.9768 0.0933 -0.1928
vn 0.6585 0.0080 0.7525
vn 0.5119 -0.1198 -0.8507
vn -0.1666 -0.4146 0.8946
vn 0.0037 -0.1870 0.9824
vn 0.1812 -0.1788 0.9670
vn 0.1964 0.0124 0.9805
vn 0.9682 0.1971 -0.1540
vn 0.8118 0.4069 0.4188
vn 0.5622 0.0275 -0.8266
vn 0.6308 -0.3428 -0.6961
vn 0.7614 -0.6121 -0.2136
vn 0.1491 0.0853 -0.9851
vn 0.1822 -0.4020 -0.8973
vn -0.8193 0.0273 0.5727
vn 0.5320 0.1255 0.8374
vn 0.7045 0.1515 0.6934
vn 0.6610 0.3192 -0.6791
vn 0.9594 0.1446 -0.2423
vn 0.1786 0.2215 -0.9587
vn 0.2940 -0.0948 0.9511
vn 0.4935 0.0882 0.8653
vn 0.8921 0.1511 0.4259
vn 0.7080 0.3192 -0.6299
vn 0.9175 0.2168 -0.3335
vn 0.2062 0.3073 -0.9290
vn 0.1905 -0.0799 0.9784
vn 0.4375 -0.0656 0.8968
vn 0.8824 0.0993 0.4598
vn 0.3393 0.3473 -0.8742
vn 0.0236 -0.2722 -0.9619
vn 0.4286 0.1390 0.8927
vn 0.7536 0.1483 0.6404
vn 0.7086 0.3739 -0.5983
vn 0.4602 -0.0121 0.8877
vn 0.7752 0.2032 0.5982
vn 0.8441 0.2409 -0.4790
vn 0.4316 0.1954 -0.8806
vn 0.1045 0.2587 -0.9603
vn -0.2715 -0.8210 -0.5022
vn -0.4241 -0.8394 0.3398
vn 0.8425 0.2975 -0.4491
vn -0.0748 -0.9646 -0.2528
vn -0.0463 -0.9734 -0.2243
vn -0.8141 -0.0178 0.5805
vn 0.2848 -0.6840 0.6716
vn 0.8203 0.1274 -0.5576
vn 0.7944 0.3592 -0.4898
vn 0.8631 0.1736 0.4742
vn 0.7557 0.0535 0.6527
vn 0.7830 0.0014 0.6220
vn 0.8921 0.1061 0.4392
vn 0.8650 0.2363 0.4427
vn -0.2679 -0.8685 -0.4170
vn 0.6659 0.1822 0.7234
vn 0.0430 0.0414 -0.9982
vn 0.0374 -0.4084 -0.9120
vn 0.0513 0.2227 -0.9735
vn 0.0411 0.2588 -0.9651
vn 0.0672 0.2364 -0.9693
vn 0.1766 0.1430 0.9738
vn 0.1162 0.0410 0.9924
vt 0.365625 0.340625
vt 0.512500 0.368750
vt 0.268750 0.350000
vt 0.150000 0.387500
vt 0.134375 0.187500
vt 0.134375 0.187500
vt 0.371875 0.178125
s 1
usemtl peopleColors
f 3/1/1 1/1/1 4/1/1 5/1/1
f 1/1/2 2/1/2 8/1/2 4/1/2
f 44/1/3 3/1/3 5/1/3 11/1/3
f 6/2/4 64/2/4 75/2/4 7/2/4
f 6/1/5 7/1/5 8/1/5 2/1/5
f 7/2/6 75/2/6 77/2/6 9/2/6
f 8/2/7 7/2/7 9/2/7 10/2/7
f 5/2/8 4/2/8 12/2/8 13/2/8
f 4/2/9 52/2/9 12/2/9
f 11/1/10 5/1/10 13/1/10 16/1/10
f 16/3/11 13/3/11 15/3/11 14/3/11
f 12/3/12 47/3/12 15/3/12 13/3/12
f 11/2/13 16/2/13 17/2/13
f 17/3/14 16/3/14 14/3/14 18/3/14
f 19/3/15 49/3/15 9/3/15 50/3/15
f 49/4/16 19/4/16 20/4/16 48/4/16
f 20/4/17 53/4/17 58/4/17 48/4/17
f 14/4/18 15/4/18 23/4/18 22/4/18
f 15/4/19 47/4/19 21/4/19 23/4/19
f 18/4/20 14/4/20 22/4/20 24/4/20
f 50/5/21 62/5/21 100/5/21 35/5/21
f 20/4/22 19/4/22 35/4/22 36/4/22
f 21/3/23 53/3/23 56/3/23 37/3/23
f 22/4/24 23/4/24 38/4/24 28/4/24
f 23/3/25 21/3/25 37/3/25 38/3/25
f 24/4/26 22/4/26 28/4/26 29/4/26
f 25/5/27 109/6/27 63/5/27 39/5/27
f 26/4/28 25/4/28 39/4/28 40/4/28
f 54/4/29 57/4/29 41/4/29 27/4/29
f 28/4/30 42/4/30 43/4/30 29/4/30
f 11/1/31 127/1/31 128/1/31 44/1/31
f 25/4/32 26/4/32 36/4/32 35/4/32
f 26/4/33 54/4/33 56/4/33 36/4/33
f 46/4/34 42/4/34 28/4/34 38/4/34
f 30/4/35 31/4/35 40/4/35 39/4/35
f 40/3/36 31/3/36 55/3/36 57/3/36
f 32/4/37 51/4/37 46/4/37 41/4/37
f 42/4/38 33/4/38 34/4/38 43/4/38
f 43/4/39 34/4/39 61/4/39 130/4/39
f 45/2/40 44/2/40 128/2/40 65/2/40
f 45/2/41 65/2/41 64/2/41 6/2/41
f 38/4/42 37/4/42 27/4/42 46/4/42
f 47/3/43 12/3/43 52/3/43 58/3/43
f 48/3/44 10/3/44 9/3/44 49/3/44
f 35/3/45 19/3/45 50/3/45
f 9/7/46 77/7/46 62/7/46 50/7/46
f 33/4/47 42/4/47 46/4/47 51/4/47
f 27/4/48 41/4/48 46/4/48
f 53/4/49 21/4/49 47/4/49 58/4/49
f 53/4/50 20/4/50 36/4/50 56/4/50
f 26/3/51 40/3/51 57/3/51 54/3/51
f 27/4/52 37/4/52 56/4/52 54/4/52
f 32/4/53 41/4/53 57/4/53 55/4/53
f 10/3/54 48/3/54 58/3/54 52/3/54
f 4/1/55 8/1/55 10/1/55 52/1/55
f 127/2/56 11/2/56 17/2/56 132/2/56
f 132/3/57 17/3/57 18/3/57 133/3/57
f 133/4/58 18/4/58 24/4/58 59/4/58
f 59/4/59 24/4/59 29/4/59 60/4/59
f 29/4/60 43/4/60 130/4/60 60/4/60
f 109/6/61 25/5/61 35/5/61 100/5/61
f 120/5/62 30/5/62 39/5/62 63/5/62
f 66/1/63 69/1/63 68/1/63 67/1/63
f 67/1/64 68/1/64 71/1/64 70/1/64
f 72/1/65 73/1/65 69/1/65 66/1/65
f 74/2/66 76/2/66 75/2/66 64/2/66
f 74/1/67 70/1/67 71/1/67 76/1/67
f 76/2/68 78/2/68 77/2/68 75/2/68
f 71/2/69 79/2/69 78/2/69 76/2/69
f 69/2/70 81/2/70 80/2/70 68/2/70
f 68/2/71 80/2/71 82/2/71
f 73/1/72 83/1/72 81/1/72 69/1/72
f 83/3/73 85/3/73 84/3/73 81/3/73
f 84/3/74 86/3/74 80/3/74 81/3/74
f 73/2/75 87/2/75 83/2/75
f 87/3/76 88/3/76 85/3/76 83/3/76
f 78/3/77 91/3/77 90/3/77 89/3/77
f 91/4/78 93/4/78 92/4/78 90/4/78
f 95/4/79 94/4/79 92/4/79 93/4/79
f 85/4/80 97/4/80 96/4/80 84/4/80
f 84/4/81 96/4/81 98/4/81 86/4/81
f 88/4/82 99/4/82 97/4/82 85/4/82
f 89/5/83 101/5/83 100/5/83 62/5/83
f 92/4/84 102/4/84 101/4/84 90/4/84
f 98/3/85 104/3/85 103/3/85 94/3/85
f 97/4/86 106/4/86 105/4/86 96/4/86
f 96/3/87 105/3/87 104/3/87 98/3/87
f 99/4/88 107/4/88 106/4/88 97/4/88
f 108/5/89 110/5/89 63/5/89 109/6/89
f 111/4/90 112/4/90 110/4/90 108/4/90
f 116/4/91 115/4/91 114/4/91 113/4/91
f 118/4/92 117/4/92 106/4/92 107/4/92
f 128/1/93 127/1/93 73/1/93 72/1/93
f 102/4/94 111/4/94 108/4/94 101/4/94
f 103/4/95 114/4/95 111/4/95 102/4/95
f 129/4/96 105/4/96 106/4/96 117/4/96
f 112/4/97 126/4/97 119/4/97 110/4/97
f 112/3/98 115/3/98 122/3/98 126/3/98
f 129/4/99 124/4/99 121/4/99 116/4/99
f 117/4/100 118/4/100 125/4/100 123/4/100
f 118/4/101 130/4/101 61/4/101 125/4/101
f 131/2/102 65/2/102 128/2/102 72/2/102
f 64/2/103 65/2/103 131/2/103 74/2/103
f 105/4/104 129/4/104 113/4/104 104/4/104
f 86/3/105 95/3/105 82/3/105 80/3/105
f 93/3/106 91/3/106 78/3/106 79/3/106
f 101/3/107 89/3/107 90/3/107
f 78/7/108 89/7/108 62/7/108 77/7/108
f 129/4/109 117/4/109 123/4/109 124/4/109
f 113/4/110 129/4/110 116/4/110
f 94/4/111 95/4/111 86/4/111 98/4/111
f 94/4/112 103/4/112 102/4/112 92/4/112
f 115/3/113 112/3/113 111/3/113 114/3/113
f 103/4/114 104/4/114 113/4/114 114/4/114
f 115/4/115 116/4/115 121/4/115 122/4/115
f 95/3/116 93/3/116 79/3/116 82/3/116
f 68/1/117 82/1/117 79/1/117 71/1/117
f 127/2/118 132/2/118 87/2/118 73/2/118
f 132/3/119 133/3/119 88/3/119 87/3/119
f 133/4/120 59/4/120 99/4/120 88/4/120
f 59/4/121 60/4/121 107/4/121 99/4/121
f 130/4/122 118/4/122 107/4/122 60/4/122
f 109/6/123 100/5/123 101/5/123 108/5/123
f 120/5/124 63/5/124 110/5/124 119/5/124
