# Blender 5.0.1
# www.blender.org
mtllib elder_Female_pie_iobj.mtl
o elder_Female_pie_i
v -0.170620 0.107016 0.013989
v -0.058071 0.086477 0.073090
v -0.015378 0.097562 0.006171
v -0.137903 0.090592 0.061818
v -0.059779 0.097168 -0.043518
v -0.139333 0.090699 -0.036282
v -0.194322 0.038758 0.020617
v -0.051125 0.018558 0.065351
v 0.000414 0.050104 0.007030
v -0.152320 0.031764 0.062495
v -0.050528 0.041957 -0.040444
v -0.166278 0.045287 -0.026369
v -0.204402 -0.041336 0.011249
v -0.079391 -0.060149 0.087107
v -0.163573 -0.039388 0.069064
v -0.063395 -0.066265 -0.042401
v -0.149160 -0.038430 -0.040797
v 0.044099 -0.024492 0.081780
v 0.109272 -0.000602 0.008504
v 0.058548 -0.010555 -0.050345
v 0.061160 -0.083995 0.113687
v 0.056381 -0.086353 -0.062321
v 0.146111 -0.041586 0.084779
v 0.200733 -0.028843 0.020999
v 0.174601 -0.038424 -0.024963
v 0.170151 -0.090340 0.115905
v 0.177463 -0.091909 -0.060516
v 0.221753 -0.051100 0.052270
v 0.221835 -0.051348 -0.006691
v 0.231769 -0.089239 0.062841
v 0.230888 -0.094230 -0.018072
v -0.178959 -0.112215 0.011711
v -0.073660 -0.111888 0.080263
v -0.143667 -0.111260 0.062850
v -0.070646 -0.109953 -0.023577
v -0.132814 -0.110688 -0.030796
v 0.049390 -0.110929 0.100731
v 0.055165 -0.111753 -0.044346
v 0.162314 -0.111468 0.100141
v 0.172270 -0.114909 -0.044278
v 0.214208 -0.108372 0.059097
v 0.211969 -0.110528 -0.012791
vn -0.7106 0.2509 0.6574
vn 0.7744 0.1155 0.6220
vn -0.0825 -0.0506 0.9953
vn 0.7000 0.1439 -0.6995
vn -0.1061 -0.1089 -0.9884
vn -0.8058 0.2833 -0.5201
vn -0.7632 0.0958 0.6390
vn -0.0727 0.2037 0.9763
vn -0.0645 0.0835 -0.9944
vn -0.7668 0.0599 -0.6391
vn 0.2967 0.7571 0.5821
vn 0.3601 0.7996 -0.4805
vn -0.0656 0.3658 0.9284
vn -0.1027 0.0834 -0.9912
vn 0.1791 0.9001 0.3971
vn 0.3058 0.8701 -0.3864
vn 0.0358 0.5130 0.8577
vn 0.1544 0.3416 -0.9271
vn 0.2884 0.8610 0.4190
vn 0.5663 0.7956 -0.2151
vn 0.4732 0.5249 0.7075
vn 0.5137 0.4262 -0.7446
vn 0.9733 0.2292 -0.0141
vn -0.7854 -0.2719 0.5560
vn -0.2414 -0.1513 0.9586
vn -0.0075 -0.2418 -0.9703
vn -0.6557 -0.2437 -0.7146
vn -0.1901 -0.2259 0.9554
vn -0.1848 -0.4443 -0.8766
vn -0.0220 -0.5062 0.8621
vn -0.0146 -0.5759 -0.8174
vn 0.5168 -0.6147 0.5959
vn 0.4911 -0.6305 -0.6011
vn 0.6970 -0.7168 0.0193
vn -0.0160 -0.9998 0.0139
vn 0.0843 -0.9960 0.0288
vn 0.0030 -0.9999 -0.0124
vn -0.0034 -1.0000 -0.0046
vn 0.0028 -0.9999 -0.0121
vn 0.0307 -0.9995 -0.0025
vn 0.0031 -0.9999 -0.0125
vt 0.262500 0.846875
vt 0.903125 0.387500
vt 0.118750 0.875000
vt 0.915625 0.456250
vt 0.906250 0.381250
vt 0.878125 0.221875
s 1
usemtl peopleColors
f 4/1/1 1/1/1 7/1/1 10/1/1
f 3/1/2 2/1/2 8/1/2 9/1/2
f 2/1/3 4/1/3 10/1/3 8/1/3
f 5/1/4 3/1/4 9/1/4 11/1/4
f 6/1/5 5/1/5 11/1/5 12/1/5
f 1/1/6 6/1/6 12/1/6 7/1/6
f 10/2/7 7/2/7 13/2/7 15/2/7
f 8/2/8 10/2/8 15/2/8 14/2/8
f 12/2/9 11/2/9 16/2/9 17/2/9
f 7/2/10 12/2/10 17/2/10 13/2/10
f 9/3/11 8/3/11 18/3/11 19/3/11
f 11/1/12 9/1/12 19/1/12 20/1/12
f 8/2/13 14/2/13 21/2/13 18/2/13
f 16/2/14 11/2/14 20/2/14 22/2/14
f 19/4/15 18/4/15 23/4/15 24/4/15
f 20/4/16 19/4/16 24/4/16 25/4/16
f 18/2/17 21/2/17 26/2/17 23/2/17
f 22/2/18 20/2/18 25/2/18 27/2/18
f 24/4/19 23/4/19 28/4/19
f 25/4/20 24/4/20 28/4/20 29/4/20
f 23/2/21 26/2/21 30/2/21 28/2/21
f 27/2/22 25/2/22 29/2/22 31/2/22
f 31/2/23 29/2/23 28/2/23 30/2/23
f 15/5/24 13/5/24 32/5/24 34/5/24
f 14/5/25 15/5/25 34/5/25 33/5/25
f 17/5/26 16/5/26 35/5/26 36/5/26
f 13/5/27 17/5/27 36/5/27 32/5/27
f 21/5/28 14/5/28 33/5/28 37/5/28
f 16/5/29 22/5/29 38/5/29 35/5/29
f 26/5/30 21/5/30 37/5/30 39/5/30
f 22/5/31 27/5/31 40/5/31 38/5/31
f 30/5/32 26/5/32 39/5/32 41/5/32
f 27/5/33 31/5/33 42/5/33 40/5/33
f 31/5/34 30/5/34 41/5/34 42/5/34
f 38/6/35 40/6/35 39/6/35 37/6/35
f 40/6/36 42/6/36 41/6/36 39/6/36
f 35/6/37 38/6/38 37/6/38 33/6/39
f 32/6/40 36/6/40 34/6/40
f 35/6/37 33/6/39 34/6/41 36/6/41
