# Blender 5.0.1
# www.blender.org
mtllib elder_Female_pierna_i.mtl
o elder_Female_pierna_i
v -0.152301 -0.260578 0.058725
v -0.029203 -0.260043 -0.092878
v -0.047251 -0.255542 0.160928
v -0.150203 -0.257213 -0.051249
v 0.081506 -0.266981 0.121461
v 0.077589 -0.269046 -0.046486
v -0.180387 -0.121087 0.059099
v -0.025658 -0.124830 -0.151903
v -0.161233 -0.124189 -0.068560
v -0.187100 0.243959 0.048434
v -0.034699 0.231746 0.159571
v -0.156742 0.209225 -0.138924
v 0.154955 0.185874 0.126681
v -0.036385 -0.084772 0.172631
v 0.127404 -0.076930 0.124463
v 0.126155 -0.092866 -0.075388
v -0.178980 0.069177 0.066669
v -0.014955 -0.002225 -0.190692
v -0.159388 0.046706 -0.116507
v -0.026674 0.067978 0.172299
v 0.140934 0.056785 0.111518
v 0.149780 0.016813 -0.091399
v -0.001465 0.137678 -0.225339
v 0.161509 0.098013 -0.093065
vn -0.9852 -0.1469 -0.0883
vn -0.6471 -0.0655 0.7596
vn -0.4258 -0.2586 -0.8671
vn 0.2850 -0.0838 0.9549
vn 0.9683 -0.2499 -0.0014
vn 0.4303 -0.3113 -0.8473
vn -0.9924 -0.0049 -0.1233
vn -0.5948 0.0023 0.8038
vn -0.5077 -0.2241 -0.8319
vn 0.2516 -0.0132 0.9677
vn 0.5004 -0.2682 -0.8232
vn -0.9912 -0.0316 -0.1287
vn -0.5777 0.0470 0.8149
vn -0.5092 -0.1333 -0.8503
vn 0.3124 0.0187 0.9498
vn 0.9885 -0.1463 0.0389
vn 0.5576 -0.1961 -0.8066
vn 0.9893 -0.1259 0.0741
vt 0.512500 0.368750
vt 0.365625 0.340625
s 1
usemtl peopleColors
f 4/1/1 1/1/1 7/1/1 9/1/1
f 1/1/2 3/1/2 14/1/2 7/1/2
f 2/2/3 4/2/3 9/2/3 8/2/3
f 3/2/4 5/2/4 15/2/4 14/2/4
f 5/1/5 6/1/5 16/1/5 15/1/5
f 6/2/6 2/2/6 8/2/6 16/2/6
f 9/2/7 7/2/7 17/2/7 19/2/7
f 14/2/8 20/2/8 17/2/8 7/2/8
f 8/2/9 9/2/9 19/2/9 18/2/9
f 11/2/10 20/2/10 21/2/10 13/2/10
f 18/2/11 22/2/11 16/2/11 8/2/11
f 10/2/12 12/2/12 19/2/12 17/2/12
f 20/2/13 11/2/13 10/2/13 17/2/13
f 19/2/14 12/2/14 23/2/14 18/2/14
f 20/2/15 14/2/15 15/2/15 21/2/15
f 21/1/16 15/1/16 16/1/16 22/1/16
f 22/2/17 18/2/17 23/2/17 24/2/17
f 22/1/18 24/1/18 13/1/18 21/1/18
