# Blender 5.0.1
# www.blender.org
mtllib elder_Female_torso.mtl
o elder_Female_torso
v -0.095876 -0.235476 0.165341
v -0.179147 -0.257965 0.120926
v -0.280560 -0.229363 -0.036553
v -0.205640 -0.203295 -0.188247
v -0.087299 -0.208922 -0.250999
v -0.241312 -0.172515 0.065870
v -0.263964 -0.119366 -0.031361
v -0.199149 -0.086374 -0.177800
v -0.088595 -0.030781 -0.242991
v -0.191259 -0.146193 0.160232
v -0.243022 -0.092580 0.064406
v -0.249029 0.035260 -0.157924
v -0.094939 0.131030 -0.219376
v -0.074717 -0.125355 0.200953
v -0.090447 -0.201041 0.174114
v -0.182048 0.118051 -0.201210
v -0.245083 0.098782 -0.168766
v -0.267946 0.072116 0.033515
v -0.257802 -0.008405 -0.020421
v -0.127436 0.122008 0.074441
v -0.222999 0.011308 0.090242
v -0.074053 0.117331 0.073720
v -0.123693 0.185297 0.032179
v -0.206965 0.162518 0.028061
v -0.147588 0.246663 -0.064262
v -0.217611 0.224031 -0.057475
v -0.095372 0.259431 -0.127899
v -0.227506 0.213313 -0.139042
v -0.187259 -0.096985 0.173977
v -0.127862 -0.085018 0.197531
v -0.188317 -0.045291 0.161658
v -0.133535 -0.037903 0.179398
v -0.066298 -0.039688 0.175493
v -0.235497 0.044337 0.048464
v -0.067078 0.053280 0.119857
v -0.136315 0.042549 0.127542
v -0.199464 0.092763 0.059854
v -0.079725 0.287620 -0.109903
v -0.123996 0.271291 -0.053458
v -0.099643 0.194412 0.040640
v -0.073199 0.157200 0.052574
v -0.242927 -0.218080 -0.104632
v -0.231562 -0.103796 -0.104845
v -0.252743 -0.007998 -0.088836
v -0.239976 -0.244158 0.040272
v -0.185600 -0.198799 0.128455
v -0.003247 -0.206226 -0.263974
v -0.002948 -0.014946 -0.250573
v 0.006277 -0.201500 0.163514
v 0.006861 -0.127151 0.189732
v 0.004460 0.105421 0.081971
v 0.006190 -0.034944 0.159611
v 0.004002 0.141881 0.061408
v 0.108410 -0.235476 0.160789
v 0.006305 -0.235394 0.164752
v 0.103377 -0.201041 0.169795
v 0.283919 -0.229363 -0.049129
v 0.246798 -0.244159 0.029427
v 0.249272 -0.172515 0.054940
v 0.267571 -0.119366 -0.043203
v 0.202318 -0.203295 -0.197336
v 0.243292 -0.218081 -0.115464
v 0.231929 -0.103796 -0.115171
v 0.196298 -0.086374 -0.186610
v 0.081300 -0.208922 -0.254755
v 0.082951 -0.030781 -0.246813
v 0.088858 -0.125355 0.197309
v 0.250915 -0.092580 0.053402
v 0.261902 -0.008405 -0.032000
v 0.253801 -0.007998 -0.100121
v 0.247015 0.035260 -0.168975
v 0.178172 0.118051 -0.209235
v 0.090341 0.131030 -0.223504
v 0.196403 -0.198799 0.119945
v 0.189621 -0.257965 0.112710
v 0.242590 0.098782 -0.179631
v 0.226354 0.213313 -0.149154
v 0.220101 0.224031 -0.067226
v 0.213275 0.162517 0.018698
v 0.242688 0.044337 0.037811
v 0.232062 0.011308 0.080103
v 0.207198 0.092763 0.050794
v 0.147125 0.042549 0.121228
v 0.135891 0.122008 0.068575
v 0.082528 0.117331 0.070231
v 0.130269 0.185297 0.026521
v 0.149845 0.246663 -0.070889
v 0.106620 0.194412 0.036045
v 0.126758 0.271291 -0.059045
v 0.094847 0.259431 -0.132137
v 0.080017 0.287620 -0.113462
v -0.000520 0.284161 -0.141565
v -0.001082 0.260638 -0.166824
v -0.002369 0.159061 -0.224557
v 0.203471 -0.146193 0.151438
v 0.200088 -0.096985 0.165347
v 0.141799 -0.085018 0.191523
v 0.200595 -0.045291 0.152994
v 0.079314 -0.039688 0.172248
v 0.077615 0.053280 0.116634
v 0.146658 -0.037903 0.173156
v 0.080734 0.157200 0.049145
v 0.005215 0.050626 0.115842
vn 0.0556 -0.1138 0.9920
vn -0.9372 0.0197 0.3482
vn -0.9166 0.0881 -0.3899
vn -0.4974 0.0629 -0.8653
vn 0.1099 -0.3420 0.9333
vn -0.9776 0.0124 0.2103
vn -0.9105 -0.2423 -0.3351
vn -0.3921 0.0120 -0.9198
vn -0.4304 -0.1594 0.8884
vn -0.4743 -0.0749 -0.8772
vn -0.7288 0.4140 0.5454
vn -0.9547 0.0857 0.2850
vn -0.4328 0.4823 0.7616
vn 0.0596 0.5519 0.8318
vn -0.2233 0.7876 0.5742
vn -0.3194 0.9443 -0.0798
vn -0.1705 0.5339 -0.8282
vn -0.2725 0.5244 -0.8067
vn -0.8908 -0.0536 0.4512
vn -0.2872 -0.2638 0.9208
vn -0.8832 0.0673 0.4641
vn 0.0376 0.5270 0.8490
vn -0.3666 0.2511 0.8959
vn 0.1115 0.3079 0.9449
vn 0.1606 0.2880 0.9441
vn -0.6682 -0.4703 0.5765
vn 0.0295 0.5640 0.8253
vn 0.0306 0.5601 0.8278
vn 0.0283 0.5683 0.8223
vn -0.4292 0.5363 0.7267
vn -0.2576 0.4644 0.8473
vn -0.4124 0.2508 0.8758
vn -0.6466 0.6746 -0.3561
vn -0.6179 0.5537 0.5582
vn -0.1871 0.3343 0.9237
vn -0.0124 0.4795 0.8774
vn -0.8986 0.1214 -0.4216
vn -0.9652 -0.0364 -0.2589
vn -0.7868 -0.1951 0.5855
vn -0.3224 -0.3723 0.8703
vn -0.8526 -0.1611 0.4972
vn 0.1123 0.4842 0.8677
vn -0.1262 0.0571 -0.9904
vn -0.1058 0.1436 -0.9840
vn 0.0308 0.5596 0.8282
vn -0.2736 0.6661 -0.6938
vn -0.0113 -0.1138 0.9934
vn 0.9518 0.0197 0.3061
vn 0.8983 0.0881 -0.4304
vn 0.4583 0.0629 -0.8865
vn -0.0682 -0.3420 0.9372
vn 0.9860 0.0124 0.1666
vn 0.8947 -0.2423 -0.3753
vn 0.3507 0.0120 -0.9364
vn 0.4696 -0.1594 0.8684
vn 0.4348 -0.0749 -0.8974
vn 0.7524 0.4140 0.5124
vn 0.9664 0.0857 0.2422
vn 0.4663 0.4823 0.7416
vn -0.0225 0.5519 0.8336
vn 0.2487 0.7876 0.5637
vn 0.3155 0.9443 -0.0939
vn 0.1334 0.5339 -0.8349
vn 0.2363 0.5244 -0.8180
vn 0.9100 -0.0536 0.4111
vn 0.3279 -0.2638 0.9071
vn 0.9030 0.0673 0.4243
vn 0.0003 0.5270 0.8499
vn 0.4061 0.2511 0.8786
vn -0.0693 0.3079 0.9489
vn -0.1184 0.2880 0.9503
vn 0.0072 0.5640 0.8258
vn 0.0083 0.5683 0.8228
vn 0.0063 0.5601 0.8284
vn 0.4611 0.5363 0.7069
vn 0.2951 0.4644 0.8350
vn 0.6301 0.6746 -0.3846
vn 0.6421 0.5537 0.5301
vn 0.2280 0.3343 0.9145
vn 0.0515 0.4795 0.8760
vn 0.8790 0.1214 -0.4612
vn 0.9527 -0.0364 -0.3016
vn 0.8121 -0.1951 0.5499
vn 0.3608 -0.3723 0.8551
vn 0.8739 -0.1611 0.4587
vn -0.0735 0.4842 0.8719
vn 0.0820 0.0571 -0.9950
vn 0.0619 0.1436 -0.9877
vn 0.0061 0.5596 0.8288
vn 0.2425 0.6661 -0.7053
vt 0.371875 0.178125
vt 0.150000 0.387500
vt 0.231250 0.181250
vt 0.231250 0.181250
vt 0.268750 0.350000
vt 0.134375 0.187500
vt 0.134375 0.187500
vt 0.390625 0.828125
vt 0.262500 0.846875
s 1
usemtl peopleColors
f 55/1/1 49/1/1 15/1/1 1/1/1
f 3/2/2 45/2/2 6/2/2 7/2/2
f 4/2/3 42/2/3 43/2/3 8/2/3
f 5/2/4 4/2/4 8/2/4 9/2/4
f 49/3/5 50/4/5 14/3/5 15/3/5
f 7/2/6 6/2/6 11/2/6 19/2/6
f 8/5/7 43/5/7 44/5/7 12/5/7
f 9/2/8 8/2/8 16/2/8 13/2/8
f 15/2/9 46/2/9 2/2/9 1/2/9
f 8/2/10 12/2/10 17/2/10 16/2/10
f 34/2/11 21/2/11 37/2/11
f 21/2/12 34/2/12 19/2/12 11/2/12
f 21/2/13 36/2/13 20/2/13 37/2/13
f 20/5/14 22/5/14 23/5/14
f 24/5/15 23/5/15 25/5/15 26/5/15
f 26/2/16 25/2/16 27/2/16 28/2/16
f 13/2/17 16/2/17 28/2/17 27/2/17
f 27/2/18 93/2/18 94/2/18 13/2/18
f 11/2/19 10/2/19 29/2/19
f 10/2/20 14/2/20 30/2/20 29/2/20
f 21/2/21 11/2/21 29/2/21 31/2/21
f 33/2/22 35/2/22 36/2/22 32/2/22
f 30/2/23 32/2/23 31/2/23 29/2/23
f 32/2/24 30/2/24 14/2/24 33/2/24
f 33/6/25 14/6/25 50/7/25 52/6/25
f 34/2/26 18/2/26 19/2/26
f 35/5/27 22/5/28 20/5/29 36/5/29
f 31/2/30 32/2/30 36/2/30 21/2/30
f 23/2/31 24/2/31 37/2/31 20/2/31
f 24/2/32 18/2/32 34/2/32 37/2/32
f 38/5/33 27/5/33 25/5/33 39/5/33
f 39/5/34 25/5/34 23/5/34 40/5/34
f 40/5/35 23/5/35 22/5/35 41/5/35
f 22/8/36 51/8/36 53/8/36 41/8/36
f 42/5/37 3/5/37 7/5/37 43/5/37
f 43/5/38 7/5/38 19/5/38 44/5/38
f 45/5/39 2/5/39 46/5/39 6/5/39
f 15/2/40 14/2/40 10/2/40 46/2/40
f 10/5/41 11/5/41 6/5/41 46/5/41
f 35/6/42 33/6/42 52/6/42 103/6/42
f 47/5/43 5/5/43 9/5/43 48/5/43
f 48/2/44 9/2/44 13/2/44 94/2/44
f 51/9/45 22/9/28 35/9/27 103/9/45
f 27/5/46 38/5/46 92/5/46 93/5/46
f 56/1/47 49/1/47 55/1/47 54/1/47
f 57/2/48 60/2/48 59/2/48 58/2/48
f 61/2/49 64/2/49 63/2/49 62/2/49
f 65/2/50 66/2/50 64/2/50 61/2/50
f 67/3/51 50/4/51 49/3/51 56/3/51
f 60/2/52 69/2/52 68/2/52 59/2/52
f 64/5/53 71/5/53 70/5/53 63/5/53
f 66/2/54 73/2/54 72/2/54 64/2/54
f 75/2/55 74/2/55 56/2/55 54/2/55
f 64/2/56 72/2/56 76/2/56 71/2/56
f 80/2/57 82/2/57 81/2/57
f 69/2/58 80/2/58 81/2/58 68/2/58
f 81/2/59 82/2/59 84/2/59 83/2/59
f 84/5/60 86/5/60 85/5/60
f 79/5/61 78/5/61 87/5/61 86/5/61
f 78/2/62 77/2/62 90/2/62 87/2/62
f 73/2/63 90/2/63 77/2/63 72/2/63
f 94/2/64 93/2/64 90/2/64 73/2/64
f 68/2/65 96/2/65 95/2/65
f 95/2/66 96/2/66 97/2/66 67/2/66
f 81/2/67 98/2/67 96/2/67 68/2/67
f 99/2/68 101/2/68 83/2/68 100/2/68
f 98/2/69 101/2/69 97/2/69 96/2/69
f 101/2/70 99/2/70 67/2/70 97/2/70
f 99/6/71 52/6/71 50/7/71 67/6/71
f 100/5/72 83/5/73 84/5/73 85/5/74
f 83/2/75 101/2/75 98/2/75 81/2/75
f 82/2/76 79/2/76 86/2/76 84/2/76
f 91/5/77 89/5/77 87/5/77 90/5/77
f 89/5/78 88/5/78 86/5/78 87/5/78
f 88/5/79 102/5/79 85/5/79 86/5/79
f 53/8/80 51/8/80 85/8/80 102/8/80
f 62/5/81 63/5/81 60/5/81 57/5/81
f 63/5/82 70/5/82 69/5/82 60/5/82
f 74/5/83 75/5/83 58/5/83 59/5/83
f 56/2/84 74/2/84 95/2/84 67/2/84
f 59/5/85 68/5/85 95/5/85 74/5/85
f 52/6/86 99/6/86 100/6/86 103/6/86
f 47/5/87 48/5/87 66/5/87 65/5/87
f 48/2/88 94/2/88 73/2/88 66/2/88
f 51/9/89 103/9/89 100/9/72 85/9/74
f 92/5/90 91/5/90 90/5/90 93/5/90
