# Blender 5.0.1
# www.blender.org
mtllib elder_Female_tbrazo_d.mtl
o elder_Female_ante_d
v -0.440796 -0.114663 0.028828
v -0.448897 -0.114257 -0.039293
v -0.455683 -0.070998 -0.108148
v -0.524526 0.011793 -0.148408
v -0.460108 -0.007476 -0.118803
v -0.428935 0.070570 -0.081268
v -0.476344 0.107055 -0.088326
v -0.418930 0.100537 -0.011800
v -0.482597 0.117772 -0.006399
v -0.421459 0.054457 0.065794
v -0.489423 0.056259 0.079526
v -0.460010 -0.061921 0.098638
v -0.495500 -0.013495 0.111621
v -0.357522 -0.113284 0.032528
v -0.328220 -0.095494 -0.064490
v -0.333030 -0.014224 -0.115072
v -0.351889 0.069339 -0.092318
v -0.349912 0.095954 -0.015797
v -0.352303 0.050641 0.065131
v -0.428259 -0.034143 0.082259
v -0.351450 -0.031145 0.082690
v -0.278130 -0.097257 0.041257
v -0.268852 -0.104798 -0.064596
v -0.271450 -0.003340 -0.116973
v -0.249723 0.051651 -0.102085
v -0.226910 0.072196 -0.034077
v -0.247836 0.057740 0.027137
v -0.262991 -0.017627 0.064580
v -0.095307 -0.071968 0.034345
v -0.106703 -0.088588 -0.059123
v -0.140405 -0.027475 -0.122176
v -0.130118 0.040298 -0.106577
v -0.118819 0.082231 -0.045746
v -0.109441 0.071758 0.016244
v -0.099470 -0.004110 0.052193
v -0.008451 -0.071948 0.030009
v -0.008734 -0.086098 -0.057406
v -0.010586 -0.023372 -0.107500
v -0.008017 0.039517 -0.103110
v -0.009799 0.089156 -0.058141
v -0.007913 0.079679 0.019694
v -0.003357 0.005922 0.049636
vn 0.4251 0.2886 -0.8579
vn 0.4251 0.8714 -0.2447
vn 0.1972 0.8138 0.5467
vn 0.0760 -0.9390 -0.3353
vn 0.1241 -0.3798 -0.9167
vn -0.0199 0.3508 -0.9362
vn -0.0001 0.9324 -0.3614
vn 0.0693 0.8633 0.4999
vn 0.0027 0.1957 0.9807
vn -0.0071 -0.5366 0.8438
vn 0.0509 -0.9979 -0.0407
vn -0.0080 -0.4911 -0.8711
vn -0.0577 0.2628 -0.9631
vn 0.1314 0.9356 -0.3278
vn 0.1661 0.8990 0.4053
vn 0.2364 0.3018 0.9236
vn 0.1248 -0.4239 0.8971
vn 0.1191 -0.9858 0.1182
vn -0.0150 -0.5811 -0.8137
vn -0.0033 0.2418 -0.9703
vn -0.0253 0.9021 -0.4308
vn -0.0780 0.9785 0.1907
vn 0.0296 0.4356 0.8997
vn 0.0841 -0.2737 0.9581
vn 0.0158 -0.9859 0.1667
vn 0.0729 -0.6612 -0.7466
vn 0.0692 0.1442 -0.9871
vn -0.0453 0.7574 -0.6514
vn -0.0634 0.9873 0.1460
vn -0.0404 0.3994 0.9159
vn 0.0501 -0.2490 0.9672
vn 0.1995 0.1642 0.9660
vn 0.6932 -0.4703 0.5461
vn 0.4510 0.2508 0.8566
vn 0.0169 -0.9998 -0.0080
vt 0.150000 0.387500
vt 0.268750 0.350000
s 1
usemtl peopleColors
f 7/1/1 6/1/1 5/1/1 4/1/1
f 7/1/2 9/1/2 8/1/2 6/1/2
f 9/1/3 11/1/3 10/1/3 8/1/3
f 3/2/4 15/2/4 14/2/4 2/2/4
f 5/1/5 16/1/5 15/1/5 3/1/5
f 6/1/6 17/1/6 16/1/6 5/1/6
f 8/1/7 18/1/7 17/1/7 6/1/7
f 10/1/8 19/1/8 18/1/8 8/1/8
f 20/1/9 21/1/9 19/1/9 10/1/9
f 1/1/10 14/1/10 21/1/10 20/1/10
f 15/1/11 23/1/11 22/1/11 14/1/11
f 16/1/12 24/1/12 23/1/12 15/1/12
f 17/1/13 25/1/13 24/1/13 16/1/13
f 18/1/14 26/1/14 25/1/14 17/1/14
f 19/1/15 27/1/15 26/1/15 18/1/15
f 21/1/16 28/1/16 27/1/16 19/1/16
f 14/1/17 22/1/17 28/1/17 21/1/17
f 23/1/18 30/1/18 29/1/18 22/1/18
f 24/1/19 31/1/19 30/1/19 23/1/19
f 25/1/20 32/1/20 31/1/20 24/1/20
f 26/1/21 33/1/21 32/1/21 25/1/21
f 27/1/22 34/1/22 33/1/22 26/1/22
f 28/1/23 35/1/23 34/1/23 27/1/23
f 22/1/24 29/1/24 35/1/24 28/1/24
f 37/1/25 36/1/25 29/1/25 30/1/25
f 38/1/26 37/1/26 30/1/26 31/1/26
f 32/1/27 39/1/27 38/1/27 31/1/27
f 40/1/28 39/1/28 32/1/28 33/1/28
f 34/1/29 41/1/29 40/1/29 33/1/29
f 35/1/30 42/1/30 41/1/30 34/1/30
f 36/1/31 42/1/31 35/1/31 29/1/31
f 11/1/32 20/1/32 10/1/32
f 12/1/33 1/1/33 20/1/33
f 12/1/34 20/1/34 11/1/34 13/1/34
f 2/2/35 14/2/35 1/2/35
o elder_Female_brazo_d
v -0.002276 -0.078621 0.023953
v -0.025555 -0.092771 -0.060306
v -0.040527 -0.030045 -0.108147
v -0.036893 0.032844 -0.104587
v -0.026776 0.082482 -0.060735
v -0.004471 0.073005 0.013860
v 0.007804 -0.000751 0.041546
v 0.071551 -0.086097 0.001046
v 0.058559 -0.099303 -0.077107
v 0.050965 -0.034801 -0.126092
v 0.034299 0.031082 -0.119454
v 0.061743 0.075818 -0.081564
v 0.074876 0.068605 -0.008333
v 0.070825 -0.002008 0.024103
v 0.145950 -0.076663 -0.022683
v 0.136980 -0.084352 -0.078651
v 0.124270 -0.030831 -0.133301
v 0.130712 0.031307 -0.129487
v 0.143194 0.062582 -0.092452
v 0.152874 0.061103 -0.028567
v 0.148055 -0.009463 0.005794
v 0.169995 -0.056363 -0.027246
v 0.162381 -0.063479 -0.075784
v 0.150934 -0.023758 -0.123644
v 0.158132 0.027018 -0.121860
v 0.170254 0.055258 -0.086980
v 0.178510 0.054295 -0.033584
v 0.173307 -0.005929 -0.002345
v 0.330779 -0.040225 -0.076665
v 0.334977 -0.034289 -0.046566
v 0.373927 -0.032200 -0.049299
v 0.368310 -0.037663 -0.079236
v 0.337430 -0.026406 -0.115835
v 0.369200 -0.025535 -0.117509
v 0.337168 0.005591 -0.118722
v 0.370386 0.003619 -0.119354
v 0.343543 0.030699 -0.094146
v 0.376756 0.026336 -0.096246
v 0.349195 0.030713 -0.054755
v 0.379715 0.025359 -0.055586
v 0.336639 -0.008605 -0.029000
v 0.377202 -0.008468 -0.033186
v 0.397082 -0.044792 -0.054106
v 0.395264 -0.041882 -0.077104
v 0.396888 -0.031897 -0.122233
v 0.404317 -0.003782 -0.126516
v 0.419366 0.021580 -0.101109
v 0.422376 0.018219 -0.052547
v 0.412712 -0.017586 -0.024722
v 0.459341 -0.045744 -0.140499
v 0.455268 -0.011907 -0.149344
v 0.471909 0.014818 -0.122278
v 0.488337 0.002387 -0.047670
v 0.467505 -0.023828 -0.022832
v 0.446342 -0.034567 -0.007632
v 0.428986 -0.070174 -0.031547
v 0.444824 -0.072436 -0.060987
v 0.461740 -0.051956 -0.087227
v 0.532683 -0.062238 -0.070461
v 0.507094 -0.075753 -0.046645
v 0.507122 -0.051811 -0.020708
v 0.542438 -0.033308 -0.043460
v 0.460055 -0.095024 -0.008822
v 0.477899 -0.051139 0.008385
v 0.532942 -0.084605 0.009159
v 0.520981 -0.112529 -0.001539
v 0.535593 -0.106813 -0.039253
v 0.549561 -0.083664 -0.014962
v 0.578211 -0.110088 0.016086
v 0.566251 -0.138012 0.005387
v 0.572378 -0.127419 -0.023647
v 0.585762 -0.100438 -0.009377
v 0.514711 -0.045059 -0.156092
v 0.505468 -0.012717 -0.171617
v 0.530430 -0.000791 -0.138386
v 0.549471 -0.009845 -0.075306
v 0.568607 -0.067458 -0.167022
v 0.553690 -0.037161 -0.183458
v 0.571068 -0.021217 -0.146168
v 0.606380 -0.042341 -0.092518
v 0.580850 -0.061263 -0.124876
v 0.602235 -0.053751 -0.051579
v 0.593435 -0.079295 -0.057482
v 0.622040 -0.051367 -0.151374
v 0.652230 -0.069283 -0.152754
v 0.660278 -0.077685 -0.105250
v 0.646748 -0.083353 -0.060848
v 0.631853 -0.105199 -0.066369
v 0.640021 -0.095817 -0.144871
v 0.612568 -0.079953 -0.137964
v 0.595016 -0.064907 -0.188374
v 0.589278 -0.079885 -0.170011
v 0.274849 -0.042177 -0.038098
v 0.268591 -0.048720 -0.079205
v 0.258408 -0.022799 -0.120275
v 0.266360 0.016615 -0.120520
v 0.278123 0.041821 -0.087796
v 0.284955 0.041373 -0.044891
v 0.279367 -0.008509 -0.016774
vn -0.0432 -0.9836 0.1753
vn -0.1908 -0.6157 -0.7645
vn -0.1952 0.0578 -0.9791
vn -0.1262 0.6777 -0.7244
vn 0.0886 0.9919 0.0907
vn 0.2618 0.3837 0.8856
vn 0.2592 -0.2492 0.9331
vn 0.1762 -0.9766 0.1233
vn 0.0382 -0.6556 -0.7541
vn -0.1026 0.0728 -0.9921
vn -0.0308 0.7098 -0.7037
vn 0.1365 0.9898 0.0400
vn 0.2570 0.4001 0.8797
vn 0.2575 -0.3137 0.9140
vn 0.6400 -0.7683 0.0073
vn 0.4746 -0.5926 -0.6508
vn 0.3039 0.0105 -0.9526
vn 0.3053 0.6797 -0.6669
vn 0.2591 0.9656 -0.0195
vn 0.2525 0.4183 0.8725
vn 0.4031 -0.3935 0.8262
vn 0.0718 -0.9820 0.1747
vn 0.0277 -0.9486 -0.3151
vn -0.0367 -0.0766 -0.9964
vn 0.0375 0.7005 -0.7126
vn 0.1505 0.9886 -0.0043
vn 0.0984 0.5330 0.8404
vn 0.0872 -0.5670 0.8191
vn -0.3125 -0.9457 0.0895
vn -0.1955 -0.9465 -0.2568
vn -0.2047 -0.0736 -0.9760
vn 0.0021 0.7098 -0.7044
vn 0.1389 0.9895 0.0388
vn 0.0022 0.5847 0.8112
vn -0.2646 -0.5859 0.7659
vn -0.3651 -0.1740 -0.9145
vn -0.1656 0.7481 -0.6426
vn 0.1989 0.9755 0.0937
vn 0.0658 0.7695 0.6352
vn -0.6250 -0.2876 0.7257
vn -0.2100 -0.7005 -0.6821
vn -0.2135 -0.9642 -0.1570
vn 0.0707 0.6252 0.7773
vn -0.5114 -0.8466 -0.1472
vn 0.6634 -0.5872 0.4639
vn -0.1908 -0.2857 0.9391
vn -0.3354 -0.7781 -0.5311
vn 0.4851 0.7660 0.4217
vn 0.5728 0.5123 -0.6399
vn -0.2765 -0.2382 0.9310
vn -0.3913 -0.8586 -0.3314
vn 0.3830 0.8474 0.3677
vn 0.4347 0.3880 -0.8127
vn 0.8954 -0.4410 0.0609
vn -0.3123 -0.3830 -0.8694
vn -0.0519 0.8566 -0.5133
vn 0.4084 0.6895 0.5982
vn 0.3354 0.7615 0.5546
vn -0.5898 -0.1494 0.7936
vn 0.0397 -0.8420 -0.5381
vn -0.0734 -0.9852 -0.1551
vn 0.2879 0.5047 0.8139
vn -0.1355 -0.9230 -0.3601
vn 0.2550 0.9632 0.0846
vn -0.4101 -0.5350 -0.7386
vn 0.2995 0.8121 -0.5008
vn 0.4778 0.8785 0.0046
vn -0.2241 -0.9741 -0.0307
vn -0.1791 -0.4633 0.8679
vn 0.4484 0.7773 0.4413
vn 0.5388 0.8418 0.0336
vn 0.0417 -0.2538 0.9664
vn 0.5717 0.7737 0.2732
vn -0.2216 -0.9515 -0.2132
vn -0.5232 -0.8381 -0.1546
vn 0.8574 -0.4619 -0.2270
vn 0.7252 -0.6872 0.0439
vn 0.5094 0.8605 0.0036
vn 0.4056 0.7403 -0.5362
vn -0.4693 -0.5960 -0.6516
vn -0.4270 -0.8613 0.2756
vn -0.5602 -0.8187 -0.1265
vn 0.7201 -0.5551 -0.4164
vn -0.2790 -0.2486 -0.9276
vn 0.1384 -0.9788 0.1512
vn 0.0529 -0.8939 -0.4451
vn 0.0369 -0.0478 -0.9982
vn 0.0966 0.7326 -0.6738
vn 0.1633 0.9864 -0.0196
vn 0.1979 0.4769 0.8564
vn 0.1801 -0.5522 0.8140
vn 0.1432 -0.9815 0.1274
vn 0.0584 -0.7963 -0.6020
vn 0.0224 0.0133 -0.9997
vn 0.0861 0.7665 -0.6364
vn 0.1218 0.9925 -0.0045
vn 0.1397 0.4592 0.8773
vn 0.1303 -0.4868 0.8637
vt 0.150000 0.387500
vt 0.268750 0.350000
vt 0.262500 0.846875
vt 0.381250 0.850000
vt 0.118750 0.875000
s 1
usemtl peopleColors
f 44/3/36 51/3/36 50/3/36 43/3/36
f 45/3/37 52/3/37 51/3/37 44/3/37
f 46/3/38 53/3/38 52/3/38 45/3/38
f 47/3/39 54/3/39 53/3/39 46/3/39
f 48/3/40 55/3/40 54/3/40 47/3/40
f 49/3/41 56/3/41 55/3/41 48/3/41
f 43/3/42 50/3/42 56/3/42 49/3/42
f 51/3/43 58/3/43 57/3/43 50/3/43
f 52/3/44 59/3/44 58/3/44 51/3/44
f 53/3/45 60/3/45 59/3/45 52/3/45
f 54/3/46 61/3/46 60/3/46 53/3/46
f 55/3/47 62/3/47 61/3/47 54/3/47
f 56/3/48 63/3/48 62/3/48 55/3/48
f 50/3/49 57/3/49 63/3/49 56/3/49
f 65/4/50 64/4/50 57/4/50 58/4/50
f 66/4/51 65/4/51 58/4/51 59/4/51
f 60/4/52 67/4/52 66/4/52 59/4/52
f 61/4/53 68/4/53 67/4/53 60/4/53
f 62/4/54 69/4/54 68/4/54 61/4/54
f 70/4/55 69/4/55 62/4/55 63/4/55
f 64/4/56 70/4/56 63/4/56 57/4/56
f 71/5/57 74/5/57 73/5/57 72/5/57
f 75/5/58 76/5/58 74/5/58 71/5/58
f 77/5/59 78/5/59 76/5/59 75/5/59
f 79/5/60 80/5/60 78/5/60 77/5/60
f 81/5/61 82/5/61 80/5/61 79/5/61
f 83/5/62 84/5/62 82/5/62 81/5/62
f 72/5/63 73/5/63 84/5/63 83/5/63
f 74/5/64 86/5/64 85/5/64 73/5/64
f 76/5/65 87/5/65 86/5/65 74/5/65
f 78/5/66 88/5/66 87/5/66 76/5/66
f 80/5/67 89/5/67 88/5/67 78/5/67
f 82/5/68 90/5/68 89/5/68 80/5/68
f 84/5/69 91/5/69 90/5/69 82/5/69
f 73/5/70 85/5/70 91/5/70 84/5/70
f 88/5/71 93/5/71 92/5/71 87/5/71
f 89/5/72 94/5/72 93/5/72 88/5/72
f 90/5/73 95/5/73 94/5/73 89/5/73
f 91/5/74 97/5/74 96/5/74
f 98/5/75 97/5/75 91/5/75 85/5/75
f 86/6/76 100/6/76 99/6/76
f 92/6/77 100/6/77 86/6/77 87/6/77
f 96/5/78 95/5/78 90/5/78 91/5/78
f 99/5/79 98/5/79 85/5/79 86/5/79
f 101/6/80 104/6/80 103/6/80 102/6/80
f 105/5/81 108/5/81 107/5/81 106/5/81
f 102/5/82 109/5/82 108/5/82 105/5/82
f 106/5/83 107/5/83 110/5/83 103/5/83
f 103/6/84 110/6/84 109/6/84 102/6/84
f 108/5/85 112/5/85 111/5/85 107/5/85
f 109/5/86 113/5/86 112/5/86 108/5/86
f 107/5/87 111/5/87 114/5/87 110/5/87
f 110/6/88 114/6/88 113/6/88 109/6/88
f 111/5/89 112/5/89 113/5/89 114/5/89
f 92/5/90 93/5/90 116/5/90 115/5/90
f 94/5/91 117/5/91 116/5/91 93/5/91
f 118/5/92 95/5/92 104/5/92
f 97/5/93 106/5/93 103/5/93 96/5/93
f 97/5/94 98/5/94 105/5/94 106/5/94
f 100/6/95 101/6/95 102/6/95 99/6/95
f 100/6/96 92/6/96 115/6/96 101/6/96
f 95/5/97 96/5/97 103/5/97 104/5/97
f 99/5/98 102/5/98 105/5/98 98/5/98
f 95/7/99 118/7/99 117/7/99 94/7/99
f 116/5/100 120/5/100 119/5/100 115/5/100
f 117/5/101 121/5/101 120/5/101 116/5/101
f 118/5/102 122/5/102 121/5/102 117/5/102
f 115/5/103 119/5/103 123/5/103 101/5/103
f 101/6/104 125/6/104 124/6/104 104/6/104
f 104/5/105 124/5/105 122/5/105 118/5/105
f 122/5/106 128/5/106 127/5/106 126/5/106
f 125/6/107 130/6/107 129/6/107 124/6/107
f 124/5/108 129/5/108 128/5/108 122/5/108
f 101/5/109 123/5/109 125/5/109
f 130/5/110 132/5/110 131/5/110
f 131/5/111 127/5/111 128/5/111
f 128/6/112 129/6/112 130/6/112 131/6/112
f 122/5/113 126/5/113 121/5/113
f 133/5/114 120/5/114 121/5/114 126/5/114
f 133/5/115 134/5/115 119/5/115 120/5/115
f 134/5/116 132/5/116 123/5/116 119/5/116
f 130/5/117 125/5/117 123/5/117 132/5/117
f 134/5/118 133/5/118 126/5/118 132/5/118
f 132/5/119 126/5/119 127/5/119 131/5/119
f 135/5/120 136/5/120 71/5/120 72/5/120
f 136/5/121 137/5/121 75/5/121 71/5/121
f 138/5/122 77/5/122 75/5/122 137/5/122
f 139/5/123 79/5/123 77/5/123 138/5/123
f 140/5/124 81/5/124 79/5/124 139/5/124
f 140/5/125 141/5/125 83/5/125 81/5/125
f 141/5/126 135/5/126 72/5/126 83/5/126
f 64/5/127 65/5/127 136/5/127 135/5/127
f 65/5/128 66/5/128 137/5/128 136/5/128
f 67/5/129 138/5/129 137/5/129 66/5/129
f 68/5/130 139/5/130 138/5/130 67/5/130
f 69/5/131 140/5/131 139/5/131 68/5/131
f 69/5/132 70/5/132 141/5/132 140/5/132
f 70/5/133 64/5/133 135/5/133 141/5/133
