# Blender 5.0.1
# www.blender.org
mtllib elder_Female_pie_d.mtl
o elder_Female_pie_i
v 0.005654 0.141697 -0.182886
v -0.053446 0.121158 -0.070337
v 0.013473 0.132243 -0.027644
v -0.042174 0.125273 -0.150169
v 0.063162 0.131849 -0.072045
v 0.055926 0.125380 -0.151599
v -0.000974 0.073439 -0.206588
v -0.045708 0.053239 -0.063391
v 0.012614 0.084785 -0.011852
v -0.042852 0.066445 -0.164586
v 0.060087 0.076638 -0.062794
v 0.046012 0.079968 -0.178544
v 0.008394 -0.006654 -0.216668
v -0.067463 -0.025468 -0.091657
v -0.049420 -0.004707 -0.175839
v 0.062044 -0.031584 -0.075661
v 0.060440 -0.003749 -0.161426
v -0.062137 0.010189 0.031833
v 0.011140 0.034079 0.097006
v 0.069989 0.024126 0.046282
v -0.094044 -0.049314 0.048894
v 0.081964 -0.051672 0.044115
v -0.065136 -0.006905 0.133845
v -0.001355 0.005838 0.188467
v 0.044607 -0.003743 0.162335
v -0.096261 -0.055659 0.157885
v 0.080160 -0.057228 0.165197
v -0.032627 -0.016419 0.209487
v 0.026335 -0.016667 0.209569
v -0.043198 -0.054558 0.219503
v 0.037715 -0.059548 0.218622
v 0.007933 -0.077534 -0.191225
v -0.060619 -0.077207 -0.085926
v -0.043206 -0.076579 -0.155933
v 0.043221 -0.075272 -0.082912
v 0.050440 -0.076007 -0.145080
v -0.081087 -0.076248 0.037124
v 0.063989 -0.077072 0.042899
v -0.080498 -0.076787 0.150048
v 0.063921 -0.080228 0.160004
v -0.039454 -0.073691 0.201942
v 0.032434 -0.075847 0.199704
vn -0.6574 0.2509 -0.7106
vn -0.6220 0.1155 0.7744
vn -0.9953 -0.0506 -0.0825
vn 0.6995 0.1439 0.7000
vn 0.9884 -0.1089 -0.1061
vn 0.5201 0.2833 -0.8058
vn -0.6390 0.0958 -0.7632
vn -0.9763 0.2037 -0.0727
vn 0.9944 0.0835 -0.0645
vn 0.6391 0.0599 -0.7668
vn -0.5821 0.7571 0.2967
vn 0.4805 0.7996 0.3601
vn -0.9284 0.3658 -0.0656
vn 0.9912 0.0834 -0.1027
vn -0.3971 0.9001 0.1791
vn 0.3864 0.8701 0.3058
vn -0.8577 0.5130 0.0358
vn 0.9271 0.3416 0.1544
vn -0.4190 0.8610 0.2884
vn 0.2151 0.7956 0.5663
vn -0.7075 0.5249 0.4732
vn 0.7446 0.4262 0.5137
vn 0.0141 0.2292 0.9733
vn -0.5560 -0.2719 -0.7854
vn -0.9586 -0.1513 -0.2414
vn 0.9703 -0.2418 -0.0075
vn 0.7146 -0.2437 -0.6557
vn -0.9554 -0.2259 -0.1901
vn 0.8766 -0.4443 -0.1848
vn -0.8621 -0.5062 -0.0220
vn 0.8174 -0.5759 -0.0146
vn -0.5959 -0.6147 0.5168
vn 0.6011 -0.6305 0.4911
vn -0.0193 -0.7168 0.6970
vn -0.0139 -0.9998 -0.0160
vn -0.0288 -0.9960 0.0843
vn 0.0124 -0.9999 0.0030
vn 0.0046 -1.0000 -0.0034
vn 0.0121 -0.9999 0.0028
vn 0.0025 -0.9995 0.0307
vn 0.0125 -0.9999 0.0031
vt 0.262500 0.846875
vt 0.903125 0.387500
vt 0.118750 0.875000
vt 0.915625 0.456250
vt 0.906250 0.381250
vt 0.878125 0.221875
s 1
usemtl peopleColors
f 4/1/1 1/1/1 7/1/1 10/1/1
f 3/1/2 2/1/2 8/1/2 9/1/2
f 2/1/3 4/1/3 10/1/3 8/1/3
f 5/1/4 3/1/4 9/1/4 11/1/4
f 6/1/5 5/1/5 11/1/5 12/1/5
f 1/1/6 6/1/6 12/1/6 7/1/6
f 10/2/7 7/2/7 13/2/7 15/2/7
f 8/2/8 10/2/8 15/2/8 14/2/8
f 12/2/9 11/2/9 16/2/9 17/2/9
f 7/2/10 12/2/10 17/2/10 13/2/10
f 9/3/11 8/3/11 18/3/11 19/3/11
f 11/1/12 9/1/12 19/1/12 20/1/12
f 8/2/13 14/2/13 21/2/13 18/2/13
f 16/2/14 11/2/14 20/2/14 22/2/14
f 19/4/15 18/4/15 23/4/15 24/4/15
f 20/4/16 19/4/16 24/4/16 25/4/16
f 18/2/17 21/2/17 26/2/17 23/2/17
f 22/2/18 20/2/18 25/2/18 27/2/18
f 24/4/19 23/4/19 28/4/19
f 25/4/20 24/4/20 28/4/20 29/4/20
f 23/2/21 26/2/21 30/2/21 28/2/21
f 27/2/22 25/2/22 29/2/22 31/2/22
f 31/2/23 29/2/23 28/2/23 30/2/23
f 15/5/24 13/5/24 32/5/24 34/5/24
f 14/5/25 15/5/25 34/5/25 33/5/25
f 17/5/26 16/5/26 35/5/26 36/5/26
f 13/5/27 17/5/27 36/5/27 32/5/27
f 21/5/28 14/5/28 33/5/28 37/5/28
f 16/5/29 22/5/29 38/5/29 35/5/29
f 26/5/30 21/5/30 37/5/30 39/5/30
f 22/5/31 27/5/31 40/5/31 38/5/31
f 30/5/32 26/5/32 39/5/32 41/5/32
f 27/5/33 31/5/33 42/5/33 40/5/33
f 31/5/34 30/5/34 41/5/34 42/5/34
f 38/6/35 40/6/35 39/6/35 37/6/35
f 40/6/36 42/6/36 41/6/36 39/6/36
f 35/6/37 38/6/38 37/6/38 33/6/39
f 32/6/40 36/6/40 34/6/40
f 35/6/37 33/6/39 34/6/41 36/6/41
