# Blender 5.0.1
# www.blender.org
mtllib elder_Female_tbrazo_i.mtl
o elder_Female_ante_i
v 0.437404 0.013263 0.114717
v 0.504386 -0.078052 0.094977
v 0.441351 -0.042480 0.082386
v 0.411880 -0.077550 0.002552
v 0.404979 -0.055866 -0.070291
v 0.410961 0.029084 -0.100263
v 0.418487 0.107490 -0.055954
v 0.428632 0.134827 0.037027
v 0.312012 0.063634 0.092527
v 0.314565 -0.031288 0.079493
v 0.334418 -0.081474 0.009185
v 0.335851 -0.052932 -0.066650
v 0.341844 0.033564 -0.099678
v 0.341774 0.107652 -0.060832
v 0.345606 0.138508 0.030455
v 0.252698 0.072407 0.096533
v 0.252961 -0.039109 0.071878
v 0.231919 -0.071218 0.024508
v 0.212156 -0.042863 -0.041622
v 0.235788 0.006792 -0.078635
v 0.252596 0.088206 -0.058612
v 0.266681 0.134039 0.010780
v 0.090954 0.068076 0.076408
v 0.121815 -0.020158 0.086837
v 0.112232 -0.061958 0.031130
v 0.103653 -0.054953 -0.042788
v 0.097046 -0.006998 -0.083983
v 0.088686 0.074563 -0.063351
v 0.083732 0.115401 -0.006359
v -0.006842 0.070053 0.070144
v -0.007222 -0.010225 0.068504
v -0.009593 -0.055661 0.024791
v -0.005811 -0.065091 -0.041437
v -0.004228 -0.007983 -0.095175
v -0.007446 0.067959 -0.071099
v -0.003231 0.115090 -0.006016
v 0.479469 0.034544 -0.109630
v 0.468823 -0.067468 -0.083290
v 0.458927 -0.111446 -0.013763
v 0.433691 0.090722 0.089328
vn -0.4629 -0.7582 0.4592
vn -0.4356 -0.8139 -0.3845
vn -0.1726 -0.2700 -0.9473
vn -0.0909 0.5092 0.8558
vn -0.1648 -0.2909 0.9425
vn -0.0219 -0.8688 0.4947
vn -0.0160 -0.9475 -0.3195
vn -0.0470 -0.3416 -0.9387
vn 0.0410 0.4768 -0.8781
vn 0.0447 0.9516 -0.3039
vn -0.0526 0.7420 0.6683
vn -0.0308 -0.1799 0.9832
vn 0.0148 -0.8195 0.5729
vn -0.1458 -0.9247 -0.3518
vn -0.1479 -0.4268 -0.8922
vn -0.1950 0.3655 -0.9101
vn -0.0847 0.9029 -0.4215
vn -0.1137 0.8364 0.5362
vn -0.0213 -0.0743 0.9970
vn -0.0399 -0.8064 0.5901
vn 0.0061 -0.9693 -0.2460
vn 0.0865 -0.6321 -0.7701
vn 0.0105 0.2415 -0.9703
vn -0.0413 0.8254 -0.5631
vn -0.0083 0.8645 0.5026
vn -0.1061 0.0327 0.9938
vn -0.1131 -0.7401 0.6630
vn 0.0162 -0.9997 0.0167
vn 0.0698 -0.6670 -0.7418
vn 0.0812 0.2777 -0.9572
vn -0.0070 0.8113 -0.5846
vn -0.1563 0.4973 -0.8534
vn -0.0172 0.7635 0.6455
vt 0.150000 0.387500
vt 0.268750 0.350000
s 1
usemtl peopleColors
f 3/1/1 4/1/1 39/1/1 2/1/1
f 39/1/2 4/1/2 5/1/2 38/1/2
f 38/1/3 5/1/3 6/1/3 37/1/3
f 1/2/4 40/2/4 15/2/4 9/2/4
f 3/1/5 1/1/5 9/1/5 10/1/5
f 4/1/6 3/1/6 10/1/6 11/1/6
f 5/1/7 4/1/7 11/1/7 12/1/7
f 6/1/8 5/1/8 12/1/8 13/1/8
f 7/1/9 6/1/9 13/1/9 14/1/9
f 8/1/10 7/1/10 14/1/10 15/1/10
f 9/1/11 15/1/11 22/1/11 16/1/11
f 10/1/12 9/1/12 16/1/12 17/1/12
f 11/1/13 10/1/13 17/1/13 18/1/13
f 12/1/14 11/1/14 18/1/14 19/1/14
f 13/1/15 12/1/15 19/1/15 20/1/15
f 14/1/16 13/1/16 20/1/16 21/1/16
f 15/1/17 14/1/17 21/1/17 22/1/17
f 16/1/18 22/1/18 29/1/18 23/1/18
f 17/1/19 16/1/19 23/1/19 24/1/19
f 18/1/20 17/1/20 24/1/20 25/1/20
f 19/1/21 18/1/21 25/1/21 26/1/21
f 20/1/22 19/1/22 26/1/22 27/1/22
f 21/1/23 20/1/23 27/1/23 28/1/23
f 22/1/24 21/1/24 28/1/24 29/1/24
f 29/1/25 36/1/25 30/1/25 23/1/25
f 23/1/26 30/1/26 31/1/26 24/1/26
f 25/1/27 24/1/27 31/1/27 32/1/27
f 25/1/28 32/1/28 33/1/28 26/1/28
f 27/1/29 26/1/29 33/1/29 34/1/29
f 28/1/30 27/1/30 34/1/30 35/1/30
f 28/1/31 35/1/31 36/1/31 29/1/31
f 37/1/32 6/1/32 7/1/32
f 40/2/33 8/2/33 15/2/33
o elder_Female_brazo_i
v 0.015793 -0.071572 0.001072
v 0.025025 -0.036321 -0.070480
v 0.021835 0.022097 -0.094103
v 0.016955 0.086201 -0.075230
v 0.003593 0.110826 -0.001972
v -0.005335 0.056837 0.056018
v 0.002602 -0.021443 0.072869
v -0.069715 -0.080391 -0.002213
v -0.067944 -0.043654 -0.074773
v -0.050612 0.017751 -0.099091
v -0.073402 0.075757 -0.081595
v -0.077815 0.101370 -0.011511
v -0.069972 0.051424 0.047637
v -0.073409 -0.034260 0.063434
v -0.147771 -0.063578 -0.001730
v -0.141588 -0.039437 -0.075158
v -0.147536 0.018557 -0.097930
v -0.155568 0.063296 -0.076968
v -0.157655 0.089891 -0.018099
v -0.148821 0.040774 0.042671
v -0.150086 -0.032153 0.046010
v -0.339987 -0.013065 0.001551
v -0.351206 -0.017086 -0.038790
v -0.351286 0.010510 -0.055240
v -0.354721 0.044028 -0.043416
v -0.355694 0.061245 -0.007551
v -0.340191 0.036214 0.031178
v -0.340610 0.005427 0.026380
v -0.377559 -0.009946 0.002128
v -0.382952 -0.015402 -0.037291
v -0.384347 0.010154 -0.051425
v -0.387950 0.040885 -0.039882
v -0.386099 0.057615 -0.002739
v -0.380964 0.036606 0.031679
v -0.379610 0.008121 0.027167
v -0.404075 -0.011462 0.008724
v -0.411004 -0.021756 -0.035829
v -0.418886 0.002134 -0.051033
v -0.430837 0.036678 -0.037653
v -0.428105 0.054656 0.007602
v -0.415230 0.033828 0.046973
v -0.403171 -0.004117 0.030768
v -0.524645 -0.020138 -0.076807
v -0.545519 0.006158 -0.049559
v -0.476062 0.021113 0.098051
v -0.539754 -0.019962 0.038072
v -0.531995 -0.042161 -0.047938
v -0.460370 -0.026754 0.099726
v -0.511537 -0.023224 0.062523
v -0.546260 0.018215 0.050774
v -0.508509 0.009502 0.075396
v -0.530631 -0.005925 0.119063
v -0.520014 -0.036307 0.120289
v -0.538967 -0.046604 0.085601
v -0.549977 -0.014589 0.098823
v -0.574769 -0.023621 0.141093
v -0.564152 -0.054003 0.142319
v -0.573657 -0.056607 0.112392
v -0.585267 -0.025470 0.114923
v -0.472171 -0.012400 -0.062547
v -0.485507 0.024168 -0.048102
v -0.493032 0.045835 0.025822
v -0.446612 0.027570 0.073191
v -0.471280 -0.021506 0.011078
v -0.475174 -0.038903 -0.039562
v -0.432195 -0.015690 0.065332
v -0.469418 0.031803 0.057185
v -0.451390 -0.029565 0.041633
v -0.556996 0.026053 0.012860
v -0.573927 -0.044806 -0.071716
v -0.586791 -0.013532 -0.043376
v -0.598554 -0.026673 0.063523
v -0.586804 -0.064306 -0.042314
v -0.606598 -0.000658 0.058696
v -0.615536 -0.007740 0.017547
v -0.668163 -0.055564 -0.019866
v -0.637751 -0.051889 0.070848
v -0.651892 -0.029062 0.067927
v -0.670559 -0.042330 0.027157
v -0.593996 -0.039997 -0.005954
v -0.655111 -0.076725 -0.002631
v -0.638021 -0.040355 -0.029585
v -0.615544 -0.069830 -0.059730
v -0.607683 -0.075741 -0.037420
v -0.627035 -0.060853 -0.006222
v -0.278531 -0.024983 -0.003656
v -0.273257 -0.019766 -0.052719
v -0.281183 0.016071 -0.069139
v -0.289009 0.053451 -0.049489
v -0.290739 0.071820 -0.010153
v -0.281878 0.038633 0.036000
v -0.279903 -0.001112 0.030987
v -0.172657 -0.042232 -0.005491
v -0.166929 -0.027554 -0.066737
v -0.173866 0.019362 -0.086333
v -0.181795 0.060421 -0.066027
v -0.183703 0.082903 -0.016924
v -0.174856 0.041752 0.036537
v -0.174500 -0.014585 0.035700
vn 0.0635 -0.8138 0.5777
vn 0.0995 -0.8932 -0.4386
vn 0.0785 -0.3783 -0.9224
vn 0.0399 0.2935 -0.9551
vn -0.0773 0.9379 -0.3383
vn -0.1557 0.7396 0.6548
vn -0.1475 0.1892 0.9708
vn -0.1605 -0.8186 0.5514
vn -0.1268 -0.9130 -0.3876
vn -0.0150 -0.3656 -0.9306
vn -0.0523 0.3363 -0.9403
vn -0.1309 0.9166 -0.3777
vn -0.1515 0.7516 0.6420
vn -0.1480 0.1228 0.9813
vn -0.6347 -0.6570 0.4068
vn -0.5480 -0.7896 -0.2761
vn -0.4140 -0.3841 -0.8252
vn -0.3817 0.3420 -0.8587
vn -0.2596 0.8755 -0.4075
vn -0.1480 0.7647 0.6272
vn -0.3030 0.0206 0.9528
vn -0.0508 -0.8067 0.5887
vn -0.0646 -0.9893 0.1310
vn -0.0810 -0.4988 -0.8629
vn -0.1212 0.3275 -0.9370
vn -0.1500 0.8972 -0.4154
vn 0.0012 0.8465 0.5324
vn 0.0100 -0.1550 0.9879
vn 0.3209 -0.8302 0.4559
vn 0.1638 -0.9737 0.1586
vn 0.0883 -0.4960 -0.8638
vn -0.0851 0.3376 -0.9374
vn -0.1333 0.9160 -0.3784
vn 0.0933 0.8757 0.4737
vn 0.3530 -0.2129 0.9111
vn 0.2548 -0.5682 -0.7824
vn 0.0887 0.3901 -0.9165
vn -0.1865 0.9300 -0.3169
vn 0.0095 0.9700 0.2429
vn 0.7061 0.0205 0.7078
vn 0.1282 -0.9352 -0.3301
vn 0.1935 -0.9477 0.2537
vn 0.0213 0.9011 0.4331
vn 0.4905 -0.8526 0.1800
vn -0.6041 -0.2965 0.7397
vn 0.3001 0.1359 0.9442
vn 0.2705 -0.9467 -0.1747
vn -0.4320 0.8965 0.0979
vn -0.6442 0.2163 -0.7336
vn 0.3843 0.1709 0.9072
vn 0.3495 -0.9364 0.0330
vn -0.3371 0.9415 0.0035
vn -0.5274 0.0230 -0.8493
vn -0.8820 -0.3259 0.3404
vn 0.2077 -0.7346 -0.6460
vn -0.0090 0.5493 -0.8356
vn -0.3351 0.8994 0.2808
vn -0.2677 0.9419 0.2029
vn 0.6792 0.1761 0.7126
vn -0.1028 -0.9882 -0.1135
vn 0.0546 -0.9586 0.2793
vn -0.1900 0.8192 0.5411
vn 0.0922 -0.9938 0.0623
vn -0.2433 0.9178 -0.3137
vn 0.3203 -0.8205 -0.4735
vn -0.3564 0.5325 -0.7678
vn -0.4739 0.8184 -0.3250
vn 0.2190 -0.9029 0.3699
vn 0.2801 -0.0541 0.9584
vn -0.3933 0.9132 0.1066
vn -0.5311 0.8009 -0.2767
vn 0.0724 0.1883 0.9794
vn -0.5355 0.8440 -0.0292
vn 0.1950 -0.9608 0.1970
vn 0.5013 -0.8487 0.1684
vn -0.8782 -0.4703 0.0876
vn -0.7149 -0.5638 0.4135
vn -0.5054 0.8034 -0.3148
vn -0.4659 0.4579 -0.7572
vn 0.3892 -0.8411 -0.3756
vn 0.4565 -0.6800 0.5739
vn 0.5414 -0.8210 0.1813
vn -0.7641 -0.6426 -0.0563
vn 0.1678 -0.6367 -0.7527
vn -0.1196 -0.8105 0.5733
vn -0.1050 -0.9945 -0.0063
vn -0.1542 -0.4699 -0.8692
vn -0.1753 0.3761 -0.9099
vn -0.1644 0.8893 -0.4267
vn -0.0956 0.8079 0.5815
vn -0.0830 -0.1391 0.9868
vn -0.1272 -0.8229 0.5537
vn -0.1289 -0.9736 -0.1885
vn -0.1400 -0.4162 -0.8984
vn -0.1605 0.4222 -0.8922
vn -0.1215 0.8992 -0.4203
vn -0.0354 0.7979 0.6017
vn -0.0277 -0.0614 0.9977
vt 0.150000 0.387500
vt 0.268750 0.350000
vt 0.262500 0.846875
vt 0.381250 0.850000
vt 0.118750 0.875000
s 1
usemtl peopleColors
f 41/3/34 47/3/34 54/3/34 48/3/34
f 42/3/35 41/3/35 48/3/35 49/3/35
f 43/3/36 42/3/36 49/3/36 50/3/36
f 44/3/37 43/3/37 50/3/37 51/3/37
f 45/3/38 44/3/38 51/3/38 52/3/38
f 46/3/39 45/3/39 52/3/39 53/3/39
f 47/3/40 46/3/40 53/3/40 54/3/40
f 48/3/41 54/3/41 61/3/41 55/3/41
f 49/3/42 48/3/42 55/3/42 56/3/42
f 50/3/43 49/3/43 56/3/43 57/3/43
f 51/3/44 50/3/44 57/3/44 58/3/44
f 52/3/45 51/3/45 58/3/45 59/3/45
f 53/3/46 52/3/46 59/3/46 60/3/46
f 54/3/47 53/3/47 60/3/47 61/3/47
f 61/4/48 139/4/48 133/4/48 55/4/48
f 55/4/49 133/4/49 134/4/49 56/4/49
f 57/4/50 56/4/50 134/4/50 135/4/50
f 58/4/51 57/4/51 135/4/51 136/4/51
f 59/4/52 58/4/52 136/4/52 137/4/52
f 59/4/53 137/4/53 138/4/53 60/4/53
f 60/4/54 138/4/54 139/4/54 61/4/54
f 62/5/55 68/5/55 75/5/55 69/5/55
f 63/5/56 62/5/56 69/5/56 70/5/56
f 64/5/57 63/5/57 70/5/57 71/5/57
f 65/5/58 64/5/58 71/5/58 72/5/58
f 66/5/59 65/5/59 72/5/59 73/5/59
f 67/5/60 66/5/60 73/5/60 74/5/60
f 68/5/61 67/5/61 74/5/61 75/5/61
f 69/5/62 75/5/62 82/5/62 76/5/62
f 70/5/63 69/5/63 76/5/63 77/5/63
f 71/5/64 70/5/64 77/5/64 78/5/64
f 72/5/65 71/5/65 78/5/65 79/5/65
f 73/5/66 72/5/66 79/5/66 80/5/66
f 74/5/67 73/5/67 80/5/67 81/5/67
f 75/5/68 74/5/68 81/5/68 82/5/68
f 78/5/69 77/5/69 105/5/69 100/5/69
f 79/5/70 78/5/70 100/5/70 101/5/70
f 80/5/71 79/5/71 101/5/71 102/5/71
f 81/5/72 107/5/72 103/5/72
f 81/5/73 103/5/73 106/5/73 82/5/73
f 76/6/74 108/6/74 104/6/74
f 76/6/75 104/6/75 105/6/75 77/6/75
f 80/5/76 102/5/76 107/5/76 81/5/76
f 82/5/77 106/5/77 108/5/77 76/5/77
f 86/6/78 89/6/78 91/6/78 90/6/78
f 88/5/79 85/5/79 92/5/79 93/5/79
f 89/5/80 88/5/80 93/5/80 94/5/80
f 85/5/81 91/5/81 95/5/81 92/5/81
f 91/6/82 89/6/82 94/6/82 95/6/82
f 93/5/83 92/5/83 96/5/83 97/5/83
f 94/5/84 93/5/84 97/5/84 98/5/84
f 92/5/85 95/5/85 99/5/85 96/5/85
f 95/6/86 94/6/86 98/6/86 99/6/86
f 96/5/87 99/5/87 98/5/87 97/5/87
f 105/5/88 87/5/88 83/5/88 100/5/88
f 83/5/89 84/5/89 101/5/89 100/5/89
f 109/5/90 90/5/90 102/5/90
f 91/5/91 85/5/91 103/5/91 107/5/91
f 103/5/92 85/5/92 88/5/92 106/5/92
f 89/6/93 86/6/93 104/6/93 108/6/93
f 104/6/94 86/6/94 87/6/94 105/6/94
f 102/5/95 90/5/95 91/5/95 107/5/95
f 88/5/96 89/5/96 108/5/96 106/5/96
f 102/7/97 101/7/97 84/7/97 109/7/97
f 83/5/98 87/5/98 113/5/98 110/5/98
f 84/5/99 83/5/99 110/5/99 111/5/99
f 109/5/100 84/5/100 111/5/100 115/5/100
f 87/5/101 86/5/101 120/5/101 113/5/101
f 86/6/102 90/6/102 114/6/102 112/6/102
f 90/5/103 109/5/103 115/5/103 114/5/103
f 115/5/104 122/5/104 116/5/104 119/5/104
f 112/6/105 114/6/105 118/6/105 117/6/105
f 114/5/106 115/5/106 119/5/106 118/5/106
f 86/5/107 112/5/107 120/5/107
f 117/5/108 121/5/108 125/5/108
f 121/5/109 119/5/109 116/5/109
f 117/6/110 118/6/110 119/6/110 121/6/110
f 115/5/111 111/5/111 122/5/111
f 111/5/112 110/5/112 123/5/112 122/5/112
f 123/5/113 110/5/113 113/5/113 124/5/113
f 124/5/114 113/5/114 120/5/114 125/5/114
f 120/5/115 112/5/115 117/5/115 125/5/115
f 124/5/116 125/5/116 122/5/116 123/5/116
f 125/5/117 121/5/117 116/5/117 122/5/117
f 132/5/118 68/5/118 62/5/118 126/5/118
f 126/5/119 62/5/119 63/5/119 127/5/119
f 63/5/120 64/5/120 128/5/120 127/5/120
f 64/5/121 65/5/121 129/5/121 128/5/121
f 65/5/122 66/5/122 130/5/122 129/5/122
f 130/5/123 66/5/123 67/5/123 131/5/123
f 131/5/124 67/5/124 68/5/124 132/5/124
f 139/5/125 132/5/125 126/5/125 133/5/125
f 133/5/126 126/5/126 127/5/126 134/5/126
f 127/5/127 128/5/127 135/5/127 134/5/127
f 128/5/128 129/5/128 136/5/128 135/5/128
f 129/5/129 130/5/129 137/5/129 136/5/129
f 137/5/130 130/5/130 131/5/130 138/5/130
f 138/5/131 131/5/131 132/5/131 139/5/131
