# Blender 5.0.1
# www.blender.org
mtllib elder_Female_cabeza.mtl
o hair_oldLady
v -0.078368 0.191004 0.079578
v -0.036100 0.187743 0.134297
v 0.030235 0.154660 0.142459
v -0.066367 0.256747 0.039299
v 0.005514 0.252634 0.072861
v 0.077395 0.221595 0.106423
v 0.042624 0.272141 -0.055972
v 0.091912 0.248172 -0.019867
v -0.081218 0.149714 0.054251
v -0.038950 0.146453 0.108971
v 0.027485 0.126157 0.118018
v -0.120162 0.137078 0.035066
v -0.147179 0.199148 -0.018911
v -0.104707 0.113192 0.033327
v -0.160299 0.071882 0.014654
v -0.192471 0.118068 -0.037001
v -0.121560 0.063240 0.021872
v -0.185195 0.013921 -0.032920
v -0.192752 0.064536 -0.050931
v -0.139437 0.002329 -0.023159
v -0.170073 -0.042346 -0.093820
v -0.152300 0.045580 -0.144554
v -0.105914 -0.032138 -0.086130
v -0.126357 -0.104426 -0.123500
v -0.090696 -0.032744 -0.199624
v -0.087772 -0.090907 -0.101109
v -0.022914 -0.137051 -0.183296
v -0.003896 -0.035602 -0.232669
v -0.038803 0.264908 -0.095639
v -0.124300 0.211123 -0.116764
v -0.169732 0.123763 -0.136095
v 0.103717 0.125811 0.130898
v 0.152379 0.173038 0.075681
v 0.088445 0.089662 0.089523
v 0.155961 0.065706 0.070262
v 0.194357 0.114628 -0.007705
v 0.157445 0.195663 -0.056240
v 0.120984 0.031099 0.041436
v 0.151823 -0.009390 -0.004460
v 0.179008 0.041395 -0.088926
v 0.149449 0.107078 -0.158277
v 0.110728 -0.011464 -0.004025
v 0.143157 -0.074175 -0.033417
v 0.156555 -0.017388 -0.112913
v 0.107395 -0.076216 -0.033639
v 0.091987 -0.110557 -0.160812
v 0.096661 -0.046009 -0.210740
v 0.092073 0.049275 -0.217227
v 0.052524 -0.109699 -0.114706
v -0.004956 -0.135886 -0.131162
v -0.002741 0.221356 -0.153311
v -0.072157 0.156838 -0.190731
v -0.070502 0.069603 -0.232467
v 0.094462 0.225020 -0.139749
v 0.053654 0.156838 -0.204558
v 0.016667 0.069603 -0.237533
v -0.066188 0.094606 0.028561
v -0.085253 0.049131 0.013950
v -0.097171 0.008523 -0.016071
v -0.068775 -0.034044 -0.063045
v 0.011643 -0.065816 -0.082587
v 0.067384 -0.043840 -0.023058
v 0.073024 0.013516 0.011839
v 0.054750 0.066745 0.059051
v -0.008035 0.097840 0.075031
v -0.046263 0.025147 -0.004372
v -0.000768 -0.022538 -0.041090
v 0.028512 0.002789 -0.002601
v 0.005089 0.051517 0.033724
v -0.082769 -0.256073 -0.007795
v -0.105497 -0.202681 -0.062396
v -0.076393 -0.171135 -0.142334
v -0.056406 -0.201615 -0.003215
v -0.090658 -0.153644 -0.043733
v -0.068716 -0.143824 -0.118891
v -0.026611 -0.171209 0.057735
v -0.102777 -0.098982 -0.036222
v -0.077401 -0.101847 -0.106503
v -0.075910 -0.146612 0.012426
v -0.021612 -0.142888 0.125431
v -0.014359 -0.087230 0.142914
v -0.037617 -0.074341 0.118550
v -0.015342 -0.068331 0.144957
v -0.000898 -0.025832 0.166756
v -0.022731 0.045454 0.141221
v -0.038689 0.016518 0.122126
v 0.002701 0.027499 0.133964
v -0.014926 -0.037143 0.144531
v -0.051421 0.043199 0.128637
v -0.074690 0.039321 0.115842
v -0.018191 -0.007846 0.138712
v -0.084243 0.017802 0.109212
v -0.067580 -0.048964 0.132194
v -0.072965 -0.010998 0.127983
v -0.055789 -0.092851 0.102437
v -0.020760 -0.114030 0.136658
v -0.105611 -0.056762 0.076466
v -0.075395 -0.116009 0.085626
v -0.133132 0.004081 -0.004837
v -0.028690 0.103048 0.139034
v -0.066117 0.103620 0.127698
v -0.086753 0.090060 0.108796
v -0.109483 0.033187 0.078872
v -0.119215 -0.010786 0.071401
v -0.069404 0.173530 0.046263
v -0.124780 0.043286 0.041212
v -0.114315 -0.068574 0.015336
v -0.126223 -0.034048 0.003301
v -0.092136 0.164555 -0.092693
v -0.125172 0.119216 -0.037445
v -0.118245 -0.045779 -0.037552
v -0.099841 -0.054854 -0.127096
v -0.092615 0.107353 -0.155229
v -0.122614 0.088049 -0.100873
v -0.136206 0.043287 -0.042487
v -0.130510 0.009083 -0.057259
v -0.152562 0.007197 -0.064425
v -0.150956 0.046853 -0.041900
v -0.139442 -0.037572 -0.024867
v -0.131125 0.033471 -0.116098
v -0.118293 0.004883 0.024676
v -0.034768 0.144103 0.114138
v -0.066884 0.134645 0.094856
v -0.103188 0.104098 0.072643
v -0.097428 -0.162265 -0.144848
v -0.136459 -0.178595 -0.084661
v -0.103767 -0.255474 0.006875
v -0.076360 -0.292685 0.016389
v -0.134795 0.043195 -0.005048
v -0.118879 0.119626 0.024014
v -0.081063 0.184159 -0.025812
v -0.147829 0.038984 -0.014065
v -0.056642 -0.121291 0.091215
v -0.047190 -0.093793 0.102169
v -0.016428 -0.145388 -0.139465
v 0.014770 -0.150108 0.137748
v 0.016335 -0.091652 0.151650
v 0.016106 -0.045104 0.149624
v 0.014425 0.103630 0.134687
v -0.016008 0.173048 -0.135750
v -0.021992 0.111537 -0.188917
v -0.022605 0.010352 -0.194364
v 0.011927 0.146333 0.112480
v 0.001323 -0.308005 0.018265
v -0.005733 0.196567 -0.044446
v 0.101253 -0.255474 -0.016197
v 0.077520 -0.256073 -0.025833
v 0.087544 -0.202681 -0.084120
v 0.112783 -0.178595 -0.112710
v 0.041401 -0.171135 -0.155590
v 0.061351 -0.162265 -0.162717
v -0.019659 -0.169628 -0.168185
v -0.021381 -0.165724 -0.183485
v -0.000210 -0.273351 0.004640
v 0.002571 -0.223974 0.029347
v 0.052835 -0.201615 -0.015508
v 0.077224 -0.153644 -0.062626
v 0.039127 -0.143824 -0.131027
v 0.006512 -0.178465 0.064372
v 0.037333 -0.171209 0.050539
v 0.075327 -0.146612 -0.004594
v 0.090710 -0.098982 -0.057997
v 0.050347 -0.101847 -0.120880
v 0.047504 -0.142888 0.117653
v 0.074053 -0.121291 0.076507
v 0.091095 -0.116009 0.066890
v 0.061580 -0.074341 0.107387
v 0.075715 -0.092851 0.087638
v 0.067272 -0.093793 0.089288
v 0.044318 -0.087230 0.136311
v 0.015504 -0.081511 0.144277
v 0.016684 -0.069285 0.154756
v 0.045730 -0.068331 0.138084
v 0.045230 -0.037143 0.137761
v 0.093826 -0.048964 0.114031
v 0.018855 -0.023485 0.174049
v 0.036493 -0.025832 0.162548
v 0.015287 0.027144 0.142340
v 0.025696 0.027499 0.131376
v 0.015049 0.058584 0.140230
v 0.052105 0.045454 0.132800
v 0.057429 0.103048 0.129343
v 0.047121 -0.007846 0.131362
v 0.063420 0.016518 0.110635
v 0.077280 0.043199 0.114153
v 0.097123 0.039321 0.096507
v 0.104964 0.017802 0.087920
v 0.098140 -0.010998 0.108727
v 0.049169 -0.114030 0.128788
v 0.015230 -0.120400 0.141836
v 0.130657 -0.010786 0.043281
v 0.118519 -0.056762 0.051244
v 0.113418 -0.068574 -0.010292
v 0.091400 0.103620 0.109972
v 0.107319 0.090060 0.086955
v 0.122830 0.033187 0.052728
v 0.057821 0.144103 0.103718
v 0.084848 0.134645 0.077781
v 0.115308 0.104098 0.048054
v 0.129373 0.043286 0.012611
v 0.119374 0.004883 -0.002070
v 0.122354 -0.034048 -0.024673
v 0.127282 0.004081 -0.034143
v 0.105496 -0.045779 -0.062731
v 0.076505 0.173530 0.029843
v 0.005031 0.189694 0.051209
v 0.071852 0.184159 -0.043020
v 0.119797 0.119626 -0.002846
v 0.067784 0.164555 -0.110690
v 0.112274 0.119216 -0.064166
v 0.128856 0.043195 -0.034718
v 0.054352 0.107353 -0.171768
v 0.095681 0.088049 -0.125439
v 0.121910 0.043287 -0.071535
v 0.139560 0.038984 -0.046407
v 0.136422 0.046853 -0.074241
v 0.132982 0.007197 -0.096559
v 0.128982 -0.037572 -0.055075
v 0.113074 0.009083 -0.084671
v 0.064959 0.016478 -0.168935
v 0.100596 0.033471 -0.142175
v -0.019349 -0.075411 -0.165437
v 0.067651 -0.054854 -0.145945
v 0.076646 -0.292685 -0.000829
v -0.016466 -0.111442 -0.139805
vn -0.4338 0.6576 0.6159
vn -0.1899 0.6376 0.7466
vn -0.0328 0.8804 0.4730
vn -0.2442 0.9056 0.3466
vn 0.0255 0.5832 0.8119
vn 0.1514 0.7871 0.5980
vn 0.0833 0.9855 0.1478
vn -0.0627 0.9941 0.0889
vn 0.2915 0.9293 0.2268
vn -0.7639 -0.2983 0.5723
vn -0.3163 -0.5338 0.7842
vn -0.7630 0.3232 0.5598
vn -0.2905 -0.4144 0.8625
vn -0.7159 0.2461 0.6534
vn -0.1989 -0.1687 0.9654
vn -0.8934 -0.0449 0.4471
vn -0.2865 -0.5225 0.8031
vn -0.9498 -0.0801 -0.3026
vn -0.9497 -0.0797 -0.3028
vn -0.9495 -0.0758 -0.3045
vn -0.0996 -0.8210 0.5622
vn -0.7712 -0.2174 -0.5983
vn -0.1659 -0.4154 0.8944
vn -0.4600 -0.4213 -0.7816
vn -0.2152 -0.9142 0.3434
vn -0.5411 0.8398 -0.0446
vn -0.8553 0.4948 -0.1537
vn -0.9492 -0.0715 -0.3063
vn 0.4140 0.3305 0.8482
vn 0.6317 0.7513 0.1911
vn -0.1235 -0.6908 0.7124
vn 0.8369 0.0003 0.5473
vn 0.8766 0.4675 0.1138
vn -0.0385 -0.6899 0.7229
vn 0.9314 -0.3147 0.1829
vn 0.9377 0.1924 -0.2893
vn 0.0877 -0.7170 0.6915
vn 0.9613 -0.2685 0.0617
vn 0.8129 -0.1579 -0.5605
vn 0.0247 -0.4138 0.9100
vn 0.8498 -0.4385 -0.2925
vn 0.8521 0.0054 -0.5233
vn 0.1609 -0.9576 0.2391
vn 0.2093 -0.5238 -0.8257
vn 0.2748 -0.9582 0.0799
vn 0.0948 0.8638 -0.4948
vn -0.2627 0.6818 -0.6827
vn -0.5471 0.3953 -0.7378
vn -0.0111 0.6160 -0.7877
vn -0.0807 0.4061 -0.9102
vn 0.6908 0.4151 -0.5921
vn 0.4403 0.2585 -0.8598
vn -0.2142 -0.1337 -0.9676
vn -0.7183 -0.0823 -0.6908
vn 0.2208 -0.0727 -0.9726
vn 0.5481 0.8234 -0.1474
vn -0.1038 -0.4434 0.8903
vn 0.0414 -0.2777 0.9598
vn -0.0502 -0.5841 0.8101
vn -0.1481 -0.8472 0.5102
vn -0.5064 -0.3564 0.7852
vn -0.0125 -0.5613 0.8275
vn 0.0271 -0.5738 0.8185
vn -0.3752 -0.7229 0.5803
vn -0.0416 -0.4643 0.8847
vn -0.1716 -0.6996 0.6937
vn -0.1804 -0.6843 0.7065
vn -0.1615 -0.7315 0.6624
vn -0.2967 -0.6663 0.6841
vn -0.5763 -0.5840 0.5717
vn 0.1962 -0.3736 0.9066
vn 0.0103 -0.5964 0.8026
vn 0.0744 -0.7162 0.6940
vn -0.1146 -0.6886 0.7160
vn -0.3781 -0.6618 0.6474
vn -0.1549 -0.5023 0.8507
vn -0.1306 -0.6598 0.7400
vn -0.1556 -0.6816 0.7150
vn -0.3983 -0.5730 0.7163
vn -0.2211 -0.6844 0.6948
vn 0.2799 0.7669 0.5775
vn 0.3204 0.8378 0.4420
vn 0.2015 0.8995 0.3876
vn -0.3406 -0.1655 0.9255
vn -0.7610 0.1618 0.6283
vn -0.9053 0.3760 -0.1977
vn -0.4685 -0.6053 0.6435
vn -0.7193 -0.4137 0.5580
vn -0.9399 -0.1380 -0.3124
vn -0.9058 -0.3199 0.2779
vn -0.2868 -0.8793 0.3802
vn -0.5929 -0.7131 0.3742
vn -0.0449 -0.6305 0.7749
vn -0.1702 0.7316 0.6601
vn -0.3113 -0.7582 0.5728
vn -0.3508 -0.3829 0.8546
vn -0.2158 0.0969 0.9716
vn -0.2333 -0.7529 0.6154
vn -0.4059 0.4819 0.7765
vn -0.1043 -0.1566 0.9821
vn 0.0524 0.0783 0.9955
vn -0.8480 0.0107 0.5298
vn -0.2163 -0.4519 0.8655
vn -0.3282 -0.2685 0.9056
vn -0.6051 0.4462 0.6593
vn -0.3378 0.3187 0.8856
vn -0.2128 0.4497 0.8675
vn -0.2239 0.1155 0.9677
vn -0.2547 -0.3483 0.9021
vn -0.2702 -0.2379 0.9329
vn -0.1240 -0.5795 0.8055
vn -0.7911 -0.1125 0.6013
vn -0.6320 -0.3910 0.6691
vn -0.8947 -0.4426 0.0608
vn -0.3392 -0.0345 0.9401
vn -0.5635 -0.0766 0.8226
vn -0.7263 -0.0213 0.6871
vn -0.7622 0.0835 0.6419
vn 0.0427 0.4930 0.8690
vn -0.3942 0.5515 0.7352
vn -0.7266 0.4781 0.4934
vn -0.8979 0.1170 0.4243
vn -0.9862 -0.0093 0.1652
vn -0.8806 -0.4312 0.1966
vn -0.9473 -0.2607 0.1859
vn -0.9763 0.0912 0.1960
vn -0.9501 -0.3058 -0.0612
vn -0.1749 0.9766 0.1253
vn -0.8291 0.5586 0.0251
vn -0.9780 0.1476 0.1474
vn -0.3948 0.6522 -0.6471
vn -0.8806 0.3809 -0.2818
vn -0.9875 0.1472 -0.0566
vn -0.9534 -0.2066 0.2200
vn -0.9369 -0.0257 0.3487
vn 0.1769 0.4514 -0.8746
vn -0.1836 -0.5367 -0.8236
vn -0.2307 -0.9463 0.2266
vn -0.6499 -0.1208 -0.7504
vn -0.9954 0.0574 -0.0763
vn 0.4930 0.5380 0.6837
vn -0.9086 -0.2721 -0.3170
vn -0.9160 -0.3717 -0.1506
vn -0.9368 -0.1636 0.3092
vn -0.1420 0.8421 0.5203
vn -0.5220 0.6526 0.5493
vn -0.7367 0.5219 0.4301
vn -0.9260 0.1497 0.3466
vn -0.7620 0.6113 0.2134
vn -0.5645 -0.0196 0.8252
vn -0.0609 0.9903 0.1250
vn -0.7029 -0.6362 0.3181
vn -0.7722 -0.1054 0.6266
vn -0.7748 -0.0412 0.6309
vn 0.0168 0.4701 0.8825
vn -0.2748 0.7120 -0.6462
vn -0.4201 0.0949 -0.9025
vn -0.2354 -0.2406 0.9416
vn -0.4698 -0.5345 -0.7026
vn -0.2237 0.9476 -0.2281
vn -0.1446 0.7669 0.6253
vn -0.2141 0.8378 0.5022
vn -0.1103 0.8995 0.4227
vn 0.5378 -0.1655 0.8267
vn 0.8816 0.1618 0.4434
vn 0.8387 0.3760 -0.3939
vn 0.5998 -0.6053 0.5233
vn 0.8254 -0.4137 0.3842
vn 0.8469 -0.1380 -0.5135
vn 0.9449 -0.3199 0.0696
vn 0.3641 -0.8793 0.3070
vn 0.6613 -0.7131 0.2330
vn 0.2160 -0.6305 0.7455
vn 0.3127 0.7316 0.6058
vn 0.4309 -0.7582 0.4893
vn 0.5319 -0.3829 0.7553
vn 0.4263 0.0969 0.8994
vn 0.3642 -0.7529 0.5481
vn 0.5684 0.4819 0.6669
vn 0.3200 -0.1566 0.9344
vn 0.1702 0.0783 0.9823
vn 0.9446 0.0107 0.3281
vn 0.4032 -0.4519 0.7958
vn 0.5213 -0.2685 0.8100
vn 0.7365 0.4462 0.5084
vn 0.5262 0.3187 0.7884
vn 0.4003 0.4497 0.7985
vn 0.4334 0.1155 0.8938
vn 0.4489 -0.3483 0.8229
vn 0.4708 -0.2379 0.8496
vn 0.2999 -0.5795 0.7578
vn 0.9049 -0.1125 0.4104
vn 0.7649 -0.3910 0.5119
vn 0.8858 -0.4426 -0.1396
vn 0.5397 -0.0345 0.8412
vn 0.7322 -0.0766 0.6768
vn 0.8608 -0.0213 0.5084
vn 0.8858 0.0835 0.4564
vn 0.1515 0.4930 0.8567
vn 0.5477 0.5515 0.6292
vn 0.8181 0.4781 0.3196
vn 0.9698 0.1170 0.2141
vn 0.9983 -0.0093 -0.0582
vn 0.9022 -0.4312 -0.0041
vn 0.9650 -0.2607 -0.0293
vn 0.9955 0.0912 -0.0259
vn 0.9128 -0.3058 -0.2708
vn 0.1983 0.9766 0.0833
vn 0.8139 0.5586 -0.1598
vn 0.9863 0.1476 -0.0737
vn 0.2411 0.6522 -0.7187
vn 0.7960 0.3809 -0.4705
vn 0.9502 0.1472 -0.2747
vn 0.9784 -0.2066 0.0026
vn 0.9910 -0.0257 0.1317
vn -0.3669 0.4514 -0.8134
vn -0.0041 -0.5367 -0.8438
vn 0.2753 -0.9463 0.1697
vn 0.2510 0.0262 -0.9676
vn 0.6839 0.1414 -0.7157
vn 0.2800 -0.2917 -0.9146
vn 0.8213 -0.2853 -0.4940
vn 0.9536 0.0574 -0.2957
vn -0.3287 0.5380 0.7762
vn 0.8154 -0.2721 -0.5110
vn 0.8597 -0.3717 -0.3504
vn 0.9821 -0.1636 0.0933
vn 0.2541 0.8421 0.4757
vn 0.6310 0.6526 0.4195
vn 0.8138 0.5219 0.2556
vn 0.9799 0.1497 0.1321
vn 0.7904 0.6113 0.0387
vn 0.7338 -0.0196 0.6791
vn 0.0872 0.9903 0.1084
vn 0.7560 -0.6362 0.1539
vn 0.8921 -0.1054 0.4393
vn 0.8956 -0.0412 0.4429
vn 0.1797 0.4701 0.8641
vn 0.1243 0.7120 -0.6911
vn 0.2090 0.0949 -0.9733
vn 0.4388 -0.2406 0.8658
vn 0.3019 -0.5345 -0.7894
vn 0.1674 0.9476 -0.2721
vt 0.806250 0.687500
vt 0.731250 0.715625
vt 0.893750 0.681250
vt 0.103125 0.381250
vt 0.381250 0.850000
vt 0.381250 0.850000
vt 0.262500 0.846875
vt 0.084375 0.837500
vt 0.390625 0.828125
vt 0.375000 0.912500
vt 0.462500 0.825000
vt 0.462500 0.825000
vt 0.390625 0.828125
vt 0.240625 0.859375
vt 0.431641 0.900391
vt 0.478125 0.906250
vt 0.393750 0.815625
vt 0.118750 0.875000
vt 0.240625 0.859375
vt 0.240625 0.859375
vt 0.375000 0.868750
s 1
usemtl peopleColors
f 1/1/1 2/1/2 5/1/3 4/1/4
f 2/1/2 3/1/5 6/1/6 5/1/3
f 4/1/4 5/1/3 7/1/7 29/1/8
f 5/2/3 6/2/6 8/2/9 7/2/7
f 2/3/10 1/3/10 9/3/10 10/3/10
f 3/1/11 2/1/11 10/1/11 11/1/11
f 1/2/12 4/2/12 13/2/12 12/2/12
f 9/1/13 1/1/13 12/1/13 14/1/13
f 12/1/14 13/1/14 16/1/14 15/1/14
f 14/3/15 12/3/15 15/3/15 17/3/15
f 15/3/16 16/3/16 19/3/16 18/3/16
f 17/3/17 15/3/17 18/3/17 20/3/17
f 18/3/18 19/3/19 22/3/20 21/3/18
f 20/3/21 18/3/21 21/3/21 23/3/21
f 21/3/22 22/3/22 25/3/22 24/3/22
f 23/3/23 21/3/23 24/3/23 26/3/23
f 24/1/24 25/1/24 28/1/24 27/1/24
f 26/3/25 24/3/25 27/3/25 50/3/25
f 13/2/26 4/2/26 29/2/26 30/2/26
f 16/1/27 13/1/27 30/1/27 31/1/27
f 22/1/20 19/1/19 16/1/28 31/1/28
f 6/1/29 3/1/29 32/1/29 33/1/29
f 8/2/30 6/2/30 33/2/30 37/2/30
f 3/3/31 11/3/31 34/3/31 32/3/31
f 33/3/32 32/3/32 35/3/32 36/3/32
f 33/1/33 36/1/33 37/1/33
f 32/3/34 34/3/34 38/3/34 35/3/34
f 36/1/35 35/1/35 39/1/35 40/1/35
f 37/2/36 36/2/36 40/2/36 41/2/36
f 35/1/37 38/1/37 42/1/37 39/1/37
f 40/2/38 39/2/38 43/2/38 44/2/38
f 41/2/39 40/2/39 44/2/39 48/2/39
f 39/1/40 42/1/40 45/1/40 43/1/40
f 44/3/41 43/3/41 46/3/41 47/3/41
f 44/2/42 47/2/42 48/2/42
f 43/3/43 45/3/43 49/3/43 46/3/43
f 27/3/44 28/3/44 47/3/44 46/3/44
f 27/3/45 46/3/45 49/3/45 50/3/45
f 29/1/46 7/1/46 54/1/46 51/1/46
f 30/1/47 29/1/47 51/1/47 52/1/47
f 31/2/48 30/2/48 52/2/48 53/2/48
f 52/2/49 51/2/49 54/2/49 55/2/49
f 53/2/50 52/2/50 55/2/50 56/2/50
f 55/2/51 54/2/51 37/2/51 41/2/51
f 56/2/52 55/2/52 41/2/52 48/2/52
f 53/1/53 56/1/53 28/1/53 25/1/53
f 22/1/54 31/1/54 53/1/54 25/1/54
f 47/2/55 28/2/55 56/2/55 48/2/55
f 8/2/56 37/2/56 54/2/56 7/2/56
f 9/3/57 14/3/57 57/3/57
f 17/3/58 58/3/58 57/3/58 14/3/58
f 17/3/59 20/3/59 59/3/59 58/3/59
f 23/3/60 60/3/60 59/3/60 20/3/60
f 23/3/61 26/3/61 60/3/61
f 26/3/62 50/3/62 61/3/62 60/3/62
f 50/3/63 49/3/63 61/3/63
f 45/3/64 62/3/64 61/3/64 49/3/64
f 42/3/65 63/3/65 62/3/65 45/3/65
f 42/3/66 38/3/66 63/3/66
f 38/3/67 34/3/67 64/3/67 63/3/67
f 11/3/68 65/3/68 64/3/68 34/3/68
f 11/3/69 10/3/69 65/3/69
f 9/3/70 57/3/70 65/3/70 10/3/70
f 57/3/71 58/3/71 66/3/71
f 58/3/72 59/3/72 66/3/72
f 59/3/73 60/3/73 66/3/73
f 60/3/74 61/3/74 67/3/74 66/3/74
f 62/3/75 68/3/75 67/3/75 61/3/75
f 62/3/76 63/3/76 68/3/76
f 63/3/77 64/3/77 69/3/77 68/3/77
f 64/3/78 65/3/78 69/3/78
f 57/3/79 66/3/79 69/3/79 65/3/79
f 66/3/80 67/3/80 68/3/80 69/3/80
f 127/4/81 70/4/81 71/4/81 126/4/81
f 126/4/82 71/4/82 72/4/82 125/4/82
f 72/4/83 152/4/83 153/4/83 125/4/83
f 154/5/84 155/6/84 73/6/84 70/6/84
f 71/7/85 70/7/85 73/7/85 74/7/85
f 72/8/86 71/8/86 74/8/86 75/8/86
f 155/9/87 159/9/87 76/9/87 73/9/87
f 73/6/88 76/6/88 79/6/88
f 75/7/89 74/7/89 77/7/89 78/7/89
f 79/7/90 77/7/90 74/7/90 73/7/90
f 159/9/91 136/9/91 80/9/91 76/9/91
f 76/9/92 133/9/92 98/9/92 79/9/92
f 82/10/93 95/10/93 134/10/93
f 81/11/94 137/12/94 171/11/94 82/11/94
f 171/9/95 172/13/95 83/9/95 82/9/95
f 82/14/96 83/14/96 88/14/96 93/14/96
f 83/14/97 172/14/97 138/14/97 88/14/97
f 138/15/98 176/15/98 84/15/98 88/15/98
f 84/14/99 176/14/99 178/14/99 87/14/99
f 87/14/100 178/14/100 180/14/100 85/14/100
f 180/14/101 139/14/101 100/14/101 85/14/101
f 84/14/102 91/14/102 88/14/102
f 86/16/103 87/16/103 85/16/103 89/16/103
f 86/16/104 89/16/104 90/16/104 92/16/104
f 84/17/105 87/17/105 91/17/105
f 91/17/106 87/17/106 86/17/106
f 91/14/107 86/14/107 92/14/107 94/14/107
f 88/14/108 91/14/108 94/14/108 93/14/108
f 95/10/109 98/10/109 133/10/109 134/10/109
f 80/10/110 136/10/110 190/10/110 96/10/110
f 93/10/111 95/10/111 82/10/111
f 93/18/112 94/18/112 104/18/112 97/18/112
f 95/10/113 93/10/113 97/10/113 98/10/113
f 77/7/114 79/7/114 107/7/114
f 89/14/115 85/14/115 100/14/115 101/14/115
f 90/14/116 89/14/116 101/14/116 102/14/116
f 92/14/117 90/14/117 102/14/117 103/14/117
f 94/18/118 92/18/118 103/18/118 104/18/118
f 100/14/119 139/14/119 143/19/119 122/14/119
f 101/18/120 100/18/120 122/18/120 123/18/120
f 102/18/121 101/18/121 123/18/121 124/18/121
f 103/14/122 102/14/122 124/14/122 106/14/122
f 103/14/123 106/14/123 121/14/123 104/14/123
f 79/10/124 98/10/124 97/10/124 107/10/124
f 107/7/125 97/7/125 104/7/125 108/7/125
f 121/14/126 99/14/126 108/14/126 104/14/126
f 77/7/127 107/7/127 108/7/127 111/7/127
f 105/14/128 206/14/128 145/20/128 131/14/128
f 130/7/129 131/7/129 109/7/129 110/7/129
f 106/14/130 130/14/130 110/14/130 129/14/130
f 140/14/131 141/14/131 113/14/131 109/14/131
f 110/7/132 109/7/132 113/7/132 114/7/132
f 129/7/133 110/7/133 114/7/133 115/7/133
f 99/14/134 132/14/134 118/14/134 117/14/134
f 108/14/135 99/14/135 117/14/135 119/14/135
f 117/21/136 118/21/136 115/21/136 116/21/136
f 119/21/137 117/21/137 116/21/137 111/21/137
f 108/15/138 119/15/138 111/15/138
f 114/7/139 113/14/139 141/14/139 142/19/139 222/20/139 112/7/139 116/7/139 120/7/139
f 120/7/140 116/7/140 115/7/140 114/7/140
f 128/4/141 70/4/141 127/4/141
f 78/7/142 77/7/142 111/7/142
f 112/7/143 78/7/143 111/7/143 116/7/143
f 99/14/144 121/14/144 106/14/144 129/14/144
f 122/14/145 143/19/145 206/14/145 105/14/145
f 123/18/146 122/18/146 105/18/146
f 124/18/147 123/18/147 105/18/147 130/18/147
f 106/14/148 124/14/148 130/14/148
f 130/7/149 105/7/149 131/7/149
f 99/14/150 129/14/150 132/14/150
f 129/21/151 115/21/151 118/21/151 132/21/151
f 76/9/152 80/9/152 133/9/152
f 133/10/153 80/10/153 96/10/153 134/10/153
f 96/10/154 81/10/154 82/10/154 134/10/154
f 154/5/155 70/6/155 128/6/155 144/6/155
f 72/8/156 75/8/156 135/8/156 152/8/156
f 75/8/157 78/8/157 225/8/157 135/8/157
f 81/9/158 96/9/158 190/9/158 137/13/158
f 78/14/159 112/14/159 222/20/159 225/14/159
f 109/14/160 131/14/160 145/20/160 140/14/160
f 146/4/161 149/4/161 148/4/161 147/4/161
f 149/4/162 151/4/162 150/4/162 148/4/162
f 153/4/163 152/4/163 150/4/163 151/4/163
f 156/6/164 155/6/164 154/5/164 147/6/164
f 148/7/165 157/7/165 156/7/165 147/7/165
f 150/8/166 158/8/166 157/8/166 148/8/166
f 160/9/167 159/9/167 155/9/167 156/9/167
f 156/6/168 161/6/168 160/6/168
f 158/7/169 163/7/169 162/7/169 157/7/169
f 161/7/170 156/7/170 157/7/170 162/7/170
f 164/9/171 136/9/171 159/9/171 160/9/171
f 166/9/172 165/9/172 160/9/172 161/9/172
f 167/10/173 169/10/173 168/10/173
f 170/11/174 167/11/174 171/11/174 137/12/174
f 173/9/175 172/13/175 171/9/175 167/9/175
f 167/14/176 175/14/176 174/14/176 173/14/176
f 173/14/177 174/14/177 138/14/177 172/14/177
f 177/15/178 176/15/178 138/15/178 174/15/178
f 177/14/179 179/14/179 178/14/179 176/14/179
f 179/14/180 181/14/180 180/14/180 178/14/180
f 182/14/181 139/14/181 180/14/181 181/14/181
f 177/14/182 174/14/182 183/14/182
f 184/16/183 185/16/183 181/16/183 179/16/183
f 184/16/184 187/16/184 186/16/184 185/16/184
f 177/17/185 183/17/185 179/17/185
f 183/17/186 184/17/186 179/17/186
f 183/14/187 188/14/187 187/14/187 184/14/187
f 174/14/188 175/14/188 188/14/188 183/14/188
f 168/10/189 169/10/189 165/10/189 166/10/189
f 190/10/190 136/10/190 164/10/190 189/10/190
f 175/10/191 167/10/191 168/10/191
f 175/18/192 192/18/192 191/18/192 188/18/192
f 168/10/193 166/10/193 192/10/193 175/10/193
f 162/7/194 193/7/194 161/7/194
f 185/14/195 194/14/195 182/14/195 181/14/195
f 186/14/196 195/14/196 194/14/196 185/14/196
f 187/14/197 196/14/197 195/14/197 186/14/197
f 188/18/198 191/18/198 196/18/198 187/18/198
f 182/14/199 197/14/199 143/19/199 139/14/199
f 194/18/200 198/18/200 197/18/200 182/18/200
f 195/18/201 199/18/201 198/18/201 194/18/201
f 196/14/202 200/14/202 199/14/202 195/14/202
f 201/14/203 200/14/203 196/14/203 191/14/203
f 161/10/204 193/10/204 192/10/204 166/10/204
f 193/7/205 202/7/205 191/7/205 192/7/205
f 202/14/206 203/14/206 201/14/206 191/14/206
f 162/7/207 204/7/207 202/7/207 193/7/207
f 205/14/208 207/14/208 145/20/208 206/14/208
f 208/7/209 210/7/209 209/7/209 207/7/209
f 200/14/210 211/14/210 210/14/210 208/14/210
f 212/14/211 141/14/211 140/14/211 209/14/211
f 210/7/212 213/7/212 212/7/212 209/7/212
f 211/7/213 214/7/213 213/7/213 210/7/213
f 203/14/214 217/14/214 216/14/214 215/14/214
f 202/14/215 218/14/215 217/14/215 203/14/215
f 217/21/216 219/21/216 214/21/216 216/21/216
f 218/21/217 204/21/217 219/21/217 217/21/217
f 202/15/218 204/15/218 218/15/218
f 212/14/219 220/14/219 142/19/219 141/14/219
f 213/7/220 221/7/220 220/7/220 212/7/220
f 223/14/221 222/20/221 142/19/221 220/14/221
f 223/7/222 220/7/222 221/7/222 219/7/222
f 214/7/223 219/7/223 221/7/223 213/7/223
f 224/4/224 146/4/224 147/4/224
f 163/7/225 204/7/225 162/7/225
f 204/7/226 163/7/226 223/7/226 219/7/226
f 203/14/227 211/14/227 200/14/227 201/14/227
f 197/14/228 205/14/228 206/14/228 143/19/228
f 198/18/229 205/18/229 197/18/229
f 199/18/230 208/18/230 205/18/230 198/18/230
f 200/14/231 208/14/231 199/14/231
f 208/7/232 207/7/232 205/7/232
f 203/14/233 215/14/233 211/14/233
f 211/21/234 215/21/234 216/21/234 214/21/234
f 160/9/235 165/9/235 164/9/235
f 165/10/236 169/10/236 189/10/236 164/10/236
f 167/10/237 170/10/237 189/10/237 169/10/237
f 154/5/238 144/6/238 224/6/238 147/6/238
f 135/8/239 158/8/239 150/8/239 152/8/239
f 225/8/240 163/8/240 158/8/240 135/8/240
f 190/9/241 189/9/241 170/9/241 137/13/241
f 222/20/242 223/14/242 163/14/242 225/14/242
f 145/20/243 207/14/243 209/14/243 140/14/243
