# Blender 5.0.1
# www.blender.org
mtllib elder_Female_tobillo_d.mtl
o elder_Female_tobillo_d
v 0.058726 -0.323241 -0.080952
v 0.078088 -0.332679 -0.004844
v 0.087690 -0.135293 0.012356
v 0.091314 -0.133405 -0.084655
v 0.006447 -0.334651 0.038761
v 0.017931 -0.156976 0.065766
v 0.010278 -0.147150 -0.113651
v -0.002829 -0.322305 -0.108400
v -0.060755 -0.316925 0.010553
v -0.070912 -0.163423 0.025800
v -0.061605 -0.309407 -0.065331
v -0.084727 -0.161349 -0.047406
v 0.107938 -0.122832 0.027213
v 0.113413 -0.126867 -0.098442
v 0.021447 -0.147221 0.094524
v 0.007745 -0.140823 -0.136147
v -0.092784 -0.159855 0.043885
v -0.110662 -0.155746 -0.052990
v 0.103935 0.045088 -0.070144
v 0.094589 0.082831 0.066054
v 0.094863 0.203569 0.074740
v 0.105176 0.160925 -0.054586
v 0.013550 0.080714 0.128193
v -0.001949 0.197008 0.164696
v -0.010238 0.048328 -0.110404
v -0.029016 0.164878 -0.101972
v -0.098617 0.061259 0.080207
v -0.106917 0.180562 0.111873
v -0.117305 0.072181 -0.031005
v -0.110781 0.184427 -0.039164
v 0.100614 0.247633 0.084965
v 0.093987 0.263221 -0.020142
v 0.010653 0.243317 0.188878
v -0.015952 0.264804 -0.060923
v -0.108180 0.236455 0.130661
v -0.111295 0.251549 -0.016157
v 0.098438 0.306841 0.085884
v 0.091445 0.310206 -0.023887
v -0.001956 0.311877 0.192664
v -0.031289 0.307376 -0.060086
v -0.132342 0.300438 0.158970
v -0.135909 0.298373 -0.008985
v 0.006117 -0.465078 -0.122494
v 0.055355 -0.481502 -0.091940
v 0.070171 -0.485617 -0.012689
v 0.005220 -0.474532 0.032941
v -0.046397 -0.474926 -0.009202
v -0.042712 -0.481395 -0.089000
v 0.111584 -0.017623 0.055304
v 0.120066 -0.040624 -0.088587
v 0.023501 -0.035072 0.127086
v -0.002938 -0.045694 -0.132185
v -0.104916 -0.061686 0.072296
v -0.125343 -0.052949 -0.044462
v 0.092551 0.005006 0.049818
v 0.100186 -0.018397 -0.071512
v 0.020670 -0.007421 0.109189
v -0.003968 -0.020292 -0.108366
v -0.087091 -0.032512 0.063687
v -0.104306 -0.024265 -0.036034
vn 0.9898 -0.1045 -0.0968
vn 0.5755 -0.1276 0.8078
vn 0.3725 -0.0693 -0.9254
vn -0.4046 -0.1141 0.9073
vn -0.9888 -0.1190 0.0896
vn -0.5794 0.0140 -0.8149
vn 0.4087 -0.9123 0.0255
vn 0.4257 -0.8788 0.2157
vn 0.2193 -0.9508 -0.2189
vn -0.0270 -0.9642 0.2637
vn -0.1885 -0.9821 -0.0006
vn -0.0891 -0.9460 -0.3116
vn 0.9968 -0.0144 0.0782
vn 0.6494 -0.1020 0.7536
vn 0.3334 0.1217 -0.9349
vn -0.3624 -0.2926 0.8849
vn -0.9963 -0.0162 0.0848
vn -0.6059 -0.0315 -0.7949
vn 0.9994 0.0335 0.0118
vn 0.6773 -0.3779 0.6313
vn 0.3275 0.3278 -0.8862
vn -0.3945 -0.3186 0.8619
vn -0.9995 -0.0219 0.0220
vn -0.4782 0.3455 -0.8074
vn 0.9973 0.0427 -0.0594
vn 0.7407 0.0611 0.6690
vn 0.3138 0.0318 -0.9490
vn -0.3099 -0.3041 0.9008
vn -0.9149 -0.4036 0.0027
vn -0.4201 -0.1070 -0.9011
vn 0.4723 0.0819 -0.8776
vn 0.5434 -0.0561 0.8376
vn 0.9760 -0.0223 -0.2167
vn -0.5174 -0.0958 0.8503
vn -0.9950 -0.0978 -0.0188
vn -0.5801 0.0463 -0.8132
vn 0.9962 -0.0651 0.0581
vn 0.6396 -0.2221 0.7359
vn 0.3281 0.0790 -0.9413
vn -0.3450 -0.2766 0.8969
vn -0.9732 -0.1602 0.1649
vn -0.5772 -0.0225 -0.8163
vn 0.7443 0.6640 -0.0710
vn 0.4750 0.5324 0.7006
vn 0.2229 0.6895 -0.6891
vn -0.4301 0.4723 0.7693
vn -0.8155 0.5484 0.1848
vn -0.4972 0.5726 -0.6518
vn 0.9957 -0.0504 0.0776
vn 0.6240 -0.1440 0.7681
vn 0.3330 0.0016 -0.9429
vn -0.3452 -0.2138 0.9139
vn -0.9777 -0.1434 0.1534
vn -0.5930 -0.0547 -0.8034
vt 0.262500 0.846875
vt 0.381250 0.850000
vt 0.512500 0.368750
vt 0.365625 0.340625
vt 0.246875 0.365625
s 1
usemtl peopleColors
f 4/1/1 3/1/1 2/1/1 1/1/1
f 2/1/2 3/1/2 6/1/2 5/1/2
f 1/1/3 8/1/3 7/1/3 4/1/3
f 6/1/4 10/1/4 9/1/4 5/1/4
f 10/2/5 12/2/5 11/2/5 9/2/5
f 12/2/6 7/2/6 8/2/6 11/2/6
f 14/3/7 13/3/7 3/3/7 4/3/7
f 3/3/8 13/3/8 15/3/8 6/3/8
f 16/3/9 14/3/9 4/3/9 7/3/9
f 6/3/10 15/3/10 17/3/10 10/3/10
f 10/3/11 17/3/11 18/3/11 12/3/11
f 12/3/12 18/3/12 16/3/12 7/3/12
f 19/4/13 22/4/13 21/4/13 20/4/13
f 20/4/14 21/4/14 24/4/14 23/4/14
f 25/4/15 26/4/15 22/4/15 19/4/15
f 23/4/16 24/4/16 28/4/16 27/4/16
f 27/4/17 28/4/17 30/4/17 29/4/17
f 29/4/18 30/4/18 26/4/18 25/4/18
f 22/4/19 32/4/19 31/4/19 21/4/19
f 21/3/20 31/3/20 33/3/20 24/3/20
f 26/4/21 34/4/21 32/4/21 22/4/21
f 24/4/22 33/4/22 35/4/22 28/4/22
f 28/4/23 35/4/23 36/4/23 30/4/23
f 30/4/24 36/4/24 34/4/24 26/4/24
f 32/4/25 38/4/25 37/4/25 31/4/25
f 31/4/26 37/4/26 39/4/26 33/4/26
f 34/3/27 40/3/27 38/3/27 32/3/27
f 33/4/28 39/4/28 41/4/28 35/4/28
f 35/3/29 41/3/29 42/3/29 36/3/29
f 36/3/30 42/3/30 40/3/30 34/3/30
f 1/1/31 44/1/31 43/1/31 8/1/31
f 5/1/32 46/1/32 45/1/32 2/1/32
f 2/1/33 45/1/33 44/1/33 1/1/33
f 9/1/34 47/1/34 46/1/34 5/1/34
f 11/1/35 48/1/35 47/1/35 9/1/35
f 8/1/36 43/1/36 48/1/36 11/1/36
f 13/4/37 14/4/37 50/4/37 49/4/37
f 13/4/38 49/4/38 51/4/38 15/4/38
f 14/4/39 16/4/39 52/4/39 50/4/39
f 15/4/40 51/4/40 53/4/40 17/4/40
f 17/4/41 53/4/41 54/4/41 18/4/41
f 18/4/42 54/4/42 52/4/42 16/4/42
f 49/5/43 50/5/43 56/5/43 55/5/43
f 51/5/44 49/5/44 55/5/44 57/5/44
f 50/5/45 52/5/45 58/5/45 56/5/45
f 51/5/46 57/5/46 59/5/46 53/5/46
f 53/5/47 59/5/47 60/5/47 54/5/47
f 54/5/48 60/5/48 58/5/48 52/5/48
f 55/4/49 56/4/49 19/4/49 20/4/49
f 57/4/50 55/4/50 20/4/50 23/4/50
f 58/4/51 25/4/51 19/4/51 56/4/51
f 57/4/52 23/4/52 27/4/52 59/4/52
f 59/4/53 27/4/53 29/4/53 60/4/53
f 60/4/54 29/4/54 25/4/54 58/4/54
