# Blender 5.1.1
# www.blender.org
mtllib helicopteroCola.mtl
o cuerpo.002
v -0.000000 0.003732 0.003732
v 0.007463 0.003732 0.003732
v 0.000000 0.003732 -0.003732
v 0.007463 0.003732 -0.003732
v -0.000000 -0.003732 0.003732
v 0.007463 -0.003732 0.003732
v 0.000000 -0.003732 -0.003732
v 0.007463 -0.003732 -0.003732
v 0.009413 0.005780 0.005780
v 0.009413 0.005780 -0.005780
v 0.009413 -0.005780 -0.005780
v 0.009413 -0.005780 0.005780
v 0.014262 0.005780 0.005780
v 0.014262 0.005780 -0.005780
v 0.014262 -0.005780 -0.005780
v 0.014262 -0.005780 0.005780
v 0.015879 0.003156 0.003156
v 0.015879 0.003156 -0.003156
v 0.015879 -0.003156 -0.003156
v 0.015879 -0.003156 0.003156
v 0.022545 0.003156 0.003156
v 0.022545 0.003156 -0.003156
v 0.022545 -0.003156 -0.003156
v 0.022545 -0.003156 0.003156
v 0.010106 0.004127 0.008367
v 0.010106 -0.004127 0.008367
v 0.013568 -0.004127 0.008367
v 0.013568 0.004127 0.008367
v 0.010106 -0.004127 -0.008367
v 0.010106 0.004127 -0.008367
v 0.013568 0.004127 -0.008367
v 0.013568 -0.004127 -0.008367
v 0.010106 -0.008367 0.004127
v 0.010106 -0.008367 -0.004127
v 0.013568 -0.008367 -0.004127
v 0.013568 -0.008367 0.004127
v 0.010106 0.008367 -0.004127
v 0.010106 0.008367 0.004127
v 0.013568 0.008367 0.004127
v 0.013568 0.008367 -0.004127
v 0.010646 0.002839 0.011992
v 0.010646 -0.002839 0.011992
v 0.013028 -0.002839 0.011992
v 0.013028 0.002839 0.011992
v 0.010646 -0.002839 -0.011992
v 0.010646 0.002839 -0.011992
v 0.013028 0.002839 -0.011992
v 0.013028 -0.002839 -0.011992
v 0.010646 -0.011992 0.002840
v 0.010646 -0.011992 -0.002839
v 0.013028 -0.011992 -0.002839
v 0.013028 -0.011992 0.002840
v 0.010646 0.011992 -0.002839
v 0.010646 0.011992 0.002840
v 0.013028 0.011992 0.002840
v 0.013028 0.011992 -0.002839
v 0.010250 -0.003785 0.015589
v 0.010250 0.003785 0.015589
v 0.013425 -0.003785 0.015589
v 0.013425 0.003785 0.015589
v 0.010250 0.003785 -0.015589
v 0.010250 -0.003785 -0.015589
v 0.013425 0.003785 -0.015589
v 0.013425 -0.003785 -0.015589
v 0.010250 -0.015589 -0.003785
v 0.010250 -0.015589 0.003785
v 0.013425 -0.015589 -0.003785
v 0.013425 -0.015589 0.003785
v 0.010250 0.015589 0.003785
v 0.010250 0.015589 -0.003785
v 0.013425 0.015589 0.003785
v 0.013425 0.015589 -0.003785
v 0.010250 -0.003785 0.043643
v 0.010250 0.003785 0.043643
v 0.013425 -0.003785 0.043643
v 0.013425 0.003785 0.043643
v 0.010250 0.003785 -0.043644
v 0.010250 -0.003785 -0.043644
v 0.013425 0.003785 -0.043644
v 0.013425 -0.003785 -0.043644
v 0.010250 -0.043644 -0.003785
v 0.010250 -0.043644 0.003785
v 0.013425 -0.043644 -0.003785
v 0.013425 -0.043644 0.003785
v 0.010250 0.043644 0.003785
v 0.010250 0.043644 -0.003785
v 0.013425 0.043644 0.003785
v 0.013425 0.043644 -0.003785
v 0.010469 -0.003263 0.046145
v 0.010469 0.003263 0.046145
v 0.013206 -0.003263 0.046145
v 0.013206 0.003263 0.046145
v 0.010469 0.003263 -0.046145
v 0.010469 -0.003263 -0.046145
v 0.013206 0.003263 -0.046145
v 0.013206 -0.003263 -0.046145
v 0.010469 -0.046145 -0.003263
v 0.010469 -0.046145 0.003263
v 0.013206 -0.046145 -0.003263
v 0.013206 -0.046145 0.003263
v 0.010469 0.046145 0.003263
v 0.010469 0.046145 -0.003263
v 0.013206 0.046145 0.003263
v 0.013206 0.046145 -0.003263
vn -0.0000 1.0000 -0.0000
vn -0.0000 -0.0000 -1.0000
vn -0.0000 -1.0000 -0.0000
vn -0.0000 -0.0000 1.0000
vn -0.7244 0.6894 -0.0000
vn -0.7244 -0.0000 0.6894
vn -0.7244 -0.0000 -0.6894
vn -0.7244 -0.6894 -0.0000
vn 0.8514 -0.5245 -0.0000
vn 0.8514 0.5245 -0.0000
vn 0.8514 -0.0000 0.5245
vn 0.8514 -0.0000 -0.5245
vn -0.9659 -0.0000 0.2590
vn -0.0000 -0.8426 0.5385
vn 0.9659 -0.0000 0.2589
vn -0.0000 0.8426 0.5385
vn -0.9659 -0.0000 -0.2590
vn -0.0000 0.8426 -0.5385
vn 0.9659 -0.0000 -0.2589
vn -0.0000 -0.8426 -0.5385
vn -0.9659 -0.2590 -0.0000
vn -0.0000 -0.5385 -0.8426
vn 0.9659 -0.2590 -0.0000
vn -0.0000 -0.5385 0.8426
vn -0.9659 0.2590 -0.0000
vn -0.0000 0.5385 0.8426
vn 0.9659 0.2590 -0.0000
vn -0.0000 0.5385 -0.8426
vn -0.9940 0.1096 -0.0000
vn -0.9891 -0.0000 0.1474
vn -0.0000 -0.9423 0.3347
vn 0.9891 -0.0000 0.1474
vn -0.0000 0.9423 0.3347
vn -0.0000 -0.9671 -0.2543
vn -0.9891 -0.0000 -0.1474
vn -0.0000 0.9423 -0.3347
vn 0.9891 -0.0000 -0.1474
vn -0.0000 -0.9423 -0.3347
vn -0.9940 -0.0000 0.1096
vn -0.9891 -0.1474 -0.0000
vn -0.0000 -0.3347 -0.9423
vn 0.9891 -0.1474 -0.0000
vn -0.0000 -0.3346 0.9423
vn -0.9940 -0.0000 -0.1096
vn -0.9891 0.1474 -0.0000
vn -0.0000 0.3346 0.9423
vn 0.9891 0.1474 -0.0000
vn -0.0000 0.3347 -0.9423
vn -0.0000 0.9671 0.2542
vn -0.9940 -0.1096 -0.0000
vn 0.9940 -0.0000 -0.1096
vn -0.0000 0.2543 -0.9671
vn 0.9940 -0.0000 0.1096
vn -0.0000 -0.2542 0.9671
vn -0.0000 0.9671 -0.2543
vn 0.9940 0.1096 -0.0000
vn -0.0000 -0.9671 0.2542
vn 0.9940 -0.1096 -0.0000
vn -0.0000 0.2542 0.9671
vn -0.0000 -0.2543 -0.9671
vn -1.0000 -0.0000 -0.0000
vn 1.0000 -0.0000 -0.0000
vn 0.9962 0.0872 -0.0000
vn 0.9962 -0.0000 -0.0872
vn -0.0000 0.2043 0.9789
vn -0.0000 0.9789 -0.2044
vn -0.0000 -0.9789 -0.2044
vn -0.9962 -0.0000 0.0872
vn -0.0000 0.2043 -0.9789
vn -0.9962 -0.0872 -0.0000
vn -0.0000 -0.9789 0.2044
vn -0.0000 -0.2043 -0.9789
vn 0.9962 -0.0000 0.0872
vn 0.9962 -0.0872 -0.0000
vn -0.0000 0.9789 0.2044
vn -0.0000 -0.2043 0.9789
vn -0.9962 -0.0000 -0.0872
vn -0.9962 0.0872 -0.0000
vt 0.569399 0.843567
vt 0.569399 0.790163
vt 0.622745 0.790163
vt 0.622745 0.843567
vt 0.569399 0.576547
vt 0.622803 0.576547
vt 0.622803 0.629951
vt 0.569399 0.629951
vt 0.622803 0.736759
vt 0.622803 0.790163
vt 0.569399 0.790163
vt 0.569399 0.736759
vt 0.622803 0.683355
vt 0.569399 0.683355
vt 0.569399 0.629951
vt 0.622803 0.629951
vt 0.287762 0.250000
vt 0.250000 0.212238
vt 0.250000 0.191506
vt 0.308494 0.250000
vt 0.212238 0.250000
vt 0.191506 0.250000
vt 0.250000 0.287762
vt 0.250000 0.308494
vt 0.250000 0.808494
vt 0.191506 0.750000
vt 0.218062 0.750000
vt 0.250000 0.781937
vt 0.667921 0.047703
vt 0.622803 0.047703
vt 0.622803 -0.000000
vt 0.667921 -0.000000
vt 0.250000 0.691506
vt 0.308494 0.750000
vt 0.281938 0.750000
vt 0.250000 0.718062
vt 0.569399 0.843567
vt 0.614565 0.843567
vt 0.614565 0.891271
vt 0.569399 0.891270
vt 0.614566 0.938974
vt 0.569399 0.938974
vt 0.569399 0.891271
vt 0.614566 0.891271
vt 0.569399 0.938974
vt 0.614565 0.938974
vt 0.614565 0.986677
vt 0.569399 0.986677
vt 0.186783 0.228548
vt 0.228548 0.186783
vt 0.534699 0.866537
vt 0.539661 0.848028
vt 0.564437 0.848028
vt 0.569399 0.866537
vt 0.313217 0.771452
vt 0.271452 0.813217
vt 0.574361 0.558606
vt 0.599136 0.558606
vt 0.604098 0.576547
vt 0.313217 0.271452
vt 0.271452 0.313217
vt 0.534699 -0.000000
vt 0.529737 0.019036
vt 0.504962 0.019036
vt 0.500000 -0.000000
vt 0.186783 0.728548
vt 0.228548 0.686783
vt 0.604098 0.000000
vt 0.599136 0.018509
vt 0.574361 0.018509
vt 0.569399 0.000000
vt 0.228548 0.313217
vt 0.186783 0.271452
vt 0.534699 0.289370
vt 0.529737 0.307878
vt 0.504962 0.307878
vt 0.500000 0.289370
vt 0.228548 0.813217
vt 0.186784 0.771452
vt 0.534699 0.578215
vt 0.529737 0.596724
vt 0.504962 0.596724
vt 0.500000 0.578215
vt 0.271452 0.186783
vt 0.313216 0.228548
vt 0.534699 0.288846
vt 0.539661 0.270337
vt 0.564437 0.270337
vt 0.569399 0.288846
vt 0.271452 0.686783
vt 0.313217 0.728548
vt 0.534699 0.577691
vt 0.539661 0.559183
vt 0.564437 0.559183
vt 0.569399 0.577691
vt 0.174955 0.296311
vt 0.203689 0.325045
vt 0.190274 0.348029
vt 0.151971 0.309726
vt 0.174955 0.203689
vt 0.203689 0.174955
vt 0.543526 0.822086
vt 0.560572 0.822086
vt 0.325045 0.796311
vt 0.296311 0.825045
vt 0.578226 0.533119
vt 0.595271 0.533119
vt 0.540688 0.796349
vt 0.563410 0.796349
vt 0.325045 0.296311
vt 0.296311 0.325045
vt 0.525872 0.045377
vt 0.508827 0.045377
vt 0.174955 0.703689
vt 0.203689 0.674955
vt 0.595271 0.044451
vt 0.578226 0.044451
vt 0.348028 0.309726
vt 0.309726 0.348029
vt 0.525872 0.333820
vt 0.508827 0.333820
vt 0.203689 0.825045
vt 0.174955 0.796311
vt 0.525872 0.622666
vt 0.508827 0.622666
vt 0.151971 0.190274
vt 0.190274 0.151971
vt 0.296311 0.174955
vt 0.325045 0.203689
vt 0.543526 0.244395
vt 0.560572 0.244395
vt 0.296311 0.674955
vt 0.325045 0.703689
vt 0.543526 0.533241
vt 0.560572 0.533241
vt 0.528710 0.070774
vt 0.505989 0.070774
vt 0.309726 0.151971
vt 0.348029 0.190274
vt 0.348029 0.809726
vt 0.309726 0.848029
vt 0.528710 0.359558
vt 0.505989 0.359558
vt 0.151972 0.690274
vt 0.190274 0.651972
vt 0.540688 0.218658
vt 0.563410 0.218658
vt 0.575388 0.507096
vt 0.598109 0.507096
vt 0.190274 0.848029
vt 0.151971 0.809726
vt 0.598109 0.070188
vt 0.575388 0.070188
vt 0.309726 0.651971
vt 0.348029 0.690274
vt 0.528711 0.648403
vt 0.505989 0.648403
vt 0.540688 0.507503
vt 0.563410 0.507503
vt 0.622803 0.683355
vt 0.622803 0.736759
vt 0.569399 0.736759
vt 0.569399 0.683355
vt 0.667969 0.047703
vt 0.667969 0.092870
vt 0.622803 0.092870
vt 0.622803 0.047703
vt 0.048319 0.489984
vt 0.010016 0.451681
vt 0.540688 0.306748
vt 0.563410 0.306748
vt 0.010016 0.048319
vt 0.048319 0.010016
vt 0.598109 0.270943
vt 0.575388 0.270943
vt 0.489984 0.548319
vt 0.451681 0.510016
vt 0.466983 0.500000
vt 0.500000 0.533017
vt 0.048319 0.510016
vt 0.010016 0.548319
vt 0.000000 0.533017
vt 0.033017 0.500000
vt 0.563410 0.017902
vt 0.540688 0.017902
vt 0.542256 0.000000
vt 0.561842 0.000000
vt 0.505989 0.271314
vt 0.528710 0.271314
vt 0.527143 0.289370
vt 0.507557 0.289370
vt 0.540688 0.595594
vt 0.563410 0.595594
vt 0.528710 0.560313
vt 0.505989 0.560313
vt 0.489984 0.951681
vt 0.451681 0.989984
vt 0.048319 0.989984
vt 0.010016 0.951681
vt 0.575388 0.306556
vt 0.598109 0.306556
vt 0.528711 0.849159
vt 0.505989 0.849159
vt 0.489984 0.451681
vt 0.451681 0.489984
vt 0.451681 0.010016
vt 0.489984 0.048319
vt 0.642389 0.139563
vt 0.622803 0.139563
vt 0.622803 0.092870
vt 0.642389 0.092870
vt 0.622803 0.139563
vt 0.642389 0.186255
vt 0.622803 0.186255
vt 0.642389 0.232948
vt 0.622803 0.232948
vt 0.642389 0.186255
vt 0.642389 0.232948
vt 0.642389 0.279591
vt 0.622803 0.279591
vt 0.596542 0.288846
vt 0.576956 0.288846
vt 0.000000 0.033017
vt 0.033017 0.000000
vt 0.542256 0.288846
vt 0.561842 0.288846
vt 0.033017 0.500000
vt -0.000000 0.466983
vt 0.542256 0.577691
vt 0.561842 0.577691
vt 0.527143 0.578215
vt 0.507557 0.578215
vt 0.500000 0.966983
vt 0.466983 1.000000
vt 0.033017 1.000000
vt -0.000000 0.966983
vt 0.527143 0.867061
vt 0.507557 0.867061
vt 0.500000 0.466983
vt 0.466983 0.500000
vt 0.466983 0.000000
vt 0.500000 0.033017
s 1
usemtl Material.028
f 1/1/1 2/2/1 4/3/1 3/4/1
f 3/5/2 4/6/2 8/7/2 7/8/2
f 7/9/3 8/10/3 6/11/3 5/12/3
f 5/13/4 6/14/4 2/15/4 1/16/4
f 4/17/5 2/18/5 9/19/5 10/20/5
f 2/18/6 6/21/6 12/22/6 9/19/6
f 8/23/7 4/17/7 10/20/7 11/24/7
f 6/21/8 8/23/8 11/24/8 12/22/8
f 16/25/9 15/26/9 19/27/9 20/28/9
f 18/29/1 17/30/1 21/31/1 22/32/1
f 14/33/10 13/34/10 17/35/10 18/36/10
f 13/34/11 16/25/11 20/28/11 17/35/11
f 15/26/12 14/33/12 18/36/12 19/27/12
f 17/37/4 20/38/4 24/39/4 21/40/4
f 19/41/2 18/42/2 22/43/2 23/44/2
f 20/45/3 19/46/3 23/47/3 24/48/3
f 12/22/13 26/49/13 25/50/13 9/19/13
f 16/51/14 27/52/14 26/53/14 12/54/14
f 13/34/15 28/55/15 27/56/15 16/25/15
f 9/5/16 25/57/16 28/58/16 13/59/16
f 10/20/17 30/60/17 29/61/17 11/24/17
f 14/62/18 31/63/18 30/64/18 10/65/18
f 15/26/19 32/66/19 31/67/19 14/33/19
f 11/68/20 29/69/20 32/70/20 15/71/20
f 11/24/21 34/72/21 33/73/21 12/22/21
f 15/74/22 35/75/22 34/76/22 11/77/22
f 16/25/23 36/78/23 35/79/23 15/26/23
f 12/80/24 33/81/24 36/82/24 16/83/24
f 9/19/25 38/84/25 37/85/25 10/20/25
f 13/86/26 39/87/26 38/88/26 9/89/26
f 14/33/27 40/90/27 39/91/27 13/34/27
f 10/92/28 37/93/28 40/94/28 14/95/28
f 49/96/29 50/97/29 65/98/29 66/99/29
f 26/49/30 42/100/30 41/101/30 25/50/30
f 27/52/31 43/102/31 42/103/31 26/53/31
f 28/55/32 44/104/32 43/105/32 27/56/32
f 25/57/33 41/106/33 44/107/33 28/58/33
f 42/103/34 43/102/34 59/108/34 57/109/34
f 30/60/35 46/110/35 45/111/35 29/61/35
f 31/63/36 47/112/36 46/113/36 30/64/36
f 32/66/37 48/114/37 47/115/37 31/67/37
f 29/69/38 45/116/38 48/117/38 32/70/38
f 45/111/39 46/110/39 61/118/39 62/119/39
f 34/72/40 50/97/40 49/96/40 33/73/40
f 35/75/41 51/120/41 50/121/41 34/76/41
f 36/78/42 52/122/42 51/123/42 35/79/42
f 33/81/43 49/124/43 52/125/43 36/82/43
f 41/101/44 42/100/44 57/126/44 58/127/44
f 38/84/45 54/128/45 53/129/45 37/85/45
f 39/87/46 55/130/46 54/131/46 38/88/46
f 40/90/47 56/132/47 55/133/47 39/91/47
f 37/93/48 53/134/48 56/135/48 40/94/48
f 46/113/49 47/112/49 63/136/49 61/137/49
f 53/129/50 54/128/50 69/138/50 70/139/50
f 43/105/51 44/104/51 60/140/51 59/141/51
f 50/121/52 51/120/52 67/142/52 65/143/52
f 47/115/53 48/114/53 64/144/53 63/145/53
f 54/131/54 55/130/54 71/146/54 69/147/54
f 44/107/55 41/106/55 58/148/55 60/149/55
f 51/123/56 52/122/56 68/150/56 67/151/56
f 48/117/57 45/116/57 62/152/57 64/153/57
f 55/133/58 56/132/58 72/154/58 71/155/58
f 52/125/59 49/124/59 66/156/59 68/157/59
f 56/135/60 53/134/60 70/158/60 72/159/60
f 3/160/61 7/161/61 5/162/61 1/163/61
f 21/164/62 24/165/62 23/166/62 22/167/62
f 66/99/61 65/98/61 81/168/61 82/169/61
f 72/159/2 70/158/2 86/170/2 88/171/2
f 58/127/61 57/126/61 73/172/61 74/173/61
f 64/153/3 62/152/3 78/174/3 80/175/3
f 87/176/63 88/177/63 104/178/63 103/179/63
f 79/180/64 80/181/64 96/182/64 95/183/64
f 85/184/65 87/185/65 103/186/65 101/187/65
f 77/188/66 79/189/66 95/190/66 93/191/66
f 57/109/3 59/108/3 75/192/3 73/193/3
f 65/143/2 67/142/2 83/194/2 81/195/2
f 59/141/62 60/140/62 76/196/62 75/197/62
f 67/151/62 68/150/62 84/198/62 83/199/62
f 60/149/1 58/148/1 74/200/1 76/201/1
f 68/157/4 66/156/4 82/202/4 84/203/4
f 62/119/61 61/118/61 77/204/61 78/205/61
f 70/139/61 69/138/61 85/206/61 86/207/61
f 61/137/1 63/136/1 79/189/1 77/188/1
f 69/147/4 71/146/4 87/185/4 85/184/4
f 63/145/62 64/144/62 80/181/62 79/180/62
f 71/155/62 72/154/62 88/177/62 87/176/62
f 89/208/4 91/209/4 92/210/4 90/211/4
f 93/212/2 95/208/2 96/213/2 94/214/2
f 97/215/3 99/216/3 100/214/3 98/217/3
f 101/216/1 103/218/1 104/219/1 102/220/1
f 80/175/67 78/174/67 94/221/67 96/222/67
f 74/173/68 73/172/68 89/223/68 90/224/68
f 88/171/69 86/170/69 102/225/69 104/226/69
f 82/169/70 81/168/70 97/227/70 98/228/70
f 73/193/71 75/192/71 91/229/71 89/230/71
f 81/195/72 83/194/72 99/231/72 97/232/72
f 75/197/73 76/196/73 92/233/73 91/234/73
f 83/199/74 84/198/74 100/235/74 99/236/74
f 76/201/75 74/200/75 90/222/75 92/221/75
f 84/203/76 82/202/76 98/237/76 100/238/76
f 78/205/77 77/204/77 93/239/77 94/240/77
f 86/207/78 85/206/78 101/241/78 102/242/78
