# Blender 5.1.1
# www.blender.org
mtllib helicopteroHelice.mtl
o cuerpo.001
v -0.005904 -0.000000 0.005904
v -0.005904 0.011809 0.005904
v -0.005904 -0.000000 -0.005904
v -0.005904 0.011809 -0.005904
v 0.005904 -0.000000 0.005904
v 0.005904 0.011809 0.005904
v 0.005904 -0.000000 -0.005904
v 0.005904 0.011809 -0.005904
v -0.009146 0.014894 0.009146
v -0.009146 0.014894 -0.009146
v 0.009146 0.014894 -0.009146
v 0.009146 0.014894 0.009146
v -0.009146 0.022566 0.009146
v -0.009146 0.022566 -0.009146
v 0.009146 0.022566 -0.009146
v 0.009146 0.022566 0.009146
v -0.004994 0.025124 0.004994
v -0.004994 0.025124 -0.004994
v 0.004994 0.025124 -0.004994
v 0.004994 0.025124 0.004994
v -0.004994 0.035672 0.004994
v -0.004994 0.035672 -0.004994
v 0.004994 0.035672 -0.004994
v 0.004994 0.035672 0.004994
v -0.011680 0.039438 0.011680
v -0.011680 0.039438 -0.011680
v 0.011680 0.039438 -0.011680
v 0.011680 0.039438 0.011680
v -0.011680 0.055410 0.011680
v -0.011680 0.055410 -0.011680
v 0.011680 0.055410 -0.011680
v 0.011680 0.055410 0.011680
v -0.003948 0.060132 0.003948
v -0.003948 0.060132 -0.003948
v 0.003948 0.060132 -0.003948
v 0.003948 0.060132 0.003948
v -0.006530 0.015991 0.013238
v 0.006530 0.015991 0.013238
v 0.006530 0.021469 0.013238
v -0.006530 0.021469 0.013238
v 0.006530 0.015991 -0.013238
v -0.006530 0.015991 -0.013238
v -0.006530 0.021469 -0.013238
v 0.006530 0.021469 -0.013238
v 0.013238 0.015991 0.006530
v 0.013238 0.015991 -0.006530
v 0.013238 0.021469 -0.006530
v 0.013238 0.021469 0.006530
v -0.013238 0.015991 -0.006530
v -0.013238 0.015991 0.006530
v -0.013238 0.021469 0.006530
v -0.013238 0.021469 -0.006530
v -0.004493 0.016845 0.018975
v 0.004493 0.016845 0.018975
v 0.004493 0.020615 0.018975
v -0.004493 0.020615 0.018975
v 0.004493 0.016845 -0.018975
v -0.004493 0.016845 -0.018975
v -0.004493 0.020615 -0.018975
v 0.004493 0.020615 -0.018975
v 0.018975 0.016845 0.004493
v 0.018975 0.016845 -0.004493
v 0.018975 0.020615 -0.004493
v 0.018975 0.020615 0.004493
v -0.018975 0.016845 -0.004493
v -0.018975 0.016845 0.004493
v -0.018975 0.020615 0.004493
v -0.018975 0.020615 -0.004493
v 0.005989 0.016218 0.024666
v -0.005989 0.016218 0.024666
v 0.005989 0.021242 0.024666
v -0.005989 0.021242 0.024666
v -0.005989 0.016218 -0.024666
v 0.005989 0.016218 -0.024666
v -0.005989 0.021242 -0.024666
v 0.005989 0.021242 -0.024666
v 0.024666 0.016218 -0.005989
v 0.024666 0.016218 0.005989
v 0.024666 0.021242 -0.005989
v 0.024666 0.021242 0.005989
v -0.024666 0.016218 0.005989
v -0.024666 0.016218 -0.005989
v -0.024666 0.021242 0.005989
v -0.024666 0.021242 -0.005989
v 0.008869 0.017350 0.031608
v -0.008869 0.017350 0.031608
v 0.008869 0.020110 0.031608
v -0.008869 0.020110 0.031608
v -0.008869 0.017350 -0.031607
v 0.008869 0.017350 -0.031607
v -0.008869 0.020110 -0.031607
v 0.008869 0.020110 -0.031607
v 0.031608 0.017350 -0.008869
v 0.031608 0.017350 0.008869
v 0.031608 0.020110 -0.008869
v 0.031608 0.020110 0.008869
v -0.031608 0.017350 0.008869
v -0.031608 0.017350 -0.008869
v -0.031608 0.020110 0.008869
v -0.031608 0.020110 -0.008869
v 0.015076 0.021382 0.385426
v -0.014739 0.015424 0.385430
v 0.014535 0.024089 0.385423
v -0.015279 0.018131 0.385427
v -0.015076 0.021382 -0.385426
v 0.014738 0.015424 -0.385430
v -0.014535 0.024089 -0.385423
v 0.015279 0.018131 -0.385426
v 0.385426 0.021382 -0.015076
v 0.385430 0.015424 0.014739
v 0.385422 0.024089 -0.014535
v 0.385426 0.018131 0.015279
v -0.385426 0.021382 0.015076
v -0.385430 0.015424 -0.014739
v -0.385423 0.024089 0.014535
v -0.385426 0.018131 -0.015279
v 0.006431 0.019671 0.397766
v -0.023376 0.013714 0.397096
v 0.005890 0.022378 0.397762
v -0.023917 0.016421 0.397092
v -0.006431 0.019671 -0.397766
v 0.023376 0.013714 -0.397096
v -0.005890 0.022378 -0.397762
v 0.023917 0.016421 -0.397092
v 0.397766 0.019671 -0.006431
v 0.397096 0.013714 0.023376
v 0.397762 0.022378 -0.005890
v 0.397092 0.016421 0.023917
v -0.397766 0.019671 0.006431
v -0.397096 0.013714 -0.023376
v -0.397762 0.022378 0.005890
v -0.397092 0.016421 -0.023917
vn -1.0000 -0.0000 -0.0000
vn -0.0000 -0.0000 -1.0000
vn 1.0000 -0.0000 -0.0000
vn -0.0000 -0.0000 1.0000
vn -0.0000 -1.0000 -0.0000
vn -0.6894 -0.7244 -0.0000
vn -0.0000 -0.7244 0.6894
vn -0.0000 -0.7244 -0.6894
vn 0.6894 -0.7244 -0.0000
vn 0.5245 0.8514 -0.0000
vn -0.5245 0.8514 -0.0000
vn -0.0000 0.8514 0.5245
vn -0.0000 0.8514 -0.5245
vn -0.0000 -0.8713 0.4907
vn -0.0000 -0.8713 -0.4907
vn 0.4907 -0.8713 -0.0000
vn -0.4907 -0.8713 -0.0000
vn -0.0000 0.8534 0.5212
vn -0.0000 1.0000 -0.0000
vn -0.0000 0.8534 -0.5212
vn 0.5212 0.8534 -0.0000
vn -0.5212 0.8534 -0.0000
vn -0.1609 0.9870 -0.0000
vn -0.0000 -0.9659 0.2589
vn 0.8426 -0.0000 0.5385
vn -0.0000 0.9659 0.2590
vn -0.8426 -0.0000 0.5385
vn -0.0000 0.9870 -0.1609
vn -0.0000 -0.9659 -0.2589
vn -0.8426 -0.0000 -0.5385
vn -0.0000 0.9659 -0.2590
vn 0.8426 -0.0000 -0.5385
vn 0.3833 -0.0000 0.9236
vn 0.2589 -0.9659 -0.0000
vn 0.5385 -0.0000 -0.8426
vn 0.2590 0.9659 -0.0000
vn 0.5385 -0.0000 0.8426
vn -0.9236 -0.0000 0.3833
vn -0.2589 -0.9659 -0.0000
vn -0.5385 -0.0000 0.8426
vn -0.2590 0.9659 -0.0000
vn -0.5385 -0.0000 -0.8426
vn -0.1096 -0.9940 -0.0000
vn -0.0000 -0.9891 0.1474
vn 0.9423 -0.0000 0.3347
vn -0.0000 0.9891 0.1474
vn -0.9423 -0.0000 0.3347
vn 0.9671 -0.0000 -0.2542
vn -0.0000 -0.9891 -0.1474
vn -0.9423 -0.0000 -0.3347
vn -0.0000 0.9891 -0.1474
vn 0.9423 -0.0000 -0.3347
vn -0.0000 -0.9940 0.1096
vn 0.1474 -0.9891 -0.0000
vn 0.3347 -0.0000 -0.9423
vn 0.1474 0.9891 -0.0000
vn 0.3347 -0.0000 0.9423
vn -0.0000 -0.9940 -0.1096
vn -0.1474 -0.9891 -0.0000
vn -0.3347 -0.0000 0.9423
vn -0.1474 0.9891 -0.0000
vn -0.3347 -0.0000 -0.9423
vn -0.9671 -0.0000 0.2542
vn 0.1096 -0.9940 -0.0000
vn -0.0000 0.9940 -0.1096
vn -0.2543 -0.0000 -0.9671
vn -0.0000 0.9940 0.1096
vn 0.2542 -0.0000 0.9671
vn -0.9671 -0.0000 -0.2542
vn -0.1096 0.9940 -0.0000
vn 0.9671 -0.0000 0.2543
vn 0.1096 0.9940 -0.0000
vn -0.2542 -0.0000 0.9671
vn 0.2543 -0.0000 -0.9671
vn 0.1243 -0.9922 0.0029
vn 0.9950 -0.0984 0.0178
vn 0.0029 0.9922 -0.1243
vn 0.1243 0.9922 0.0029
vn 0.9236 -0.0000 0.3833
vn -0.0000 -0.9870 0.1609
vn 0.3833 -0.0000 -0.9236
vn 0.1609 -0.9870 -0.0000
vn 0.9236 -0.0000 -0.3833
vn -0.3833 -0.0000 -0.9236
vn -0.0000 0.9870 0.1609
vn 0.1609 0.9870 -0.0000
vn -0.9236 -0.0000 -0.3833
vn -0.3833 -0.0000 0.9236
vn -0.0000 -0.9870 -0.1609
vn -0.1609 -0.9870 -0.0000
vn 0.6025 -0.1571 -0.7825
vn 0.1959 -0.9806 0.0013
vn 0.7825 -0.1572 0.6025
vn 0.0013 0.9806 -0.1959
vn 0.0178 -0.0984 -0.9950
vn 0.0029 -0.9922 -0.1243
vn 0.9950 0.0984 -0.0178
vn -0.0178 0.0984 -0.9950
vn -0.1243 0.9922 -0.0029
vn -0.0029 0.9922 0.1243
vn -0.9950 -0.0984 -0.0178
vn -0.0178 -0.0984 0.9950
vn -0.1243 -0.9922 -0.0029
vn -0.0029 -0.9922 0.1243
vn -0.9950 0.0984 0.0178
vn 0.0178 0.0984 0.9950
vn -0.9998 -0.0031 -0.0219
vn 0.9998 -0.0030 0.0219
vn 0.0219 -0.0030 -0.9998
vn -0.0219 -0.0030 0.9998
vn 0.0013 -0.9806 -0.1959
vn 0.7978 0.1602 0.5812
vn 0.5812 0.1602 -0.7978
vn -0.1959 0.9806 -0.0013
vn -0.0013 0.9806 0.1959
vn -0.7825 -0.1572 -0.6025
vn -0.6024 -0.1572 0.7825
vn -0.1959 -0.9806 -0.0013
vn -0.0013 -0.9806 0.1959
vn -0.7979 0.1602 -0.5812
vn -0.5812 0.1602 0.7979
vn 0.1959 0.9806 0.0013
vt 0.115055 0.510130
vt 0.115055 0.500008
vt 0.125168 0.500008
vt 0.125168 0.510130
vt 0.135280 0.510130
vt 0.135280 0.500008
vt 0.145203 0.500008
vt 0.145203 0.510130
vt 0.125168 0.510130
vt 0.125168 0.500008
vt 0.135280 0.500008
vt 0.135280 0.510130
vt 0.094812 0.510130
vt 0.094812 0.500008
vt 0.104935 0.500008
vt 0.104935 0.510130
vt 0.115055 0.510130
vt 0.115055 0.500008
vt 0.250204 0.257243
vt 0.257208 0.249935
vt 0.261102 0.249818
vt 0.250253 0.261139
vt 0.249900 0.242932
vt 0.249782 0.238971
vt 0.242897 0.250241
vt 0.238934 0.250292
vt 0.761088 0.250248
vt 0.749752 0.261081
vt 0.749866 0.256049
vt 0.756056 0.250134
vt 0.162317 0.509050
vt 0.153764 0.509050
vt 0.153764 0.500008
vt 0.162317 0.500008
vt 0.738919 0.249745
vt 0.750255 0.238912
vt 0.750141 0.243944
vt 0.743951 0.249859
vt 0.034373 0.505740
vt 0.025814 0.505740
vt 0.020025 0.500008
vt 0.040046 0.500008
vt 0.153764 0.509050
vt 0.145203 0.509050
vt 0.153764 0.500008
vt 0.179262 0.509050
vt 0.170869 0.509050
vt 0.170869 0.500008
vt 0.179262 0.500008
vt 0.170870 0.509050
vt 0.162317 0.509050
vt 0.162317 0.500008
vt 0.170870 0.500008
vt 0.067429 0.500008
vt 0.067429 0.520012
vt 0.053737 0.520012
vt 0.053737 0.500008
vt 0.025814 0.514301
vt 0.034373 0.514301
vt 0.040046 0.520032
vt 0.020025 0.520032
vt 0.000000 0.520032
vt 0.000000 0.500008
vt 0.006628 0.506636
vt 0.006628 0.513404
vt 0.081120 0.500008
vt 0.081120 0.520012
vt 0.067429 0.520012
vt 0.067429 0.500008
vt 0.053737 0.500008
vt 0.053737 0.520032
vt 0.040046 0.520032
vt 0.040046 0.500008
vt 0.094812 0.500008
vt 0.094812 0.519638
vt 0.081120 0.519638
vt 0.081120 0.500008
vt 0.013396 0.506636
vt 0.013396 0.513404
vt 0.020025 0.520032
vt 0.739107 0.231164
vt 0.731684 0.238257
vt 0.725788 0.235661
vt 0.736781 0.225155
vt 0.253816 0.237977
vt 0.261898 0.245722
vt 0.506584 0.832909
vt 0.507540 0.829308
vt 0.512236 0.829327
vt 0.513161 0.832936
vt 0.754340 0.238109
vt 0.762075 0.246203
vt 0.526315 0.500013
vt 0.525365 0.503414
vt 0.520669 0.503400
vt 0.519738 0.499993
vt 0.731171 0.260893
vt 0.738264 0.268316
vt 0.735668 0.274212
vt 0.725162 0.263219
vt 0.246195 0.262109
vt 0.238113 0.254365
vt 0.513161 0.832909
vt 0.514117 0.829308
vt 0.518813 0.829327
vt 0.519738 0.832936
vt 0.745667 0.261884
vt 0.737932 0.253790
vt 0.532893 0.500013
vt 0.531942 0.503414
vt 0.527246 0.503400
vt 0.526316 0.499993
vt 0.505503 0.819837
vt 0.501197 0.819819
vt 0.502190 0.813876
vt 0.504557 0.813886
vt 0.237940 0.246235
vt 0.245686 0.238151
vt 0.546047 0.827101
vt 0.547003 0.823223
vt 0.551699 0.823242
vt 0.552624 0.827128
vt 0.761891 0.254333
vt 0.753797 0.262068
vt 0.539470 0.500013
vt 0.538519 0.503515
vt 0.533823 0.503500
vt 0.532893 0.499993
vt 0.518658 0.819520
vt 0.514351 0.819502
vt 0.515345 0.813672
vt 0.517711 0.813682
vt 0.262071 0.253852
vt 0.254325 0.261935
vt 0.500007 0.833123
vt 0.500962 0.829615
vt 0.505658 0.829634
vt 0.506584 0.833149
vt 0.738116 0.245660
vt 0.746210 0.237925
vt 0.546047 0.500013
vt 0.545097 0.503006
vt 0.540401 0.502992
vt 0.539470 0.499993
vt 0.240919 0.236002
vt 0.235589 0.241563
vt 0.231187 0.239121
vt 0.238291 0.231708
vt 0.258469 0.235626
vt 0.264030 0.240954
vt 0.508293 0.824320
vt 0.511524 0.824334
vt 0.759102 0.235975
vt 0.764424 0.241543
vt 0.524618 0.508246
vt 0.521387 0.508236
vt 0.507774 0.819502
vt 0.512081 0.819520
vt 0.241523 0.264442
vt 0.235962 0.259114
vt 0.514870 0.824320
vt 0.518101 0.824334
vt 0.740905 0.264018
vt 0.735583 0.258450
vt 0.531196 0.508246
vt 0.527965 0.508236
vt 0.239080 0.268858
vt 0.231668 0.261756
vt 0.547757 0.818060
vt 0.550988 0.818074
vt 0.764025 0.259095
vt 0.758457 0.264417
vt 0.537772 0.508427
vt 0.534541 0.508417
vt 0.260926 0.231223
vt 0.268338 0.238326
vt 0.264403 0.258505
vt 0.259074 0.264066
vt 0.501715 0.824698
vt 0.504946 0.824711
vt 0.735982 0.240898
vt 0.741550 0.235576
vt 0.544351 0.507479
vt 0.541120 0.507469
vt 0.268819 0.260960
vt 0.261715 0.268374
vt 0.761743 0.231677
vt 0.768836 0.239100
vt 0.547238 0.813529
vt 0.551545 0.813547
vt 0.525141 0.513179
vt 0.520834 0.513166
vt 0.768323 0.261736
vt 0.760900 0.268829
vt 0.531718 0.513179
vt 0.527411 0.513166
vt 0.538295 0.513309
vt 0.533988 0.513296
vt 0.544873 0.512516
vt 0.540566 0.512503
vt 0.274225 0.235725
vt 0.263248 0.225206
vt 0.469205 0.002493
vt 0.487724 0.020234
vt 0.528363 0.519224
vt 0.530729 0.519231
vt 0.531460 0.822459
vt 0.529139 0.822469
vt 0.512269 0.020182
vt 0.530749 0.002527
vt 0.520189 0.487731
vt 0.502534 0.469251
vt 0.543883 0.518835
vt 0.541517 0.518827
vt 0.225170 0.236775
vt 0.235691 0.225796
vt 0.508768 0.813672
vt 0.511134 0.813682
vt 0.548230 0.808188
vt 0.550597 0.808198
vt 0.764339 0.225781
vt 0.774845 0.236774
vt 0.774219 0.264332
vt 0.763226 0.274838
vt 0.524152 0.519231
vt 0.521785 0.519224
vt 0.537306 0.519261
vt 0.534940 0.519254
vt 0.236733 0.274851
vt 0.225756 0.264332
vt 0.274810 0.263282
vt 0.264290 0.274261
vt 0.542295 0.817236
vt 0.544615 0.817155
vt 0.546047 0.828425
vt 0.543726 0.828507
vt 0.481892 0.000000
vt 0.500007 0.018154
vt 0.532893 0.832785
vt 0.530572 0.832796
vt 0.500007 0.018068
vt 0.518083 0.000000
vt 0.002490 0.030765
vt 0.020236 0.012373
vt 0.506584 0.510886
vt 0.508904 0.510913
vt 0.546047 0.511820
vt 0.548367 0.511919
vt 0.979818 0.012262
vt 0.997473 0.030742
vt 0.987738 0.479811
vt 0.969258 0.497466
vt 0.524882 0.822459
vt 0.522562 0.822469
vt 0.538036 0.822575
vt 0.535715 0.822566
vt 0.030686 0.497479
vt 0.012300 0.479865
vt 0.497401 0.469206
vt 0.479788 0.487726
vt 0.513161 0.510886
vt 0.515482 0.510913
vt 0.500007 0.510577
vt 0.502327 0.510584
vt 0.181628 0.526065
vt 0.181628 0.500008
vt 0.183995 0.500008
vt 0.183995 0.526065
vt 0.183995 0.526065
vt 0.183995 0.500008
vt 0.186361 0.500008
vt 0.186361 0.526065
vt 0.186361 0.525697
vt 0.186361 0.500023
vt 0.188726 0.500008
vt 0.188726 0.525682
vt 0.179262 0.526065
vt 0.179262 0.500008
vt 0.181628 0.500008
vt 0.181628 0.526065
vt 0.000000 0.018115
vt 0.018159 0.000127
vt 0.508097 0.499993
vt 0.510417 0.500020
vt 0.547562 0.499993
vt 0.549883 0.500091
vt 0.981932 0.000000
vt 1.000000 0.018076
vt 1.000000 0.481925
vt 0.981924 0.499993
vt 0.526315 0.832785
vt 0.523995 0.832796
vt 0.539470 0.832592
vt 0.537149 0.832583
vt 0.018037 0.500008
vt 0.000055 0.481982
vt 0.499929 0.481893
vt 0.481903 0.500008
vt 0.514674 0.499993
vt 0.516994 0.500020
vt 0.501518 0.499993
vt 0.503839 0.500000
vt 0.518075 0.499993
vt 0.500007 0.481917
s 1
usemtl Material.027
f 1/1/1 2/2/1 4/3/1 3/4/1
f 3/5/2 4/6/2 8/7/2 7/8/2
f 7/9/3 8/10/3 6/11/3 5/12/3
f 5/13/4 6/14/4 2/15/4 1/16/4
f 3/17/5 7/16/5 5/15/5 1/18/5
f 4/19/6 2/20/6 9/21/6 10/22/6
f 2/20/7 6/23/7 12/24/7 9/21/7
f 8/25/8 4/19/8 10/22/8 11/26/8
f 6/23/9 8/25/9 11/26/9 12/24/9
f 16/27/10 15/28/10 19/29/10 20/30/10
f 18/31/1 17/32/1 21/33/1 22/34/1
f 14/35/11 13/36/11 17/37/11 18/38/11
f 13/36/12 16/27/12 20/30/12 17/37/12
f 15/28/13 14/35/13 18/38/13 19/29/13
f 21/39/14 24/40/14 28/41/14 25/42/14
f 17/43/4 20/44/4 24/7/4 21/45/4
f 19/46/2 18/47/2 22/48/2 23/49/2
f 20/50/3 19/51/3 23/52/3 24/53/3
f 28/54/3 27/55/3 31/56/3 32/57/3
f 23/58/15 22/59/15 26/60/15 27/61/15
f 24/40/16 23/58/16 27/61/16 28/41/16
f 22/59/17 21/39/17 25/42/17 26/60/17
f 29/62/18 32/63/18 36/64/18 33/65/18
f 26/66/1 25/67/1 29/68/1 30/69/1
f 25/70/4 28/71/4 32/72/4 29/73/4
f 27/74/2 26/75/2 30/76/2 31/77/2
f 35/78/19 34/79/19 33/65/19 36/64/19
f 31/41/20 30/80/20 34/79/20 35/78/20
f 32/63/21 31/41/21 35/78/21 36/64/21
f 30/80/22 29/62/22 33/65/22 34/79/22
f 83/81/23 84/82/23 100/83/23 99/84/23
f 12/24/24 38/85/24 37/86/24 9/21/24
f 16/87/25 39/88/25 38/89/25 12/90/25
f 13/36/26 40/91/26 39/92/26 16/27/26
f 9/93/27 37/94/27 40/95/27 13/96/27
f 75/97/28 76/98/28 92/99/28 91/100/28
f 10/22/29 42/101/29 41/102/29 11/26/29
f 14/103/30 43/104/30 42/105/30 10/106/30
f 15/28/31 44/107/31 43/108/31 14/35/31
f 11/109/32 41/110/32 44/111/32 15/112/32
f 81/113/33 83/114/33 99/115/33 97/116/33
f 11/26/34 46/117/34 45/118/34 12/24/34
f 15/119/35 47/120/35 46/121/35 11/122/35
f 16/27/36 48/123/36 47/124/36 15/28/36
f 12/125/37 45/126/37 48/127/37 16/128/37
f 73/129/38 75/130/38 91/131/38 89/132/38
f 9/21/39 50/133/39 49/134/39 10/22/39
f 13/135/40 51/136/40 50/137/40 9/138/40
f 14/35/41 52/139/41 51/140/41 13/36/41
f 10/141/42 49/142/42 52/143/42 14/144/42
f 61/145/43 62/146/43 77/147/43 78/148/43
f 38/85/44 54/149/44 53/150/44 37/86/44
f 39/88/45 55/151/45 54/152/45 38/89/45
f 40/91/46 56/153/46 55/154/46 39/92/46
f 37/94/47 53/155/47 56/156/47 40/95/47
f 54/152/48 55/151/48 71/157/48 69/158/48
f 42/101/49 58/159/49 57/160/49 41/102/49
f 43/104/50 59/161/50 58/162/50 42/105/50
f 44/107/51 60/163/51 59/164/51 43/108/51
f 41/110/52 57/165/52 60/166/52 44/111/52
f 57/160/53 58/159/53 73/167/53 74/168/53
f 46/117/54 62/146/54 61/145/54 45/118/54
f 47/120/55 63/169/55 62/170/55 46/121/55
f 48/123/56 64/171/56 63/172/56 47/124/56
f 45/126/57 61/173/57 64/174/57 48/127/57
f 53/150/58 54/149/58 69/175/58 70/176/58
f 50/133/59 66/177/59 65/178/59 49/134/59
f 51/136/60 67/179/60 66/180/60 50/137/60
f 52/139/61 68/181/61 67/182/61 51/140/61
f 49/142/62 65/183/62 68/184/62 52/143/62
f 58/162/63 59/161/63 75/130/63 73/129/63
f 65/178/64 66/177/64 81/185/64 82/186/64
f 55/154/65 56/153/65 72/187/65 71/188/65
f 62/170/66 63/169/66 79/189/66 77/190/66
f 59/164/67 60/163/67 76/98/67 75/97/67
f 66/180/68 67/179/68 83/114/68 81/113/68
f 56/156/69 53/155/69 70/191/69 72/192/69
f 63/172/70 64/171/70 80/193/70 79/194/70
f 60/166/71 57/165/71 74/195/71 76/196/71
f 67/182/72 68/181/72 84/82/72 83/81/72
f 64/174/73 61/173/73 78/197/73 80/198/73
f 68/184/74 65/183/74 82/199/74 84/200/74
f 86/201/75 85/202/75 101/203/75 102/204/75
f 92/205/76 90/206/76 106/207/76 108/208/76
f 99/84/77 100/83/77 116/209/77 115/210/77
f 91/100/78 92/99/78 108/211/78 107/212/78
f 76/196/79 74/195/79 90/206/79 92/205/79
f 70/176/80 69/175/80 85/202/80 86/201/80
f 84/200/81 82/199/81 98/213/81 100/214/81
f 78/148/82 77/147/82 93/215/82 94/216/82
f 69/158/83 71/157/83 87/217/83 85/218/83
f 77/190/84 79/189/84 95/219/84 93/220/84
f 71/188/85 72/187/85 88/221/85 87/222/85
f 79/194/86 80/193/86 96/223/86 95/224/86
f 72/192/87 70/191/87 86/225/87 88/226/87
f 80/198/88 78/197/88 94/227/88 96/228/88
f 74/168/89 73/167/89 89/229/89 90/230/89
f 82/186/90 81/185/90 97/231/90 98/232/90
f 116/233/91 114/234/91 130/235/91 132/236/91
f 102/204/92 101/203/92 117/237/92 118/238/92
f 108/208/93 106/207/93 122/239/93 124/240/93
f 115/210/94 116/209/94 132/241/94 131/242/94
f 100/214/95 98/213/95 114/234/95 116/233/95
f 94/216/96 93/215/96 109/243/96 110/244/96
f 85/218/97 87/217/97 103/245/97 101/246/97
f 93/220/98 95/219/98 111/247/98 109/248/98
f 87/222/99 88/221/99 104/249/99 103/250/99
f 95/224/100 96/223/100 112/251/100 111/252/100
f 88/226/101 86/225/101 102/253/101 104/254/101
f 96/228/102 94/227/102 110/255/102 112/256/102
f 90/230/103 89/229/103 105/257/103 106/258/103
f 98/232/104 97/231/104 113/259/104 114/260/104
f 89/132/105 91/131/105 107/261/105 105/262/105
f 97/116/106 99/115/106 115/263/106 113/264/106
f 130/265/107 129/266/107 131/267/107 132/268/107
f 126/269/108 125/270/108 127/271/108 128/272/108
f 122/273/109 121/274/109 123/275/109 124/276/109
f 118/277/110 117/278/110 119/279/110 120/280/110
f 110/244/111 109/243/111 125/281/111 126/282/111
f 101/246/112 103/245/112 119/283/112 117/284/112
f 109/248/113 111/247/113 127/285/113 125/286/113
f 103/250/114 104/249/114 120/287/114 119/288/114
f 111/252/115 112/251/115 128/289/115 127/290/115
f 104/254/116 102/253/116 118/291/116 120/292/116
f 112/256/117 110/255/117 126/293/117 128/294/117
f 106/258/118 105/257/118 121/295/118 122/296/118
f 114/260/119 113/259/119 129/297/119 130/298/119
f 105/262/120 107/261/120 123/299/120 121/300/120
f 113/264/121 115/263/121 131/301/121 129/302/121
f 107/212/122 108/211/122 124/303/122 123/304/122
