# Blender 5.1.1
# www.blender.org
mtllib lampara2.mtl
o Plane.001
v -2.926109 -0.650361 1.000000
v -2.926109 -0.002330 1.000000
v -2.926109 -0.650359 -1.000000
v -2.926109 -0.002329 -1.000000
v 2.926109 -0.650361 1.000000
v 2.926109 -0.002330 1.000000
v 2.926109 -0.650359 -1.000000
v 2.926109 -0.002329 -1.000000
vn -1.0000 -0.0000 -0.0000
vn -0.0000 -0.0000 -1.0000
vn 1.0000 -0.0000 -0.0000
vn -0.0000 -0.0000 1.0000
vn -0.0000 1.0000 -0.0000
vt 0.942633 0.955616
vt 0.792147 0.955616
vt 0.792147 0.464443
vt 0.942633 0.464443
vt 0.641660 0.973270
vt 0.491173 0.973270
vt 0.491173 0.464443
vt 0.641660 0.464443
vt 0.150487 1.000000
vt -0.000000 1.000000
vt 0.000000 0.508827
vt 0.150487 0.508827
vt 0.792147 0.973270
vt 0.641660 0.973270
vt 0.641660 0.464443
vt 0.792147 0.464443
vt 0.491173 0.000000
vt 0.491173 0.508827
vt 0.000000 0.508827
vt 0.000000 0.000000
s 0
usemtl Material.001
f 1/1/1 2/2/1 4/3/1 3/4/1
f 3/5/2 4/6/2 8/7/2 7/8/2
f 7/9/3 8/10/3 6/11/3 5/12/3
f 5/13/4 6/14/4 2/15/4 1/16/4
f 8/17/5 4/18/5 2/19/5 6/20/5
o Plane.002
v -2.525497 -0.326345 0.627577
v 2.525497 -0.326345 0.627577
v -2.525497 -0.326344 -0.627577
v 2.525497 -0.326344 -0.627577
vn -0.0000 1.0000 -0.0000
vt 0.491173 0.464443
vt 0.491173 0.000000
vt 0.955616 0.000000
vt 0.955616 0.464443
s 0
usemtl Material.003
f 9/21/6 10/22/6 12/23/6 11/24/6
