# Blender 5.1.1
# www.blender.org
mtllib lampara1.mtl
o Octagonal_concrete_lamp.001
v -0.011820 -0.055886 0.015403
v -0.002535 -0.055886 0.019249
v -0.007431 -0.055886 0.017937
v 0.002818 -0.055886 0.023232
v 0.011819 -0.055886 0.015403
v 0.015403 -0.055886 0.011819
v 0.022876 -0.055886 0.003174
v 0.021302 -0.055886 0.009049
v 0.022876 -0.055886 -0.002908
v 0.018261 -0.055886 -0.014050
v 0.013961 -0.055886 -0.018351
v 0.002819 -0.055886 -0.022966
v 0.008693 -0.055886 -0.021392
v -0.014406 -0.055886 -0.018351
v -0.009139 -0.055886 -0.021392
v -0.015404 -0.055886 -0.011820
v -0.019250 -0.055886 -0.002535
v -0.017938 -0.055886 -0.007430
v -0.019250 -0.055886 0.002534
v -0.018707 -0.055886 0.014316
v -0.021748 -0.055886 0.009049
v -0.015571 -0.161619 0.116410
v -0.071590 -0.161619 0.093206
v -0.045108 -0.161619 0.108496
v 0.071145 -0.161619 0.093206
v 0.044663 -0.161619 0.108495
v 0.116054 -0.161619 0.015481
v 0.092850 -0.161619 0.071500
v 0.108140 -0.161619 0.045018
v 0.092850 -0.161619 -0.071235
v 0.116054 -0.161619 -0.015216
v 0.015125 -0.161619 -0.116144
v 0.071144 -0.161619 -0.092940
v 0.044662 -0.161618 -0.108230
v -0.071591 -0.161619 -0.092940
v -0.015572 -0.161619 -0.116144
v -0.045109 -0.161618 -0.108229
v -0.116500 -0.161619 -0.015215
v -0.093296 -0.161619 -0.071234
v -0.108586 -0.161618 -0.044752
v -0.093296 -0.161619 0.071501
v -0.116500 -0.161619 0.015482
v -0.002068 -0.051475 0.004991
v -0.000001 -0.051475 0.005402
v 0.002067 -0.051475 0.004991
v 0.003819 -0.051475 0.003820
v 0.004990 -0.051475 0.002067
v 0.005401 -0.051475 -0.000000
v 0.004990 -0.051475 -0.002067
v 0.003819 -0.051475 -0.003820
v 0.002067 -0.051475 -0.004991
v -0.000001 -0.051475 -0.005402
v -0.002068 -0.051475 -0.004991
v -0.003820 -0.051475 -0.003820
v -0.004991 -0.051475 -0.002067
v -0.005402 -0.051475 -0.000000
v -0.004991 -0.051475 0.002067
v -0.003820 -0.051475 0.003820
v -0.000000 -0.022516 0.005402
v 0.004990 -0.022516 0.002067
v 0.005402 -0.022516 -0.000000
v 0.004990 -0.022516 -0.002067
v -0.000000 -0.022516 -0.005402
v -0.005403 -0.022516 -0.000000
v -0.002068 -0.022516 0.004991
v 0.002067 -0.022516 0.004991
v 0.003819 -0.022516 0.003820
v 0.003819 -0.022516 -0.003820
v 0.002067 -0.022516 -0.004991
v -0.002068 -0.022516 -0.004991
v -0.003820 -0.022516 -0.003820
v -0.004991 -0.022516 -0.002067
v -0.004991 -0.022516 0.002067
v -0.003820 -0.022516 0.003820
v -0.002068 -0.011718 0.004991
v -0.000000 -0.011718 0.005402
v 0.002067 -0.011718 0.004991
v 0.003819 -0.011718 0.003820
v 0.004991 -0.011718 0.002067
v 0.005402 -0.011718 -0.000000
v 0.004991 -0.011718 -0.002067
v 0.003819 -0.011718 -0.003820
v 0.002067 -0.011718 -0.004991
v -0.000000 -0.011718 -0.005402
v -0.002068 -0.011718 -0.004991
v -0.003820 -0.011718 -0.003820
v -0.004991 -0.011718 -0.002067
v -0.005403 -0.011718 -0.000000
v -0.004991 -0.011718 0.002067
v -0.003820 -0.011718 0.003820
v -0.010288 -0.011718 0.024836
v -0.000000 -0.011718 0.026883
v 0.010287 -0.011718 0.024836
v 0.019008 -0.011718 0.019009
v 0.024836 -0.011718 0.010287
v 0.026882 -0.011718 -0.000000
v 0.024836 -0.011718 -0.010288
v 0.019008 -0.011718 -0.019009
v 0.010287 -0.011718 -0.024836
v -0.000000 -0.011718 -0.026883
v -0.010288 -0.011718 -0.024836
v -0.019009 -0.011718 -0.019009
v -0.024837 -0.011718 -0.010288
v -0.026883 -0.011718 -0.000000
v -0.024837 -0.011718 0.010287
v -0.019009 -0.011718 0.019009
v -0.010288 -0.000763 0.024836
v -0.000000 -0.000763 0.026883
v 0.010287 -0.000763 0.024836
v 0.019008 -0.000763 0.019009
v 0.024836 -0.000763 0.010287
v 0.026882 -0.000763 -0.000000
v 0.024836 -0.000763 -0.010288
v 0.019008 -0.000763 -0.019009
v 0.010287 -0.000763 -0.024836
v -0.000000 -0.000763 -0.026883
v -0.010288 -0.000763 -0.024836
v -0.019009 -0.000763 -0.019009
v -0.024837 -0.000763 -0.010288
v -0.026883 -0.000763 -0.000000
v -0.024837 -0.000763 0.010287
v -0.019009 -0.000763 0.019009
v -0.008288 -0.051475 0.020008
v -0.000000 -0.051475 0.021656
v 0.008287 -0.051475 0.020008
v 0.015313 -0.051475 0.015313
v 0.020008 -0.051475 0.008287
v 0.021656 -0.051475 -0.000000
v 0.020008 -0.051475 -0.008288
v 0.015313 -0.051475 -0.015314
v 0.008287 -0.051475 -0.020008
v -0.000001 -0.051475 -0.021657
v -0.008288 -0.051475 -0.020008
v -0.015314 -0.051475 -0.015314
v -0.020009 -0.051475 -0.008288
v -0.021657 -0.051475 -0.000000
v -0.020009 -0.051475 0.008287
v -0.015314 -0.051475 0.015313
v -0.008288 -0.055439 0.020008
v -0.000000 -0.055439 0.021656
v 0.008287 -0.055439 0.020008
v 0.015313 -0.055439 0.015313
v 0.020008 -0.055439 0.008287
v 0.021656 -0.055439 -0.000000
v 0.020008 -0.055439 -0.008288
v 0.015313 -0.055439 -0.015314
v 0.008287 -0.055439 -0.020008
v -0.000001 -0.055439 -0.021657
v -0.008288 -0.055439 -0.020008
v -0.015314 -0.055439 -0.015314
v -0.020009 -0.055439 -0.008288
v -0.021657 -0.055439 -0.000000
v -0.020009 -0.055439 0.008287
v -0.015314 -0.055439 0.015313
v -0.005950 -0.181501 -0.014363
v 0.008693 -0.055886 0.021658
v 0.021302 -0.055886 -0.008783
v -0.002534 -0.055886 -0.019250
v 0.015126 -0.161619 0.116410
v 0.108139 -0.161618 -0.044753
v -0.108585 -0.161619 0.045019
v 0.121771 -0.161619 0.093691
v 0.141818 -0.161619 0.058967
v 0.152195 -0.161619 0.020239
v -0.093781 -0.161619 0.122127
v -0.059057 -0.161619 0.142174
v -0.020329 -0.161619 0.152551
v 0.058613 -0.161619 0.142173
v 0.093336 -0.161619 0.122126
v -0.020330 -0.161619 -0.152285
v -0.059059 -0.161618 -0.141908
v -0.093782 -0.161619 -0.121860
v -0.142264 -0.161618 -0.058702
v -0.152641 -0.161619 -0.019973
v -0.122217 -0.161619 -0.093425
v 0.058612 -0.161618 -0.141908
v 0.019883 -0.161619 -0.152285
v 0.093335 -0.161619 -0.121861
v -0.122216 -0.161619 0.093692
v 0.152195 -0.161619 -0.019974
v 0.121770 -0.161619 -0.093426
v -0.152641 -0.161619 0.020240
v -0.142263 -0.161619 0.058969
v 0.019884 -0.161619 0.152551
v 0.141818 -0.161618 -0.058703
vn -0.0000 1.0000 -0.0000
vn 0.7071 -0.0000 -0.7071
vn 0.3827 -0.0000 -0.9239
vn -0.3827 -0.0000 0.9239
vn -0.0000 -0.0000 1.0000
vn -0.7071 -0.0000 0.7071
vn -0.0000 -0.0000 -1.0000
vn 0.3827 -0.0000 0.9239
vn -0.3827 -0.0000 -0.9239
vn 0.7071 -0.0000 0.7071
vn -0.7071 -0.0000 -0.7071
vn 0.9239 -0.0000 0.3827
vn -0.9239 -0.0000 -0.3827
vn 1.0000 -0.0000 -0.0000
vn -1.0000 -0.0000 -0.0000
vn 0.9239 -0.0000 -0.3827
vn -0.9239 -0.0000 0.3827
vn -0.0000 -1.0000 -0.0000
vn -0.5817 -0.7769 0.2410
vn -0.6243 -0.7768 0.0822
vn -0.2740 -0.7807 -0.5616
vn -0.2628 -0.7806 -0.5671
vn -0.0549 -0.7807 -0.6225
vn -0.0413 -0.7808 -0.6234
vn 0.5710 -0.7861 0.2366
vn 0.5710 -0.7861 0.2365
vn 0.5103 -0.7818 0.3582
vn 0.5152 -0.7823 0.3502
vn -0.2410 -0.7769 0.5817
vn -0.3833 -0.7768 0.4996
vn -0.4996 -0.7768 0.3833
vn 0.6127 -0.7862 0.0807
vn 0.6127 -0.7862 0.0806
vn -0.4791 -0.7816 -0.3995
vn -0.4728 -0.7820 -0.4061
vn -0.5618 -0.7806 -0.2739
vn -0.5675 -0.7805 -0.2623
vn -0.0439 -0.7806 0.6235
vn -0.0567 -0.7805 0.6226
vn -0.6243 -0.7768 -0.0822
vn 0.6211 -0.7819 -0.0540
vn 0.6212 -0.7824 -0.0448
vn 0.5915 -0.7809 -0.2007
vn 0.5872 -0.7808 -0.2134
vn 0.0818 -0.7780 0.6229
vn 0.0820 -0.7780 0.6229
vn 0.2040 -0.7806 0.5908
vn 0.2157 -0.7805 0.5868
vn 0.4696 -0.7809 -0.4119
vn 0.4785 -0.7808 -0.4018
vn 0.4112 -0.7808 0.4704
vn 0.4011 -0.7806 0.4793
vn 0.3573 -0.7819 -0.5108
vn 0.3494 -0.7824 -0.5156
vn 0.1080 -0.7819 -0.6140
vn 0.1171 -0.7823 -0.6117
vn -0.3999 -0.7816 -0.4788
vn -0.4063 -0.7820 -0.4727
vn 0.2364 -0.7862 -0.5709
vn 0.2365 -0.7862 -0.5709
vt 0.059280 0.224825
vt 0.072261 0.176378
vt 0.097339 0.132942
vt 0.132942 0.097339
vt 0.176378 0.072261
vt 0.224825 0.059280
vt 0.275175 0.059280
vt 0.323622 0.072261
vt 0.367058 0.097339
vt 0.402661 0.132942
vt 0.427739 0.176378
vt 0.440720 0.224825
vt 0.440720 0.275175
vt 0.427739 0.323622
vt 0.402661 0.367058
vt 0.367058 0.402661
vt 0.323622 0.427739
vt 0.275175 0.440720
vt 0.224825 0.440720
vt 0.176378 0.427739
vt 0.132942 0.402661
vt 0.097339 0.367058
vt 0.072261 0.323622
vt 0.059280 0.275175
vt 0.509096 0.600907
vt 0.512290 0.600907
vt 0.512290 0.648406
vt 0.509096 0.648406
vt 0.500000 0.470487
vt 0.502445 0.470487
vt 0.502445 0.517986
vt 0.500000 0.517986
vt 0.509845 0.535697
vt 0.512290 0.535697
vt 0.512290 0.583196
vt 0.509845 0.583196
vt 0.500000 0.666117
vt 0.502445 0.666117
vt 0.502445 0.713616
vt 0.500000 0.713616
vt 0.505639 0.470487
vt 0.505639 0.517986
vt 0.505639 0.666117
vt 0.505639 0.713616
vt 0.509096 0.470487
vt 0.509096 0.517986
vt 0.509096 0.666117
vt 0.509096 0.713616
vt 0.512290 0.470487
vt 0.512290 0.517986
vt 0.512290 0.666117
vt 0.512290 0.713616
vt 0.500001 0.600907
vt 0.502445 0.600907
vt 0.502445 0.648406
vt 0.500000 0.648406
vt 0.500000 0.535697
vt 0.503194 0.535697
vt 0.503194 0.583196
vt 0.500000 0.583196
vt 0.505639 0.600907
vt 0.505639 0.648406
vt 0.506651 0.535697
vt 0.506651 0.583196
vt 0.505639 0.731327
vt 0.502445 0.731327
vt 0.509096 0.535697
vt 0.505639 0.535697
vt 0.509096 0.731327
vt 0.512290 0.535697
vt 0.512290 0.731327
vt 0.502445 0.666117
vt 0.500000 0.666117
vt 0.503194 0.600907
vt 0.500000 0.600907
vt 0.505639 0.666117
vt 0.506652 0.600907
vt 0.509096 0.666117
vt 0.509846 0.600907
vt 0.512290 0.666117
vt 0.502445 0.535697
vt 0.500000 0.535697
vt 0.512290 0.600907
vt 0.500000 0.731327
vt 0.538323 0.035879
vt 0.535879 0.038323
vt 0.506584 0.018749
vt 0.518749 0.006584
vt 0.550614 0.048169
vt 0.551937 0.044975
vt 0.586493 0.051848
vt 0.579909 0.067743
vt 0.534556 0.041518
vt 0.534556 0.044975
vt 0.500000 0.051848
vt 0.500000 0.034644
vt 0.551937 0.041518
vt 0.586493 0.034644
vt 0.535879 0.048169
vt 0.506584 0.067743
vt 0.550614 0.038323
vt 0.579909 0.018749
vt 0.538323 0.050614
vt 0.518749 0.079909
vt 0.548169 0.035879
vt 0.567743 0.006584
vt 0.541518 0.051937
vt 0.534644 0.086493
vt 0.544975 0.034556
vt 0.551848 0.000000
vt 0.544975 0.051937
vt 0.551848 0.086493
vt 0.541518 0.034556
vt 0.534644 0.000000
vt 0.548169 0.050614
vt 0.567743 0.079909
vt 0.500000 0.470487
vt 0.500000 0.454592
vt 0.517969 0.454592
vt 0.517969 0.470487
vt 0.517969 0.360333
vt 0.517969 0.376228
vt 0.500000 0.376228
vt 0.500000 0.360333
vt 0.500000 0.437388
vt 0.517969 0.437388
vt 0.517969 0.393433
vt 0.500000 0.393433
vt 0.500000 0.421493
vt 0.517969 0.421493
vt 0.517970 0.409328
vt 0.500000 0.409328
vt 0.517969 0.225849
vt 0.517969 0.238015
vt 0.500000 0.238015
vt 0.500000 0.225849
vt 0.500000 0.409328
vt 0.517969 0.409328
vt 0.517969 0.287009
vt 0.517969 0.299174
vt 0.500000 0.299174
vt 0.500000 0.287009
vt 0.517969 0.253909
vt 0.500000 0.253909
vt 0.517969 0.315069
vt 0.500000 0.315069
vt 0.517969 0.271114
vt 0.500000 0.271114
vt 0.517969 0.332273
vt 0.500000 0.332273
vt 0.517969 0.287009
vt 0.500000 0.287009
vt 0.517969 0.348168
vt 0.500000 0.348168
vt 0.517970 0.348168
vt 0.533111 0.130022
vt 0.536568 0.130022
vt 0.541769 0.156171
vt 0.527909 0.156171
vt 0.539762 0.113965
vt 0.536568 0.112642
vt 0.541769 0.086492
vt 0.554574 0.091796
vt 0.529917 0.128699
vt 0.515104 0.150867
vt 0.542206 0.116409
vt 0.564374 0.101597
vt 0.526149 0.123060
vt 0.527472 0.126254
vt 0.505304 0.141066
vt 0.500000 0.128262
vt 0.543529 0.119603
vt 0.569678 0.114402
vt 0.526149 0.119603
vt 0.500000 0.114402
vt 0.543529 0.123060
vt 0.569678 0.128262
vt 0.527472 0.116409
vt 0.505304 0.101597
vt 0.542206 0.126254
vt 0.564374 0.141066
vt 0.529917 0.113965
vt 0.515104 0.091796
vt 0.539762 0.128699
vt 0.554574 0.150867
vt 0.533111 0.112642
vt 0.527909 0.086492
vt 0.500000 0.928408
vt 0.500000 0.915603
vt 0.506503 0.915603
vt 0.506503 0.928408
vt 0.500000 0.790398
vt 0.500000 0.780598
vt 0.506503 0.780598
vt 0.506503 0.790398
vt 0.506503 0.866333
vt 0.506503 0.879138
vt 0.500000 0.879138
vt 0.500000 0.866333
vt 0.500000 0.803203
vt 0.506503 0.803203
vt 0.506503 0.852473
vt 0.500000 0.852473
vt 0.500000 0.817063
vt 0.506503 0.817063
vt 0.506503 0.839668
vt 0.500000 0.839668
vt 0.500000 0.829868
vt 0.506503 0.829868
vt 0.500000 0.741128
vt 0.500000 0.731327
vt 0.506503 0.731327
vt 0.506503 0.741128
vt 0.506503 0.829867
vt 0.500000 0.829867
vt 0.500000 0.888938
vt 0.500000 0.879138
vt 0.506503 0.879138
vt 0.506503 0.888938
vt 0.500000 0.753933
vt 0.506503 0.753933
vt 0.500000 0.901743
vt 0.506503 0.901743
vt 0.500000 0.767793
vt 0.506503 0.767793
vt 0.500000 0.780598
vt 0.506503 0.780597
vt 0.515104 0.220545
vt 0.505304 0.210745
vt 0.500000 0.197940
vt 0.500000 0.184080
vt 0.505304 0.171275
vt 0.515104 0.161475
vt 0.527909 0.156171
vt 0.541769 0.156171
vt 0.554574 0.161475
vt 0.564374 0.171275
vt 0.569678 0.184080
vt 0.569678 0.197940
vt 0.564374 0.210745
vt 0.554574 0.220545
vt 0.541769 0.225849
vt 0.527909 0.225849
vt 0.285306 0.764625
vt 0.482979 0.846503
vt 0.450096 0.903457
vt 0.280317 0.773264
vt 0.235375 0.785306
vt 0.153497 0.982979
vt 0.096543 0.950096
vt 0.226736 0.780317
vt 0.238226 0.720682
vt 0.153497 0.517021
vt 0.217021 0.500000
vt 0.246256 0.718530
vt 0.285306 0.735377
vt 0.482979 0.653497
vt 0.500000 0.717021
vt 0.287888 0.745013
vt 0.287888 0.754989
vt 0.500000 0.782979
vt 0.231027 0.724838
vt 0.096543 0.549904
vt 0.282979 1.000000
vt 0.254569 0.781677
vt 0.264623 0.785306
vt 0.346503 0.982979
vt 0.280318 0.726737
vt 0.450096 0.596543
vt 0.273263 0.780318
vt 0.403457 0.950096
vt 0.049904 0.596543
vt 0.225148 0.730716
vt 0.214694 0.735375
vt 0.017021 0.653497
vt 0.403457 0.549904
vt 0.269799 0.724839
vt 0.264625 0.714694
vt 0.346503 0.517021
vt 0.212112 0.745011
vt 0.000000 0.717021
vt 0.254989 0.712112
vt 0.282979 0.500000
vt 0.000000 0.782979
vt 0.218839 0.754259
vt 0.049904 0.903457
vt 0.225147 0.769489
vt 0.217021 1.000000
vt 0.246255 0.781677
vt 0.220991 0.762290
vt 0.017021 0.846503
vt 0.000000 0.217021
vt 0.017021 0.153497
vt 0.049904 0.096543
vt 0.217021 0.500000
vt 0.153497 0.482979
vt 0.096543 0.450096
vt 0.017021 0.346503
vt 0.000000 0.282979
vt 0.450096 0.096543
vt 0.482979 0.153497
vt 0.500000 0.217021
vt 0.482979 0.346503
vt 0.450096 0.403457
vt 0.500000 0.282979
vt 0.346503 0.017021
vt 0.403457 0.049904
vt 0.282979 -0.000000
vt 0.282979 0.500000
vt 0.096543 0.049904
vt 0.217021 0.000000
vt 0.403457 0.450096
vt 0.346503 0.482979
vt 0.049904 0.403457
vt 0.153497 0.017021
s 1
usemtl Concrete_Octagonal_concrete_lamp
f 157/244/19 185/245/19 180/246/20 9/247/20
f 156/248/21 168/249/22 184/250/23 4/251/24
f 18/252/25 173/253/26 175/254/27 16/255/28
f 13/256/29 176/257/29 178/258/30 11/259/30
f 10/260/31 181/261/31 185/245/19 157/244/19
f 17/262/32 174/263/33 173/253/26 18/252/25
f 162/264/34 6/265/35 8/266/36 163/267/37
f 12/268/38 177/269/39 176/257/29 13/256/29
f 163/267/37 8/266/36 7/270/40 164/271/40
f 182/272/41 19/273/42 21/274/43 183/275/44
f 170/276/45 158/277/46 15/278/47 171/279/48
f 183/275/44 21/274/43 20/280/49 179/281/50
f 171/279/48 15/278/47 14/282/51 172/283/52
f 180/246/20 164/271/40 7/270/40 9/247/20
f 165/284/53 179/281/50 20/280/49 1/285/54
f 184/250/23 167/286/55 2/287/56 4/251/24
f 175/254/27 172/283/52 14/282/51 16/255/28
f 162/264/34 169/288/57 5/289/58 6/265/35
f 178/258/30 181/261/31 10/260/31 11/259/30
f 170/276/45 177/269/39 12/268/38 158/277/46
f 182/272/41 174/263/33 17/262/32 19/273/42
f 5/289/58 169/288/57 168/249/22 156/248/21
f 165/284/53 1/285/54 3/290/59 166/291/60
f 166/291/60 3/290/59 2/287/56 167/286/55
f 29/2/1 28/1/1 162/292/1 163/293/1
f 27/3/1 29/2/1 163/293/1 164/294/1
f 24/20/1 23/19/1 165/295/1 166/296/1
f 22/21/1 24/20/1 166/296/1 167/297/1
f 25/24/1 26/23/1 168/298/1 169/299/1
f 37/11/1 36/10/1 170/300/1 171/301/1
f 35/12/1 37/11/1 171/301/1 172/302/1
f 38/15/1 40/14/1 173/303/1 174/304/1
f 40/14/1 39/13/1 175/305/1 173/303/1
f 32/9/1 34/8/1 176/306/1 177/307/1
f 34/8/1 33/7/1 178/308/1 176/306/1
f 23/19/1 41/18/1 179/309/1 165/295/1
f 28/1/1 25/24/1 169/299/1 162/292/1
f 31/4/1 27/3/1 164/294/1 180/310/1
f 33/7/1 30/6/1 181/311/1 178/308/1
f 36/10/1 32/9/1 177/307/1 170/300/1
f 39/13/1 35/12/1 172/302/1 175/305/1
f 42/16/1 38/15/1 174/304/1 182/312/1
f 161/17/1 42/16/1 182/312/1 183/313/1
f 159/22/1 22/21/1 167/297/1 184/314/1
f 160/5/1 31/4/1 180/310/1 185/315/1
f 41/18/1 161/17/1 183/313/1 179/309/1
f 26/23/1 159/22/1 184/314/1 168/298/1
f 30/6/1 160/5/1 185/315/1 181/311/1
usemtl Octagonal_concrete_lamp
f 50/25/2 51/26/3 69/27/3 68/28/2
f 43/29/4 44/30/5 59/31/5 65/32/4
f 58/33/6 43/34/4 65/35/4 74/36/6
f 51/37/3 52/38/7 63/39/7 69/40/3
f 44/30/5 45/41/8 66/42/8 59/31/5
f 52/38/7 53/43/9 70/44/9 63/39/7
f 45/41/8 46/45/10 67/46/10 66/42/8
f 53/43/9 54/47/11 71/48/11 70/44/9
f 46/45/10 47/49/12 60/50/12 67/46/10
f 54/47/11 55/51/13 72/52/13 71/48/11
f 47/53/12 48/54/14 61/55/14 60/56/12
f 55/57/13 56/58/15 64/59/15 72/60/13
f 48/54/14 49/61/16 62/62/16 61/55/14
f 56/58/15 57/63/17 73/64/17 64/59/15
f 49/61/16 50/25/2 68/28/2 62/62/16
f 57/63/17 58/33/6 74/36/6 73/64/17
f 63/39/7 70/44/9 85/65/9 84/66/7
f 66/42/8 67/46/10 78/67/10 77/68/8
f 70/44/9 71/48/11 86/69/11 85/65/9
f 67/46/10 60/50/12 79/70/12 78/67/10
f 71/48/11 72/52/13 87/71/13 86/69/11
f 60/56/12 61/55/14 80/72/14 79/73/12
f 72/60/13 64/59/15 88/74/15 87/75/13
f 61/55/14 62/62/16 81/76/16 80/72/14
f 64/59/15 73/64/17 89/77/17 88/74/15
f 62/62/16 68/28/2 82/78/2 81/76/16
f 73/64/17 74/36/6 90/79/6 89/77/17
f 68/28/2 69/27/3 83/80/3 82/78/2
f 65/32/4 59/31/5 76/81/5 75/82/4
f 74/36/6 65/35/4 75/83/4 90/79/6
f 69/40/3 63/39/7 84/66/7 83/84/3
f 59/31/5 66/42/8 77/68/8 76/81/5
f 89/85/18 90/86/18 106/87/18 105/88/18
f 82/89/18 83/90/18 99/91/18 98/92/18
f 75/93/18 76/94/18 92/95/18 91/96/18
f 90/86/18 75/93/18 91/96/18 106/87/18
f 83/90/18 84/97/18 100/98/18 99/91/18
f 76/94/18 77/99/18 93/100/18 92/95/18
f 84/97/18 85/101/18 101/102/18 100/98/18
f 77/99/18 78/103/18 94/104/18 93/100/18
f 85/101/18 86/105/18 102/106/18 101/102/18
f 78/103/18 79/107/18 95/108/18 94/104/18
f 86/105/18 87/109/18 103/110/18 102/106/18
f 79/107/18 80/111/18 96/112/18 95/108/18
f 87/109/18 88/113/18 104/114/18 103/110/18
f 80/111/18 81/115/18 97/116/18 96/112/18
f 88/113/18 89/85/18 105/88/18 104/114/18
f 81/115/18 82/89/18 98/92/18 97/116/18
f 103/117/13 104/118/15 120/119/15 119/120/13
f 96/121/14 97/122/16 113/123/16 112/124/14
f 104/118/15 105/125/17 121/126/17 120/119/15
f 97/122/16 98/127/2 114/128/2 113/123/16
f 105/125/17 106/129/6 122/130/6 121/126/17
f 98/127/2 99/131/3 115/132/3 114/128/2
f 91/133/4 92/134/5 108/135/5 107/136/4
f 106/129/6 91/137/4 107/138/4 122/130/6
f 99/139/3 100/140/7 116/141/7 115/142/3
f 92/134/5 93/143/8 109/144/8 108/135/5
f 100/140/7 101/145/9 117/146/9 116/141/7
f 93/143/8 94/147/10 110/148/10 109/144/8
f 101/145/9 102/149/11 118/150/11 117/146/9
f 94/147/10 95/151/12 111/152/12 110/148/10
f 102/149/11 103/153/13 119/154/13 118/150/11
f 95/155/12 96/121/14 112/124/14 111/154/12
f 57/156/1 56/157/1 136/158/1 137/159/1
f 50/160/1 49/161/1 129/162/1 130/163/1
f 58/164/1 57/156/1 137/159/1 138/165/1
f 51/166/1 50/160/1 130/163/1 131/167/1
f 44/168/1 43/169/1 123/170/1 124/171/1
f 43/169/1 58/164/1 138/165/1 123/170/1
f 52/172/1 51/166/1 131/167/1 132/173/1
f 45/174/1 44/168/1 124/171/1 125/175/1
f 53/176/1 52/172/1 132/173/1 133/177/1
f 46/178/1 45/174/1 125/175/1 126/179/1
f 54/180/1 53/176/1 133/177/1 134/181/1
f 47/182/1 46/178/1 126/179/1 127/183/1
f 55/184/1 54/180/1 134/181/1 135/185/1
f 48/186/1 47/182/1 127/183/1 128/187/1
f 56/157/1 55/184/1 135/185/1 136/158/1
f 49/161/1 48/186/1 128/187/1 129/162/1
f 135/188/13 134/189/11 150/190/11 151/191/13
f 128/192/14 127/193/12 143/194/12 144/195/14
f 136/196/15 135/197/13 151/198/13 152/199/15
f 129/200/16 128/192/14 144/195/14 145/201/16
f 137/202/17 136/196/15 152/199/15 153/203/17
f 130/204/2 129/200/16 145/201/16 146/205/2
f 138/206/6 137/202/17 153/203/17 154/207/6
f 131/208/3 130/204/2 146/205/2 147/209/3
f 124/210/5 123/211/4 139/212/4 140/213/5
f 123/214/4 138/206/6 154/207/6 139/215/4
f 132/216/7 131/217/3 147/218/3 148/219/7
f 125/220/8 124/210/5 140/213/5 141/221/8
f 133/222/9 132/216/7 148/219/7 149/223/9
f 126/224/10 125/220/8 141/221/8 142/225/10
f 134/189/11 133/222/9 149/223/9 150/190/11
f 127/226/12 126/224/10 142/225/10 143/227/12
f 140/228/18 139/229/18 154/230/18 153/231/18 152/232/18 151/233/18 150/234/18 149/235/18 148/236/18 147/237/18 146/238/18 145/239/18 144/240/18 143/241/18 142/242/18 141/243/18
usemtl Material
f 28/1/1 29/2/1 27/3/1 31/4/1 160/5/1 30/6/1 33/7/1 34/8/1 32/9/1 36/10/1 37/11/1 35/12/1 39/13/1 40/14/1 38/15/1 42/16/1 161/17/1 41/18/1 23/19/1 24/20/1 22/21/1 159/22/1 26/23/1 25/24/1
